<svg width="121" height="70" viewBox="0 0 121 70" fill="none" xmlns="http://www.w3.org/2000/svg">
<g clip-path="url(#clip0_43_163)">
<path d="M40.9312 42.2609C41.3813 43.9048 40.659 45.1705 39.8416 46.2504C38.6845 47.7376 37.3551 49.1175 35.9306 50.3117C29.2238 55.6415 21.476 57.6381 13.0029 56.7651C10.8494 56.5355 8.69337 55.995 6.30414 55.5343C6.77462 57.7532 8.56574 59.4163 9.17692 61.6807C8.16294 61.6119 7.70531 60.9475 7.31106 60.4069C5.70239 58.1825 4.10893 55.9114 2.57757 53.6086C1.85118 52.4957 1.95504 51.8574 3.07289 51.2878C5.38588 50.0701 7.84599 49.6752 10.3911 50.1345C10.4849 50.1647 10.58 50.3504 10.7537 50.6132C9.58401 52.4581 7.15666 51.1582 5.65614 52.5862C8.64883 54.3786 11.9266 54.8158 15.2017 54.9422C18.6328 55.0671 22.0143 54.8661 25.2957 53.8575C28.515 52.8806 31.3704 51.2694 34.1611 49.3791C36.9836 47.5506 39.1621 45.1527 40.9312 42.2609Z" fill="black"/>
</g>
<path d="M17.4799 10.9339C17.5334 10.4263 17.6333 9.95789 17.7794 9.52871C17.9854 8.92252 18.2404 8.43831 18.5444 8.07607C18.8489 7.7093 19.1405 7.42136 19.4191 7.21227C19.7024 7.00365 19.9846 6.84762 20.2659 6.74419C20.6009 6.60972 21.0165 6.53639 21.5127 6.5242C21.802 6.51784 22.0578 6.52629 22.2799 6.54954C22.9824 6.6231 23.3327 6.84307 23.3307 7.20944C23.3319 7.24164 23.331 7.27133 23.3282 7.29852C23.2942 7.62031 23.0366 7.82474 22.5554 7.91182C22.4302 7.9262 22.2272 7.93931 21.9464 7.95115C21.6706 7.95893 21.4229 7.98339 21.2031 8.02454C20.918 8.07717 20.6045 8.22534 20.2626 8.46905C19.9207 8.71277 19.6734 8.99388 19.5206 9.31238C19.2717 9.80411 19.1138 10.2802 19.0469 10.7405C19.0416 10.7904 19.0339 10.8423 19.0236 10.8962C18.981 11.2995 19.0078 11.6758 19.1039 12.0249C19.2137 12.4168 19.4639 12.7385 19.8544 12.9902C20.1847 13.2035 20.606 13.3369 21.1182 13.3906C21.2088 13.4001 21.302 13.4075 21.3976 13.413C21.521 13.4167 21.7075 13.3858 21.9573 13.3203C22.2076 13.2503 22.3883 13.2097 22.4995 13.1984C22.592 13.1898 22.6836 13.1902 22.7743 13.1997C22.8921 13.212 23.0035 13.242 23.1085 13.2897C23.2972 13.369 23.409 13.4815 23.4441 13.6272C23.46 13.6931 23.4647 13.7577 23.458 13.8211C23.4293 14.0931 23.1956 14.3321 22.7568 14.5382C22.4199 14.6907 22.0958 14.7874 21.7845 14.8281C21.4782 14.8648 21.0825 14.8577 20.5976 14.8069C19.9766 14.7419 19.3327 14.482 18.6658 14.0273C18.2903 13.7635 17.9854 13.4177 17.751 12.9899C17.5211 12.5626 17.4156 12.0864 17.4343 11.5614C17.4389 11.3878 17.4498 11.2194 17.467 11.0562C17.4713 11.0155 17.4756 10.9747 17.4799 10.9339ZM24.1376 15.0676C24.1562 14.8909 24.1906 14.6952 24.2408 14.4805C24.3263 14.1045 24.457 13.5821 24.633 12.9132C24.814 12.2402 24.9641 11.6419 25.0835 11.1183C25.1571 10.7686 25.2529 10.3387 25.3708 9.82871C25.4938 9.31463 25.583 8.92532 25.6384 8.66077C25.6561 8.58014 25.6813 8.4499 25.714 8.27004C25.7513 8.09065 25.7804 7.94478 25.8014 7.83242C25.8224 7.72007 25.8501 7.58779 25.8845 7.4356C25.9194 7.27887 25.9579 7.15232 26.0002 7.05593C26.0429 6.95502 26.0902 6.85457 26.142 6.75461C26.1988 6.65058 26.2643 6.57267 26.3385 6.52087C26.4131 6.46454 26.4945 6.43182 26.5825 6.4227C26.6474 6.41575 26.7116 6.4156 26.7751 6.42224C26.8702 6.43221 26.9637 6.45804 27.0556 6.49973C27.213 6.5712 27.3243 6.66762 27.3894 6.78899C27.4418 6.89988 27.4649 7.02831 27.4587 7.17428C27.453 7.31573 27.435 7.44215 27.4049 7.55356C27.3753 7.66043 27.3368 7.78699 27.2893 7.93323C27.2418 8.07947 27.2097 8.18837 27.1929 8.25993C27.1762 8.3315 27.1531 8.42072 27.1235 8.52759C27.0989 8.6304 27.0748 8.72869 27.0511 8.82244C27.028 8.91166 27.0038 9.00994 26.9788 9.11729C26.9542 9.2201 26.9328 9.31409 26.9146 9.39925C26.897 9.47988 26.8823 9.55395 26.8706 9.62146C26.8594 9.68443 26.8564 9.73453 26.8616 9.77173C26.8668 9.80894 26.8785 9.82849 26.8967 9.83039C27.1016 9.84268 27.4011 9.76178 27.7952 9.58768C28.098 9.45443 28.3695 9.40037 28.6097 9.42553C28.6822 9.43312 28.754 9.44751 28.8251 9.4687C29.1049 9.55299 29.3031 9.80285 29.4197 10.2183C29.5367 10.6292 29.5804 11.1057 29.5507 11.6479C29.5578 11.667 29.5475 11.808 29.5198 12.0708C29.4988 12.2702 29.4681 12.5397 29.4277 12.8791C29.3304 13.6708 29.2758 14.1233 29.2638 14.2366C29.2526 14.3866 29.2378 14.5271 29.2194 14.6581C29.1419 15.3923 29.0481 15.8682 28.9381 16.0858C28.889 16.2044 28.8243 16.2961 28.7441 16.361C28.5947 16.4737 28.4226 16.5198 28.2277 16.4994C28.196 16.4961 28.1643 16.4928 28.1325 16.4894C27.8992 16.4421 27.7469 16.3437 27.6756 16.1942C27.638 16.1169 27.6323 15.9536 27.6586 15.7044C27.6854 15.4506 27.7383 15.0575 27.8174 14.525C27.8965 13.9926 27.9539 13.5565 27.9898 13.2165L28.0357 12.7815C28.062 12.5322 28.0816 12.3028 28.0945 12.0934C28.1075 11.884 28.1113 11.6736 28.1061 11.4623C28.1014 11.2464 28.072 11.1128 28.0178 11.0613C27.6552 11.0233 27.3109 11.1384 26.9847 11.4067C26.722 11.5946 26.4998 11.876 26.3182 12.2511C26.1964 12.6232 26.0716 13.1119 25.9436 13.7171C25.8201 14.3228 25.733 14.7352 25.6824 14.9545C25.5702 15.4971 25.459 15.8338 25.349 15.9643C25.2147 16.1518 25.0002 16.2302 24.7056 16.1993C24.6693 16.1955 24.6333 16.1895 24.5975 16.1812C24.222 16.0914 24.0687 15.7203 24.1376 15.0676ZM30.4185 12.9347C30.4854 12.3002 30.6955 11.7861 31.0487 11.3924C31.2498 11.0927 31.5038 10.8352 31.8107 10.6199C32.122 10.405 32.4225 10.2715 32.7122 10.2194C33.0796 10.125 33.4219 10.0944 33.7392 10.1276C34.0293 10.1579 34.3 10.2413 34.5514 10.3776C35.0759 10.6616 35.4494 11.1612 35.6718 11.8764C35.7166 11.9728 35.7611 12.1378 35.8052 12.3715C35.8543 12.6012 35.8728 12.7727 35.8609 12.886C35.8625 12.9136 35.8622 12.9388 35.8598 12.9615C35.8421 13.1292 35.772 13.2937 35.6496 13.455C35.5067 13.637 35.339 13.7501 35.1464 13.7941C35.0011 13.8247 34.7509 13.8947 34.3956 14.0041C34.0449 14.114 33.7461 14.1881 33.4992 14.2264C32.8314 14.3444 32.3709 14.4313 32.1175 14.4873C32.1494 14.706 32.242 14.8715 32.3951 14.9837C32.5487 15.0915 32.7937 15.2019 33.13 15.315C33.2319 15.3486 33.3327 15.3706 33.4324 15.381C33.5321 15.3915 33.633 15.3906 33.7351 15.3784C33.9393 15.3539 34.1014 15.3159 34.2214 15.2643C34.3465 15.2087 34.4852 15.1751 34.6376 15.1636C34.7901 15.152 34.9123 15.1877 35.0044 15.2707C35.1282 15.444 35.1812 15.6145 35.1635 15.7822C35.1429 15.9771 35.0567 16.1216 34.9047 16.2156C34.5148 16.436 34.0328 16.5528 33.4586 16.566C33.3026 16.568 33.1566 16.5618 33.0206 16.5476C32.6489 16.5087 32.3388 16.4075 32.0903 16.244C31.5572 15.9545 31.1776 15.665 30.9515 15.3756C30.7299 15.0866 30.5566 14.6446 30.4315 14.0496C30.387 13.6462 30.3826 13.2746 30.4185 12.9347ZM31.9225 12.8173C31.9091 12.9442 31.9195 13.0415 31.9536 13.1092C31.9672 13.1106 31.9853 13.1125 32.008 13.1149C32.085 13.123 32.1975 13.121 32.3454 13.109C32.5351 13.0922 32.7581 13.0629 33.0146 13.021C33.2761 12.975 33.4622 12.9487 33.5729 12.942C33.7444 12.9233 33.9175 12.8681 34.0921 12.7764C34.2668 12.6847 34.378 12.5864 34.4257 12.4814C34.3396 12.1241 34.1978 11.8618 34 11.6945C33.861 11.5791 33.7031 11.5122 33.5263 11.4937C33.4538 11.4861 33.3758 11.4871 33.2923 11.4967C33.0186 11.5276 32.7196 11.6475 32.3951 11.8564C32.2135 11.9703 32.0793 12.1784 31.9924 12.4809C31.9559 12.61 31.9326 12.7221 31.9225 12.8173ZM36.4518 14.0613C36.4967 13.6353 36.645 13.1857 36.8965 12.7126C37.2118 12.2003 37.62 11.8055 38.1213 11.5281C38.6271 11.2511 39.1802 11.112 39.7807 11.1107C39.9045 11.1099 40.0367 11.1169 40.1772 11.1316C40.4219 11.1572 40.6917 11.2061 40.9866 11.2782C41.4467 11.3905 41.6925 11.5583 41.724 11.7816C41.734 11.8605 41.7351 11.9362 41.7275 12.0087C41.7093 12.181 41.6473 12.3348 41.5413 12.4704C41.3879 12.6651 41.2123 12.7658 41.0145 12.7726C40.9215 12.7858 40.8115 12.7857 40.6846 12.7725C40.5894 12.7625 40.4813 12.7443 40.3604 12.7179C40.1901 12.6817 40.0528 12.6582 39.9485 12.6473C39.9259 12.6449 39.9055 12.6428 39.8873 12.6409C39.8511 12.6371 39.8194 12.6337 39.7922 12.6309C39.2824 12.6417 38.8314 12.8327 38.4394 13.2041C38.145 13.4757 37.9827 13.7542 37.9525 14.0398C37.9425 14.1349 37.9461 14.2315 37.9632 14.3296C38.0607 14.7522 38.2672 15.0968 38.5828 15.3636C38.8225 15.5674 39.1191 15.6878 39.4726 15.7248C39.5859 15.7367 39.7047 15.7399 39.829 15.7346C39.9533 15.7293 40.1062 15.7132 40.2878 15.6864C40.4698 15.6551 40.6141 15.6335 40.7208 15.6218C40.832 15.6105 40.944 15.6131 41.0568 15.6295C41.1742 15.6464 41.2696 15.6976 41.343 15.7832C41.4215 15.8647 41.4846 15.9836 41.5322 16.1398C41.5558 16.2201 41.5641 16.2943 41.5569 16.3623C41.5311 16.607 41.322 16.8074 40.9298 16.9634C40.4612 17.148 39.9233 17.2085 39.3159 17.1449C39.2706 17.1402 39.2253 17.1354 39.1799 17.1307C37.746 16.953 36.8475 16.1739 36.4845 14.7933C36.4404 14.5596 36.4295 14.3156 36.4518 14.0613ZM42.4586 16.5461L42.5482 15.6963C42.565 15.6247 42.5759 15.564 42.5812 15.5142C42.9785 12.921 43.3937 10.6367 43.8266 8.66129C43.8992 8.32065 43.962 8.07291 44.015 7.91808C44.0685 7.75872 44.1552 7.60972 44.2753 7.47108C44.3998 7.3329 44.5624 7.24683 44.7631 7.21285C44.8566 7.19515 44.9419 7.19033 45.0189 7.1984C45.1957 7.21691 45.3383 7.29829 45.4468 7.44253C45.4392 7.51505 45.4315 7.58756 45.4239 7.66008C45.3885 7.99545 45.3316 8.36066 45.2533 8.75569C45.1604 9.24542 45.0504 9.78835 44.9234 10.3845C44.7963 10.9806 44.7002 11.4356 44.635 11.7496C44.571 12.0957 44.5261 12.3911 44.5002 12.6359C44.4845 12.7854 44.4754 12.9151 44.473 13.0248C44.6001 12.9923 44.8861 12.8664 45.3308 12.6472C45.7478 12.4297 46.0612 12.2609 46.2709 12.1408C46.3 12.1255 46.3738 12.0783 46.4921 11.999C46.6155 11.9157 46.7035 11.8631 46.7562 11.8411C46.8135 11.8196 46.8914 11.798 46.9899 11.7762C47.093 11.7549 47.1902 11.7674 47.2815 11.8136C47.3774 11.8603 47.4697 11.941 47.5585 12.0557C47.6324 12.1367 47.6784 12.2217 47.6965 12.3107C47.7196 12.3956 47.7035 12.4833 47.6482 12.5737C47.5933 12.6596 47.5371 12.7362 47.4796 12.8035C47.4271 12.8667 47.3341 12.944 47.2008 13.0355C47.0724 13.1228 46.9766 13.1838 46.9134 13.2185C46.8547 13.2535 46.7564 13.3166 46.6185 13.4075C46.5693 13.439 46.5279 13.4622 46.4943 13.477C46.4561 13.4913 46.3906 13.5257 46.2978 13.5801C46.21 13.6305 46.137 13.671 46.0788 13.7016C46.0206 13.7321 45.9544 13.7733 45.8801 13.8251C45.811 13.8728 45.7554 13.922 45.7134 13.9726C45.6714 14.0232 45.643 14.0752 45.6282 14.1286C45.6105 14.2093 45.6142 14.283 45.6392 14.3497C45.6647 14.412 45.716 14.4907 45.793 14.5858C45.8751 14.6769 45.9278 14.7419 45.9511 14.781C46.2707 15.2269 46.6451 15.7175 47.0744 16.2527C47.0906 16.2727 47.1251 16.3153 47.1778 16.3804C47.2355 16.4414 47.2768 16.4847 47.3016 16.5102C47.3264 16.5357 47.3583 16.5803 47.3975 16.6439C47.4416 16.7035 47.4728 16.7549 47.4912 16.7981C47.5095 16.8412 47.5267 16.8957 47.5427 16.9616C47.5591 17.0229 47.5685 17.0857 47.5709 17.1501C47.568 17.1773 47.5674 17.2047 47.5691 17.2324C47.5437 17.4726 47.4507 17.6599 47.2898 17.7943C47.1641 17.9002 47.0083 17.9435 46.8225 17.924C46.7409 17.9155 46.6514 17.8947 46.5541 17.8616C46.4193 17.7925 46.2544 17.64 46.0593 17.4042C45.8647 17.1639 45.6551 16.8922 45.4304 16.5892C45.2063 16.2816 45.0387 16.067 44.9278 15.9455L44.8548 15.8553C44.8071 15.7862 44.7531 15.7118 44.6928 15.6322C44.637 15.553 44.5723 15.4706 44.4989 15.385C44.43 15.2999 44.3603 15.2216 44.29 15.1501C44.2246 15.0745 44.1748 15.0258 44.1404 15.0038C44.0434 15.9239 43.9398 16.5362 43.8298 16.8409C43.7472 17.1026 43.5449 17.2601 43.2231 17.3135C43.1255 17.3261 43.0382 17.3285 42.9612 17.3204C42.8025 17.3038 42.6804 17.2452 42.5948 17.1446C42.4777 16.9948 42.4323 16.7953 42.4586 16.5461ZM51.6262 20.6058C51.6246 20.4911 51.6288 20.3862 51.6388 20.291C51.6484 20.2003 51.6683 20.0764 51.6986 19.9192C51.729 19.762 51.7484 19.6426 51.7571 19.5611C51.8111 19.136 51.9495 18.1928 52.1724 16.7315C52.4345 15.2468 52.7454 13.9505 53.1051 12.8427C53.335 12.4452 53.9146 12.2721 54.844 12.3236C55.656 12.4453 56.2989 12.6066 56.7726 12.8074C57.2464 13.0082 57.6678 13.3571 58.037 13.8539C58.306 14.2578 58.4383 14.7414 58.4339 15.3045C58.4329 15.4006 58.4274 15.4963 58.4173 15.5915C58.3695 16.0447 58.2133 16.4613 57.9486 16.8414C57.7484 17.1321 57.4521 17.4218 57.0596 17.7106C56.6676 17.9949 56.2809 18.2064 55.8997 18.3452C55.6709 18.4725 55.438 18.5512 55.2011 18.5814C54.9642 18.6116 54.6741 18.6247 54.3308 18.6208C53.988 18.6124 53.7263 18.6171 53.5457 18.6349C53.4975 18.7444 53.459 18.8709 53.4301 19.0145C53.4007 19.1627 53.3687 19.3357 53.3341 19.5337C53.2994 19.7317 53.2716 19.8869 53.2506 19.9992C53.1722 20.3943 53.0161 20.701 52.7823 20.9193C52.6146 21.0759 52.4174 21.1423 52.1908 21.1186C52.1001 21.1091 52.0061 21.0878 51.9088 21.0547C51.821 21.018 51.7512 20.9626 51.6995 20.8885C51.6518 20.8193 51.6274 20.7251 51.6262 20.6058ZM53.6563 16.935C53.6439 17.0528 53.637 17.1621 53.6355 17.2627C53.6763 17.267 53.7171 17.2713 53.7579 17.2755C54.3154 17.3339 54.8584 17.2693 55.3868 17.0818C55.9534 16.88 56.3629 16.5608 56.6151 16.1245C56.7607 15.8739 56.8457 15.6331 56.8701 15.402C56.905 15.0711 56.8112 14.7657 56.5887 14.4858C56.2572 14.0662 55.7993 13.8235 55.2151 13.7578C55.138 13.7497 55.0582 13.7459 54.9757 13.7465C54.8932 13.747 54.822 13.7487 54.7621 13.7516C54.7067 13.755 54.6562 13.7565 54.6104 13.7563C54.5645 13.7561 54.5241 13.7702 54.489 13.7986C54.4585 13.8275 54.4334 13.8478 54.4139 13.8595C54.3943 13.8712 54.3721 13.9078 54.3473 13.9693C54.3229 14.0264 54.3073 14.066 54.3004 14.0882C54.2935 14.1103 54.2779 14.1706 54.2538 14.2689C54.2302 14.3626 54.2114 14.4317 54.1976 14.476C53.8975 15.5398 53.7171 16.3594 53.6563 16.935ZM58.8936 18.8305C58.9079 18.6946 58.9483 18.4857 59.0147 18.204C59.0754 17.8896 59.1842 17.2274 59.3411 16.2174C59.5026 15.2079 59.628 14.4971 59.7173 14.0849C59.7331 14.0224 59.7557 13.917 59.7851 13.7689C59.8144 13.6208 59.8363 13.5222 59.8506 13.4733C59.8649 13.4244 59.8867 13.3488 59.9158 13.2465C59.9454 13.1396 59.9689 13.0687 59.9863 13.0339C60.0042 12.9945 60.0304 12.9423 60.0647 12.8772C60.1036 12.8125 60.1424 12.7707 60.1811 12.7519C60.2202 12.7285 60.2666 12.7013 60.3203 12.6702C60.3785 12.6397 60.44 12.6209 60.5049 12.614C60.5698 12.607 60.6453 12.608 60.7314 12.6171C60.7541 12.6194 60.777 12.6195 60.8001 12.6174C60.9996 12.6383 61.1551 12.7279 61.2667 12.8862C61.291 13.0033 61.3035 13.1237 61.3042 13.2475C61.3049 13.3713 61.2989 13.4715 61.2862 13.5481C61.2741 13.6201 61.2523 13.7392 61.221 13.9055C61.1897 14.0718 61.1717 14.1776 61.1669 14.2229C61.2673 14.2701 61.3861 14.2733 61.5233 14.2327C61.665 14.1926 61.823 14.1289 61.9971 14.0418C62.1763 13.9506 62.3059 13.8954 62.3858 13.8763C62.9512 13.7293 63.388 13.6719 63.6962 13.7042C63.7552 13.7103 63.8116 13.7185 63.8655 13.7288C64.0222 13.7635 64.1618 13.8308 64.2841 13.9307C64.4115 14.0265 64.4818 14.1415 64.4952 14.2758C64.4995 14.3221 64.4992 14.3679 64.4944 14.4132C64.4743 14.6036 64.3914 14.7598 64.2456 14.882C64.0648 15.0326 63.879 15.1209 63.6884 15.1467C63.1442 15.2226 62.7573 15.2852 62.5275 15.3345C62.2334 15.3862 61.8918 15.5177 61.5029 15.729C61.1145 15.9357 60.9139 16.1003 60.9009 16.2227C60.8799 16.335 60.8415 16.6128 60.7855 17.056C60.7296 17.4992 60.6674 17.8936 60.5988 18.2393C60.5348 18.5854 60.4708 18.8445 60.4068 19.0165C60.32 19.2319 60.2079 19.3599 60.0708 19.4006C59.9667 19.4309 59.8195 19.4361 59.6292 19.4162C59.5657 19.4095 59.498 19.4002 59.4259 19.388C59.3136 19.3671 59.2021 19.3165 59.0914 19.2362C58.9857 19.1518 58.9191 19.0669 58.8914 18.9815C58.8857 18.9488 58.8864 18.8985 58.8936 18.8305ZM64.372 19.4179C64.3703 19.3902 64.3716 19.356 64.3759 19.3152C64.3802 19.2744 64.3873 19.2294 64.3971 19.18C64.4126 19.0762 64.4255 18.9974 64.4358 18.9435C64.446 18.8895 64.4672 18.7978 64.4992 18.6683C64.5312 18.5388 64.5541 18.4518 64.5679 18.4074C64.6028 18.2507 64.8197 17.302 65.2188 15.5613C65.453 14.6007 65.8332 14.125 66.3592 14.1342C66.3823 14.1321 66.403 14.1319 66.4211 14.1338C66.5299 14.1452 66.6507 14.1945 66.7835 14.2817C66.9467 14.3859 67.0328 14.5255 67.0418 14.7006C67.0451 14.7559 67.038 14.8239 67.0203 14.9045C67.0031 14.9806 66.9632 15.0979 66.9007 15.2563C66.8386 15.4102 66.8 15.5161 66.7847 15.574C66.4851 16.5462 66.287 17.3594 66.1905 18.0137C66.1728 18.0943 66.1496 18.2706 66.1209 18.5425C66.0927 18.8099 66.0582 19.0286 66.0174 19.1984C65.9811 19.3687 65.9402 19.4951 65.8949 19.5774C65.7691 19.7704 65.5408 19.8931 65.2099 19.9455C65.0932 19.9654 64.9873 19.9703 64.8921 19.9604C64.7108 19.9414 64.5693 19.8716 64.4674 19.751C64.435 19.7109 64.4106 19.6602 64.3941 19.5989C64.3781 19.5331 64.3708 19.4728 64.372 19.4179ZM65.9706 12.5402C65.9892 12.3634 66.0656 12.2041 66.1997 12.0624C66.3543 11.8999 66.5315 11.8062 66.7312 11.7812C66.8051 11.7752 66.8738 11.7756 66.9373 11.7822C67.1004 11.7993 67.2366 11.8548 67.3459 11.9487C67.5012 12.0841 67.5702 12.2769 67.5529 12.5271C67.5247 12.7945 67.3804 12.9902 67.1198 13.1141C66.9416 13.1963 66.7661 13.2306 66.5934 13.2171C66.5118 13.2086 66.4292 13.1884 66.3454 13.1568C66.0947 13.0572 65.9694 12.8768 65.9695 12.6156C65.9719 12.593 65.9722 12.5678 65.9706 12.5402ZM67.4814 17.3103C67.5263 16.8843 67.6745 16.4347 67.9261 15.9616C68.2413 15.4493 68.6496 15.0545 69.1509 14.7771C69.6567 14.5001 70.2098 14.361 70.8103 14.3597C70.9341 14.3589 71.0663 14.3659 71.2068 14.3806C71.4515 14.4062 71.7213 14.4551 72.0162 14.5272C72.4763 14.6395 72.7221 14.8073 72.7536 15.0306C72.7636 15.1095 72.7647 15.1852 72.7571 15.2578C72.7389 15.43 72.6768 15.5839 72.5709 15.7194C72.4175 15.9141 72.2419 16.0149 72.0441 16.0216C71.951 16.0348 71.8411 16.0348 71.7142 16.0215C71.619 16.0115 71.5109 15.9933 71.39 15.9669C71.2196 15.9307 71.0824 15.9072 70.9781 15.8963C70.9555 15.8939 70.9351 15.8918 70.9169 15.8899C70.8807 15.8861 70.8489 15.8828 70.8217 15.8799C70.3119 15.8907 69.861 16.0817 69.469 16.4531C69.1745 16.7247 69.0123 17.0032 68.9821 17.2888C68.9721 17.3839 68.9756 17.4805 68.9928 17.5786C69.0903 18.0012 69.2968 18.3458 69.6123 18.6126C69.852 18.8164 70.1487 18.9368 70.5022 18.9738C70.6155 18.9857 70.7343 18.9889 70.8586 18.9836C70.9829 18.9783 71.1358 18.9622 71.3174 18.9354C71.4994 18.9041 71.6437 18.8825 71.7504 18.8708C71.8615 18.8595 71.9735 18.8621 72.0864 18.8785C72.2037 18.8954 72.2992 18.9466 72.3726 19.0322C72.4511 19.1137 72.5141 19.2326 72.5618 19.3888C72.5854 19.4692 72.5936 19.5433 72.5865 19.6113C72.5606 19.856 72.3516 20.0564 71.9594 20.2124C71.4908 20.397 70.9529 20.4575 70.3455 20.3939C70.3002 20.3892 70.2549 20.3844 70.2095 20.3797C68.7756 20.202 67.8771 19.4229 67.5141 18.0423C67.47 17.8086 67.4591 17.5646 67.4814 17.3103ZM73.7403 17.4708C73.8072 16.8363 74.0173 16.3222 74.3704 15.9284C74.5716 15.6287 74.8256 15.3712 75.1324 15.1559C75.4438 14.9411 75.7443 14.8076 76.0339 14.7554C76.4013 14.661 76.7437 14.6304 77.0609 14.6637C77.351 14.694 77.6218 14.7774 77.8732 14.9137C78.3977 15.1977 78.7712 15.6973 78.9936 16.4125C79.0384 16.5088 79.0829 16.6739 79.1269 16.9076C79.176 17.1373 79.1946 17.3088 79.1826 17.4221C79.1843 17.4497 79.1839 17.4749 79.1816 17.4976C79.1639 17.6652 79.0938 17.8297 78.9714 17.991C78.8285 18.1731 78.6607 18.2861 78.4682 18.3301C78.3229 18.3607 78.0726 18.4308 77.7174 18.5402C77.3667 18.6501 77.0679 18.7242 76.821 18.7625C76.1532 18.8805 75.6927 18.9674 75.4393 19.0234C75.4712 19.2421 75.5637 19.4076 75.7169 19.5198C75.8705 19.6275 76.1154 19.738 76.4518 19.8511C76.5536 19.8847 76.6544 19.9067 76.7541 19.9171C76.8539 19.9275 76.9548 19.9267 77.0569 19.9144C77.2611 19.89 77.4232 19.852 77.5432 19.8004C77.6682 19.7448 77.8069 19.7112 77.9594 19.6996C78.1118 19.6881 78.2341 19.7238 78.3262 19.8068C78.4499 19.9801 78.503 20.1506 78.4853 20.3183C78.4647 20.5132 78.3784 20.6577 78.2265 20.7517C77.8366 20.9721 77.3546 21.0889 76.7803 21.1021C76.6243 21.104 76.4783 21.0979 76.3424 21.0837C75.9707 21.0448 75.6606 20.9436 75.412 20.7801C74.8789 20.4906 74.4993 20.2011 74.2732 19.9116C74.0517 19.6227 73.8784 19.1807 73.7533 18.5856C73.7087 18.1823 73.7044 17.8107 73.7403 17.4708ZM75.2443 17.3534C75.2309 17.4803 75.2413 17.5776 75.2754 17.6453C75.289 17.6467 75.3071 17.6486 75.3297 17.651C75.4068 17.659 75.5193 17.6571 75.6672 17.6451C75.8568 17.6283 76.0799 17.5989 76.3364 17.5571C76.5978 17.5111 76.7839 17.4848 76.8946 17.478C77.0661 17.4593 77.2392 17.4042 77.4139 17.3125C77.5885 17.2208 77.6997 17.1224 77.7474 17.0175C77.6614 16.6602 77.5195 16.3979 77.3218 16.2306C77.1827 16.1152 77.0248 16.0483 76.8481 16.0298C76.7755 16.0222 76.6975 16.0232 76.614 16.0328C76.3404 16.0637 76.0413 16.1836 75.7169 16.3925C75.5353 16.5063 75.4011 16.7145 75.3141 17.017C75.2776 17.1461 75.2543 17.2582 75.2443 17.3534ZM79.8203 20.4993C79.8724 20.3536 79.9951 20.2542 80.1886 20.2011C80.279 20.1693 80.3741 20.1587 80.4738 20.1691C80.5917 20.1814 80.718 20.2222 80.8527 20.2913C81.0703 20.4011 81.2856 20.4672 81.4986 20.4895C81.5303 20.4928 81.56 20.4936 81.5877 20.4919C81.8248 20.503 82.0834 20.3537 82.3636 20.0439C82.3937 19.9325 82.3873 19.8196 82.3443 19.7051C82.306 19.5911 82.2333 19.4759 82.1265 19.3593C82.0247 19.2386 81.9297 19.1393 81.8417 19.0614C81.7587 18.9794 81.6475 18.883 81.5079 18.7721C81.3689 18.6568 81.2827 18.5836 81.2493 18.5526C80.5972 17.9574 80.2791 17.4544 80.2949 17.0436C80.2971 16.9797 80.3017 16.9138 80.3089 16.8458C80.3247 16.6962 80.3573 16.5393 80.4067 16.3749C80.4733 16.1344 80.5584 15.9578 80.662 15.8449C81.144 15.3592 81.8274 15.1146 82.7122 15.111C82.7212 15.112 82.7303 15.1129 82.7394 15.1139C82.7489 15.1103 82.7602 15.1115 82.7734 15.1174C82.855 15.126 82.9965 15.1523 83.1981 15.1963C83.4627 15.2515 83.6537 15.3081 83.7713 15.3663C84.4664 15.7277 84.8144 16.1216 84.8152 16.5478C84.8138 16.5614 84.8124 16.575 84.8109 16.5886C84.8095 16.6022 84.8083 16.6135 84.8073 16.6226C84.7939 16.7495 84.743 16.8633 84.6545 16.964C84.5499 17.0859 84.4422 17.1732 84.3313 17.2257C84.2793 17.2844 84.1892 17.291 84.0611 17.2455C83.9375 17.2005 83.8303 17.1526 83.7394 17.1019C83.6531 17.0516 83.5483 16.9811 83.4249 16.8902C83.3021 16.7949 83.219 16.7358 83.1756 16.7129C82.9289 16.6184 82.7172 16.5618 82.5404 16.5433C82.1642 16.5039 81.9508 16.6374 81.9002 16.9437C81.8816 17.0334 81.9055 17.1321 81.972 17.2399C82.0436 17.3436 82.1166 17.4337 82.191 17.5102C82.2659 17.5822 82.3561 17.6604 82.4618 17.7448C82.5679 17.8246 82.6251 17.8696 82.6332 17.8796C82.6413 17.8896 82.6992 17.9484 82.807 18.0559C82.9199 18.1593 82.9887 18.2238 83.0135 18.2493C83.0383 18.2748 83.0978 18.3406 83.192 18.4467C83.2912 18.5487 83.3563 18.6266 83.3873 18.6802C83.4233 18.7298 83.4771 18.8065 83.5487 18.9102C83.6252 19.0099 83.6755 19.0976 83.6996 19.1734C83.7237 19.2493 83.7529 19.3417 83.7872 19.4507C83.822 19.5551 83.8407 19.6602 83.8433 19.7659C83.8509 19.8675 83.8488 19.9749 83.8368 20.0882C83.735 20.7924 83.3348 21.3278 82.6362 21.6946C82.4275 21.8056 82.155 21.8687 81.8189 21.8839C81.6579 21.89 81.5094 21.8859 81.3734 21.8717C81.2193 21.8555 81.0779 21.827 80.9494 21.786C80.3695 21.5924 80.0101 21.415 79.8713 21.2539C79.7771 21.1478 79.7401 20.9996 79.7601 20.8092C79.7711 20.705 79.7912 20.6017 79.8203 20.4993ZM89.0555 20.1398C89.1005 19.7138 89.3261 19.3341 89.7324 19.001C90.018 18.7697 90.3976 18.6032 90.8712 18.5016C91.0537 18.4657 91.3121 18.4492 91.6463 18.4522C91.9855 18.451 92.2792 18.4474 92.5273 18.4413C92.7799 18.4357 92.9423 18.3954 93.0143 18.3205C93.1048 18.2016 93.1597 18.0722 93.179 17.9322C93.1919 17.8098 93.1736 17.6796 93.124 17.5415C93.0217 17.2513 92.8816 17.0808 92.7037 17.0301C92.3353 17.0465 91.9123 17.1466 91.4347 17.3303C90.9812 17.5027 90.6683 17.5799 90.496 17.5619C90.487 17.561 90.4802 17.5602 90.4756 17.5598C90.2793 17.4659 90.1729 17.2806 90.1562 17.004C90.1555 16.9672 90.1568 16.933 90.1602 16.9013C90.1817 16.6973 90.2717 16.5395 90.4301 16.4278C90.6136 16.2958 90.8593 16.1818 91.1673 16.0857C91.7068 15.881 92.1608 15.7475 92.5293 15.6853C92.7159 15.6545 92.9066 15.6492 93.1015 15.6696C93.2874 15.6891 93.4731 15.7314 93.6587 15.7967C93.8984 15.9134 94.1067 16.1323 94.2837 16.4532C94.4656 16.7701 94.5646 17.1127 94.5808 17.481C94.5932 17.6243 94.5928 17.7801 94.5796 17.9482C94.5755 18.0303 94.5694 18.1098 94.5613 18.1869C94.5536 18.2594 94.5444 18.3249 94.5337 18.3833C94.5158 18.5098 94.4875 18.6695 94.4488 18.8624C94.4101 19.0554 94.3792 19.1965 94.356 19.2857C94.3333 19.3704 94.2954 19.5131 94.2421 19.7137C94.1889 19.9143 94.1558 20.0323 94.1429 20.0676C93.8242 21.134 93.5702 21.8909 93.3809 22.3385C93.3088 22.5005 93.1816 22.6636 92.9993 22.8278C92.817 22.992 92.6502 23.0753 92.4987 23.0778C92.4574 23.078 92.4093 23.0776 92.3545 23.0764C92.2547 23.066 92.1313 23.0416 91.9841 23.0033C91.7563 22.9474 91.5863 22.886 91.4742 22.8193C91.1436 22.6518 90.892 22.5178 90.7193 22.4172C90.5471 22.3121 90.3492 22.1677 90.1257 21.9839C89.9068 21.8006 89.7106 21.5968 89.5372 21.3724C89.2157 21.0318 89.0545 20.7354 89.0536 20.4832C89.0429 20.3676 89.0436 20.2531 89.0555 20.1398ZM90.5277 19.9984C90.4703 20.6293 90.9993 21.0879 92.1147 21.3742C92.4406 21.3259 92.6545 20.819 92.7563 19.8537C92.6941 19.7922 92.5066 19.7451 92.1938 19.7123C92.076 19.7 91.9395 19.6903 91.7845 19.6832C91.1697 19.6463 90.7508 19.7514 90.5277 19.9984ZM95.0473 22.5061C95.0607 22.3792 95.1135 22.0961 95.2057 21.6566C95.2214 21.5941 95.2312 21.5448 95.2351 21.5085C95.2757 21.2974 95.3387 21.0039 95.4242 20.6279C95.5142 20.2524 95.5909 19.9168 95.6542 19.621C95.7179 19.3207 95.7701 19.0214 95.8107 18.7232C95.8155 18.6779 95.8269 18.592 95.8448 18.4656C95.8632 18.3347 95.8778 18.24 95.8885 18.1815C95.8998 18.1185 95.9136 18.0306 95.9301 17.9178C95.9471 17.8005 95.9657 17.7108 95.986 17.6487C96.0067 17.5822 96.031 17.5045 96.0587 17.4158C96.0868 17.3225 96.1194 17.2526 96.1564 17.2061C96.1979 17.16 96.2399 17.1094 96.2824 17.0543C96.3254 16.9946 96.378 16.952 96.4402 16.9265C96.507 16.9014 96.5727 16.8877 96.6371 16.8852C96.6969 16.8823 96.7543 16.8815 96.8092 16.8826C96.9406 16.8964 97.0458 16.9418 97.1248 17.0188C97.233 17.1218 97.2928 17.2724 97.3039 17.4706C97.3151 17.6688 97.3097 17.8721 97.2877 18.0806L97.2131 18.7876C97.1858 19.0459 97.1779 19.2513 97.1893 19.4037C97.5041 19.1571 97.7214 18.9645 97.8415 18.8259C98.2309 18.3489 98.6654 17.9659 99.145 17.6771C99.5503 17.44 99.8981 17.3367 100.188 17.367C100.351 17.3841 100.496 17.4451 100.623 17.55C100.699 17.6038 100.771 17.7466 100.839 17.9781C100.911 18.2056 100.944 18.4314 100.939 18.6553C100.936 18.7283 100.932 18.8127 100.926 18.9083C100.887 19.2754 100.788 19.8012 100.629 20.4856C100.427 21.3534 100.313 21.921 100.284 22.1884C100.279 22.2428 100.274 22.3294 100.271 22.4482C100.272 22.5674 100.268 22.6679 100.26 22.7494C100.251 22.8265 100.234 22.8865 100.206 22.9294C100.089 23.1692 99.8509 23.3 99.4911 23.3219C99.4172 23.3279 99.3507 23.3279 99.2918 23.3217C99.038 23.2951 98.8531 23.1795 98.7373 22.9749C98.7425 22.838 98.7553 22.695 98.7756 22.5459C98.8268 22.061 98.9312 21.506 99.0888 20.881C99.2058 20.3801 99.2815 19.9664 99.3159 19.6401C99.3331 19.477 99.3394 19.331 99.3346 19.2022C99.2521 19.2027 99.1699 19.2216 99.0881 19.2589C99.0112 19.292 98.9298 19.3477 98.8436 19.4257C98.7625 19.4997 98.6964 19.5615 98.6453 19.6111C98.5943 19.6608 98.5215 19.7425 98.427 19.8563C98.337 19.9706 98.2766 20.0445 98.2455 20.0779C98.0033 20.3321 97.827 20.5267 97.7165 20.6617C97.6106 20.7973 97.4982 20.9505 97.3793 21.1213C97.265 21.2926 97.1576 21.4418 97.0572 21.5687C97.0252 21.6112 96.9147 21.7898 96.7257 22.1045C96.5367 22.4192 96.3634 22.6714 96.2059 22.8611C96.053 23.0513 95.9211 23.1498 95.8105 23.1565C95.7083 23.1687 95.6142 23.1703 95.5281 23.1613C95.3695 23.1447 95.2514 23.0911 95.1739 23.0005C95.068 22.8748 95.0258 22.7101 95.0473 22.5061ZM101.561 20.8375C101.564 20.8103 101.567 20.7853 101.569 20.7627C101.579 20.663 101.597 20.5617 101.622 20.4589C101.704 20.1101 101.829 19.814 101.997 19.5703C102.412 18.9402 102.934 18.4885 103.563 18.2153C104.209 17.953 105.02 17.8729 105.994 17.975C106.234 17.8305 106.42 17.3254 106.553 16.4595C106.69 15.5895 106.809 15.0704 106.91 14.9022C106.964 14.8254 107.081 14.7736 107.263 14.7468C107.346 14.7372 107.42 14.7357 107.483 14.7423C107.497 14.7438 107.51 14.7452 107.524 14.7466C107.592 14.7537 107.655 14.7672 107.712 14.7869C107.815 14.816 107.894 14.8678 107.95 14.9424C108.007 15.0125 108.043 15.1079 108.058 15.2286C108.073 15.3448 108.083 15.465 108.088 15.5892C108.092 15.6355 108.092 15.6881 108.085 15.747C108.08 15.7556 108.076 15.769 108.074 15.7871C108.067 15.8596 108.056 15.941 108.042 16.0311C108.01 16.2019 107.981 16.3455 107.955 16.4619C107.934 16.5743 107.902 16.7199 107.861 16.8988C107.819 17.0777 107.79 17.203 107.773 17.2746C107.723 17.5718 107.622 18.0996 107.468 18.8579C107.32 19.6122 107.213 20.1737 107.146 20.5425C107.096 20.8855 107.055 21.2134 107.022 21.5261C107.006 21.6802 106.992 21.83 106.981 21.9755C106.963 22.1935 106.941 22.4204 106.916 22.656C106.892 22.8872 106.865 23.1249 106.834 23.3691C106.773 23.8622 106.703 24.2627 106.625 24.5707C106.494 25.0793 106.199 25.3096 105.741 25.2617C105.641 25.2512 105.534 25.2285 105.418 25.1935C105.302 25.1263 105.217 24.9479 105.165 24.6584C105.118 24.3739 105.079 24.2002 105.049 24.1375C104.876 24.0828 104.639 24.0214 104.339 23.9533C104.044 23.8857 103.781 23.8147 103.551 23.7401C103.321 23.6611 103.114 23.5615 102.929 23.4414C102.613 23.2204 102.32 22.9354 102.05 22.5864C101.785 22.2378 101.621 21.8977 101.56 21.5659C101.534 21.3341 101.532 21.1094 101.555 20.8919C101.557 20.8737 101.559 20.8556 101.561 20.8375ZM103.074 20.8996C103.044 21.1806 103.106 21.4575 103.261 21.7303C103.437 22.019 103.733 22.2768 104.149 22.5037C104.443 22.6629 104.713 22.7552 104.958 22.7809C105.058 22.7913 105.154 22.7922 105.246 22.7836C105.292 22.6967 105.337 22.5571 105.38 22.3646C105.428 22.168 105.47 21.941 105.507 21.6836C105.544 21.4217 105.571 21.2504 105.588 21.1698C105.663 20.811 105.713 20.5093 105.739 20.2645C105.768 19.9881 105.767 19.784 105.735 19.6524C105.696 19.5842 105.637 19.5345 105.558 19.5033C105.518 19.49 105.48 19.4814 105.444 19.4776C105.43 19.4762 105.419 19.475 105.41 19.474C105.383 19.4712 105.358 19.4686 105.335 19.4662C105.262 19.4677 105.144 19.4737 104.983 19.4843C104.822 19.4903 104.679 19.4915 104.556 19.4877C104.03 19.4785 103.614 19.7305 103.308 20.2437C103.174 20.468 103.096 20.6866 103.074 20.8996ZM24.4304 36.2691C24.4356 36.2192 24.4477 36.1701 24.4665 36.1216C24.5895 35.7817 24.7937 35.6266 25.0793 35.6565C25.1382 35.6627 25.1987 35.6759 25.2607 35.6962C25.2869 35.7081 25.4384 35.7927 25.7151 35.9499C25.9574 36.0853 26.1874 36.1643 26.4049 36.1871C26.4367 36.1904 26.4684 36.1938 26.5001 36.1971C26.6325 36.2018 26.7986 36.1482 26.9983 36.0362C27.198 35.9242 27.3539 35.8145 27.466 35.7071C27.9185 35.1542 28.1785 34.5789 28.2462 33.9811C28.2505 33.9403 28.2525 33.8993 28.2523 33.8581C28.1277 33.8221 27.9431 33.7913 27.6984 33.7657C27.6576 33.7614 27.6145 33.7569 27.5692 33.7522C27.4649 33.7412 27.372 33.7315 27.2904 33.723C27.1318 33.7064 27.0187 33.6922 26.9512 33.6806C26.4746 33.594 26.0392 33.356 25.6449 32.9664C25.2552 32.5774 25.0579 32.0367 25.0531 31.3442C25.0524 31.2204 25.0582 31.0996 25.0707 30.9818C25.074 30.9501 25.0771 30.9206 25.08 30.8934C25.134 30.3813 25.2842 29.9136 25.5305 29.4903C25.8591 28.8511 26.3869 28.3657 27.1139 28.034C27.7399 27.7467 28.3544 27.6347 28.9572 27.6978C29.0524 27.7077 29.1493 27.7225 29.2481 27.742C29.9566 27.8895 30.3899 28.0609 30.548 28.2561C30.6301 28.3472 30.6699 28.5346 30.6674 28.8185C30.664 28.9373 30.6569 29.0488 30.6459 29.153C30.6425 29.1847 30.6389 29.2187 30.6351 29.255C30.6236 29.3638 30.6106 29.4655 30.596 29.5602C30.5497 29.8257 30.4688 30.3098 30.3534 31.0126C30.2431 31.7112 30.1537 32.254 30.0854 32.641C30.0496 32.8068 30.0038 33.0448 29.9482 33.3552C29.893 33.661 29.8371 33.9301 29.7805 34.1624C29.7289 34.3907 29.6697 34.6044 29.6029 34.8036C29.4155 35.3201 29.1618 35.8137 28.8418 36.2842C28.3793 36.9323 27.7895 37.3539 27.0723 37.5492C26.7799 37.6285 26.4908 37.6533 26.2053 37.6234C25.8291 37.584 25.4511 37.4528 25.0714 37.2297C24.8431 37.0912 24.6688 36.9195 24.5483 36.7144C24.4589 36.563 24.4196 36.4146 24.4304 36.2691ZM26.4955 31.1585C26.4702 31.3987 26.5223 31.6218 26.6518 31.8278C26.8046 32.0729 27.0676 32.2517 27.4407 32.364C27.6091 32.4183 27.759 32.4524 27.8905 32.4661C28.1624 32.4946 28.3564 32.437 28.4723 32.2934C28.6463 32.0779 28.7949 31.5161 28.9182 30.608C29.0005 29.8284 29.0314 29.362 29.0109 29.2086C28.7633 29.1232 28.5602 29.0721 28.4015 29.0555C28.3063 29.0455 28.2281 29.0488 28.1668 29.0653C27.937 29.1145 27.7012 29.2433 27.4592 29.4517C27.2178 29.6555 27.016 29.8956 26.854 30.1719C26.6919 30.4482 26.5795 30.732 26.5167 31.0232C26.5074 31.0681 26.5003 31.1132 26.4955 31.1585ZM31.0337 34.0118C31.0481 33.8759 31.0884 33.667 31.1548 33.3853C31.2155 33.0709 31.3243 32.4087 31.4813 31.3987C31.6427 30.3892 31.7682 29.6784 31.8575 29.2661C31.8732 29.2036 31.8958 29.0983 31.9252 28.9502C31.9546 28.802 31.9764 28.7035 31.9907 28.6546C32.0051 28.6057 32.0268 28.5301 32.0559 28.4278C32.0855 28.3209 32.109 28.25 32.1264 28.2152C32.1443 28.1758 32.1705 28.1236 32.2049 28.0584C32.2438 27.9938 32.2825 27.952 32.3212 27.9332C32.3603 27.9098 32.4067 27.8825 32.4604 27.8515C32.5186 27.8209 32.5802 27.8022 32.6451 27.7952C32.7099 27.7883 32.7854 27.7893 32.8716 27.7983C32.8942 27.8007 32.9171 27.8008 32.9403 27.7987C33.1397 27.8195 33.2952 27.9091 33.4068 28.0675C33.4311 28.1846 33.4436 28.305 33.4443 28.4288C33.445 28.5526 33.439 28.6528 33.4264 28.7293C33.4142 28.8014 33.3924 28.9205 33.3611 29.0868C33.3299 29.2531 33.3118 29.3589 33.307 29.4042C33.4075 29.4513 33.5263 29.4546 33.6634 29.414C33.8052 29.3739 33.9631 29.3102 34.1373 29.223C34.3164 29.1318 34.446 29.0767 34.5259 29.0575C35.0913 28.9105 35.5282 28.8532 35.8364 28.8855C35.8953 28.8916 35.9517 28.8998 36.0056 28.91C36.1623 28.9448 36.3019 29.0121 36.4242 29.112C36.5516 29.2078 36.622 29.3228 36.6353 29.4571C36.6396 29.5034 36.6393 29.5492 36.6345 29.5945C36.6145 29.7848 36.5315 29.9411 36.3857 30.0633C36.2049 30.2139 36.0191 30.3022 35.8285 30.328C35.2843 30.4039 34.8974 30.4665 34.6676 30.5158C34.3735 30.5675 34.032 30.6989 33.6431 30.9102C33.2546 31.117 33.054 31.2816 33.0411 31.4039C33.0201 31.5163 32.9816 31.7941 32.9257 32.2373C32.8697 32.6805 32.8075 33.0749 32.7389 33.4206C32.6749 33.7667 32.6109 34.0258 32.547 34.1978C32.4601 34.4132 32.3481 34.5412 32.2109 34.5818C32.1069 34.6122 31.9597 34.6174 31.7693 34.5975C31.7058 34.5908 31.6381 34.5814 31.566 34.5693C31.4537 34.5484 31.3422 34.4978 31.2315 34.4174C31.1258 34.3331 31.0592 34.2482 31.0315 34.1628C31.0258 34.1301 31.0265 34.0798 31.0337 34.0118ZM36.8856 31.8409C36.8899 31.8001 36.8942 31.7593 36.8985 31.7185C36.9919 31.0501 37.2269 30.4951 37.6035 30.0534C37.6245 30.0281 37.6614 29.9815 37.7144 29.9138C37.7724 29.8419 37.8092 29.7977 37.8247 29.781C37.8402 29.7643 37.8689 29.7306 37.9109 29.68C37.9534 29.6249 37.9824 29.589 37.9979 29.5723C38.0134 29.5556 38.0417 29.5265 38.0827 29.4849C38.1288 29.4394 38.1668 29.4044 38.1969 29.3801C38.227 29.3557 38.2668 29.3255 38.3165 29.2895C38.3661 29.2534 38.4155 29.2197 38.4646 29.1881C38.5188 29.1526 38.5754 29.115 38.6346 29.0753C39.0164 28.845 39.3685 28.7215 39.691 28.7048C39.922 28.6878 40.1417 28.6902 40.3502 28.712C40.3728 28.7144 40.3932 28.7165 40.4114 28.7184C41.0776 28.7882 41.6239 29.0401 42.0501 29.4742C42.6206 30.0609 42.8709 30.8157 42.801 31.7386C42.8067 31.8583 42.8036 31.9748 42.7917 32.0881C42.7486 32.496 42.6021 32.8862 42.352 33.2586C42.0355 33.7387 41.6164 34.1279 41.0946 34.426C40.542 34.7119 39.9734 34.8241 39.3887 34.7629C39.2709 34.7506 39.1515 34.7312 39.0305 34.7048C38.6899 34.6325 38.3478 34.4867 38.0044 34.2674C37.6609 34.0482 37.3943 33.8164 37.2047 33.572C36.9265 33.0388 36.8201 32.4618 36.8856 31.8409ZM38.372 32.2164C38.3881 32.5847 38.5438 32.8897 38.8391 33.1314C39.0287 33.2887 39.2527 33.3809 39.511 33.4079C39.647 33.4222 39.7942 33.417 39.9526 33.3923C40.1905 33.3531 40.4424 33.2237 40.7085 33.0041C40.9795 32.7804 41.1578 32.5242 41.2433 32.2353C41.2912 32.0845 41.3229 31.9366 41.3382 31.7916C41.3803 31.3928 41.2957 31.0219 41.0844 30.679C40.8452 30.2966 40.5355 30.0831 40.1552 30.0387C40.0736 30.0302 39.9888 30.0305 39.9008 30.0396C39.5224 30.0641 39.1655 30.32 38.83 30.8073C38.5703 31.1833 38.4216 31.5503 38.3838 31.9084C38.3724 32.0172 38.3684 32.1198 38.372 32.2164ZM43.6703 31.2522C43.6921 31.0895 43.7146 30.9201 43.7377 30.7438C43.8075 30.2562 43.9039 29.9501 44.0271 29.8256C44.1702 29.6848 44.371 29.6279 44.6294 29.6549C44.652 29.6573 44.6747 29.6597 44.6973 29.662C44.9815 29.7055 45.1668 29.8166 45.2533 29.9952C45.2991 30.0825 45.3067 30.2711 45.2761 30.5612C45.246 30.8467 45.203 31.1675 45.1471 31.5237C45.1081 31.7625 45.082 31.9453 45.0686 32.0722C45.0619 32.1357 45.0587 32.188 45.0589 32.2293C45.0243 33.4262 45.0715 34.1299 45.2005 34.3405C45.4283 34.3093 45.664 34.1164 45.9077 33.7615C46.1513 33.4067 46.3785 33.0342 46.5893 32.6438C46.8005 32.249 46.9671 32.0167 47.089 31.947C47.2748 31.8794 47.4357 31.8527 47.5717 31.8669C47.7439 31.885 47.8775 31.9654 47.9724 32.1082C48.0709 32.2606 48.1586 32.5584 48.2356 33.0018C48.3171 33.4456 48.3941 33.8455 48.4665 34.2013C48.5435 34.5576 48.6309 34.75 48.7287 34.7786C48.7332 34.7791 48.74 34.7798 48.7491 34.7808C48.9077 34.7974 49.1737 34.5778 49.5472 34.122C49.9361 33.6495 50.2082 33.1992 50.3634 32.7709C50.4421 32.5455 50.5631 32.116 50.7261 31.4824C50.8942 30.8447 51.0257 30.4461 51.1204 30.2865C51.2724 30.1053 51.4924 30.0184 51.7803 30.0256C51.8075 30.0285 51.8327 30.0288 51.8558 30.0267C52.1096 30.0533 52.3042 30.1859 52.4394 30.4246C52.431 30.5474 52.4226 30.6703 52.4142 30.7931C52.3071 31.8083 51.995 32.7906 51.4778 33.7399C50.9024 34.8069 50.2551 35.5341 49.536 35.9216C49.0562 36.1693 48.6509 36.2757 48.32 36.2411C48.3155 36.2406 48.311 36.2401 48.3064 36.2397C48.0707 36.215 47.8701 36.1184 47.7046 35.9498C47.6307 35.8688 47.5107 35.6156 47.3448 35.1905C47.1789 34.7653 47.0805 34.5465 47.0497 34.5341C47.0326 34.5231 46.9957 34.5468 46.9391 34.605C46.8826 34.6632 46.8101 34.7427 46.7215 34.8434C46.638 34.94 46.5495 35.0407 46.4559 35.1455C46.3669 35.2507 46.2739 35.351 46.1768 35.4462C46.0847 35.5374 46.0095 35.5982 45.9513 35.6288C45.6695 35.8238 45.3065 35.8981 44.8623 35.8515C44.4227 35.8055 44.1181 35.6087 43.9485 35.261C43.8946 35.1637 43.8487 35.0558 43.8108 34.9373C43.778 34.8147 43.7516 34.6516 43.7319 34.4479C43.7121 34.2442 43.6972 34.1029 43.6872 34.0239C43.6777 33.9405 43.6626 33.7579 43.6419 33.4762C43.6262 33.1905 43.6194 33.0385 43.6213 33.0204C43.6132 32.7492 43.6134 32.4216 43.6219 32.0376C43.6245 31.795 43.6407 31.5332 43.6703 31.2522ZM56.6944 31.9217C56.7052 31.8633 56.72 31.8098 56.7388 31.7614C56.7708 31.6319 56.8454 31.5114 56.9626 31.3999C57.0847 31.2844 57.2167 31.2066 57.3584 31.1664C57.4047 31.1621 57.6428 31.1641 58.0726 31.1725C58.5075 31.1768 58.7709 31.1563 58.8628 31.1109C58.921 31.0803 58.9794 31.004 59.0382 30.8818C59.0969 30.7597 59.1408 30.6474 59.1699 30.5451C59.2041 30.4387 59.2441 30.2985 59.2899 30.1246C59.3357 29.9507 59.3601 29.8502 59.363 29.823C59.3797 29.7514 59.4143 29.5969 59.4668 29.3596C59.5199 29.1177 59.5625 28.9526 59.5947 28.8644C59.6274 28.7716 59.6879 28.6542 59.7762 28.5122C59.8695 28.3662 59.9875 28.2686 60.1302 28.2193C60.2733 28.1656 60.4519 28.1453 60.6659 28.1586C60.6976 28.1619 60.7293 28.1652 60.7611 28.1686C61.0194 28.1956 61.1638 28.2818 61.1943 28.427C61.2067 28.4833 61.2093 28.5454 61.2022 28.6134C61.1893 28.7358 61.143 28.8707 61.0632 29.0181C61.0293 29.1658 60.9656 29.3791 60.872 29.6579C60.7665 29.9631 60.7063 30.1859 60.6915 30.3264C60.6767 30.4669 60.6647 30.7108 60.6556 31.058C60.7471 31.1455 60.879 31.1983 61.0513 31.2163C61.1283 31.2244 61.2131 31.2241 61.3057 31.2155C61.5226 31.2015 61.7466 31.2066 61.9777 31.2309C62.0593 31.2394 62.1429 31.2504 62.2286 31.264C62.5485 31.3158 62.7167 31.4365 62.7334 31.6261C62.7403 31.691 62.7402 31.7574 62.733 31.8254C62.7206 31.9433 62.6855 32.0587 62.6277 32.1718C62.5406 32.346 62.4184 32.4615 62.2612 32.5183C62.113 32.5761 61.7873 32.6016 61.2839 32.5947C60.7856 32.5838 60.4893 32.6123 60.395 32.6804C60.3258 32.7281 60.2553 32.8536 60.1835 33.0569C60.1116 33.2601 60.0518 33.4578 60.004 33.6498C59.9608 33.8423 59.9113 34.0731 59.8554 34.3422C59.8 34.6067 59.7713 34.7481 59.7694 34.7662C59.6744 35.2328 59.5467 35.7693 59.3865 36.3757C59.3727 36.4201 59.3411 36.5451 59.292 36.7507C59.2428 36.9563 59.1917 37.1366 59.1387 37.2914C59.0857 37.4462 59.0197 37.6157 58.9407 37.7999C58.8662 37.9846 58.7709 38.1281 58.6547 38.2305C58.5425 38.3379 58.4198 38.3937 58.2864 38.3981C58.2451 38.3984 58.2064 38.3966 58.1701 38.3928C58.0477 38.38 57.9207 38.3461 57.789 38.291C57.6135 38.2177 57.5058 38.1308 57.466 38.0304C57.4552 38.0018 57.4553 37.9583 57.466 37.8998C57.4741 37.8228 57.4947 37.7149 57.5276 37.5763C57.5887 37.3445 57.6601 37.1022 57.7418 36.8496C57.8284 36.5929 57.8782 36.4469 57.8911 36.4116C58.1177 35.6105 58.2472 35.0994 58.2797 34.8783C58.3117 34.7487 58.4311 34.0945 58.638 32.9157C58.6032 32.8112 58.4589 32.7457 58.2051 32.7191C58.1053 32.7087 57.9865 32.7054 57.8486 32.7093C57.6101 32.7118 57.416 32.7052 57.2664 32.6896C57.1214 32.6744 57.0231 32.6503 56.9716 32.6175C56.8387 32.5302 56.7544 32.3954 56.7187 32.2129C56.698 32.1054 56.6899 32.0083 56.6944 31.9217ZM62.8112 37.3391C62.8255 37.2032 62.8659 36.9943 62.9323 36.7126C62.9929 36.3982 63.1017 35.736 63.2587 34.726C63.4202 33.7165 63.5456 33.0057 63.6349 32.5935C63.6507 32.531 63.6732 32.4256 63.7026 32.2775C63.732 32.1294 63.7539 32.0308 63.7682 31.9819C63.7825 31.933 63.8042 31.8574 63.8334 31.7551C63.863 31.6482 63.8865 31.5773 63.9039 31.5425C63.9218 31.5031 63.9479 31.4509 63.9823 31.3858C64.0212 31.3211 64.06 31.2793 64.0986 31.2605C64.1378 31.2371 64.1842 31.2099 64.2378 31.1788C64.2961 31.1483 64.3576 31.1295 64.4225 31.1225C64.4874 31.1156 64.5629 31.1166 64.649 31.1256C64.6717 31.128 64.6946 31.1281 64.7177 31.126C64.9171 31.1468 65.0727 31.2364 65.1843 31.3948C65.2086 31.5119 65.2211 31.6323 65.2218 31.7561C65.2225 31.8799 65.2165 31.9801 65.2038 32.0566C65.1916 32.1287 65.1699 32.2478 65.1386 32.4141C65.1073 32.5804 65.0893 32.6862 65.0845 32.7315C65.1849 32.7787 65.3037 32.7819 65.4409 32.7413C65.5826 32.7012 65.7406 32.6375 65.9147 32.5504C66.0939 32.4591 66.2234 32.404 66.3034 32.3849C66.8688 32.2379 67.3056 32.1805 67.6138 32.2128C67.6727 32.2189 67.7292 32.2271 67.7831 32.2374C67.9398 32.2721 68.0793 32.3394 68.2017 32.4393C68.3291 32.5351 68.3994 32.6501 68.4127 32.7844C68.417 32.8307 68.4168 32.8765 68.412 32.9218C68.3919 33.1122 68.309 33.2684 68.1632 33.3906C67.9823 33.5412 67.7966 33.6295 67.606 33.6553C67.0618 33.7312 66.6748 33.7938 66.4451 33.8431C66.1509 33.8948 65.8094 34.0263 65.4205 34.2376C65.0321 34.4443 64.8314 34.6089 64.8185 34.7313C64.7975 34.8436 64.759 35.1214 64.7031 35.5646C64.6472 36.0078 64.5849 36.4022 64.5164 36.7479C64.4524 37.094 64.3884 37.3531 64.3244 37.5251C64.2375 37.7405 64.1255 37.8685 63.9883 37.9092C63.8843 37.9395 63.7371 37.9447 63.5467 37.9248C63.4833 37.9181 63.4155 37.9087 63.3435 37.8966C63.2311 37.8757 63.1196 37.8251 63.009 37.7447C62.9033 37.6604 62.8366 37.5755 62.809 37.4901C62.8033 37.4574 62.804 37.4071 62.8112 37.3391ZM68.6063 36.097C68.6512 35.671 68.8769 35.2914 69.2832 34.9582C69.5688 34.7269 69.9484 34.5604 70.422 34.4588C70.6045 34.4229 70.8628 34.4065 71.1971 34.4094C71.5363 34.4082 71.83 34.4046 72.0781 34.3985C72.3307 34.3929 72.4931 34.3526 72.5651 34.2777C72.6556 34.1589 72.7105 34.0294 72.7298 33.8894C72.7427 33.767 72.7244 33.6368 72.6748 33.4987C72.5725 33.2085 72.4324 33.0381 72.2544 32.9873C71.8861 33.0038 71.4631 33.1038 70.9855 33.2875C70.5319 33.46 70.2191 33.5372 70.0468 33.5191C70.0378 33.5182 70.031 33.5175 70.0264 33.517C69.8301 33.4231 69.7236 33.2379 69.707 32.9612C69.7063 32.9244 69.7076 32.8902 69.711 32.8585C69.7325 32.6545 69.8224 32.4967 69.9809 32.385C70.1644 32.253 70.4101 32.139 70.7181 32.0429C71.2575 31.8382 71.7115 31.7048 72.0801 31.6425C72.2667 31.6117 72.4574 31.6064 72.6523 31.6269C72.8382 31.6463 73.0239 31.6887 73.2094 31.7539C73.4492 31.8707 73.6575 32.0895 73.8344 32.4105C74.0164 32.7274 74.1154 33.0699 74.1316 33.4382C74.1439 33.5816 74.1435 33.7373 74.1304 33.9055C74.1263 33.9875 74.1202 34.0671 74.1121 34.1441C74.1044 34.2166 74.0952 34.2821 74.0845 34.3406C74.0666 34.467 74.0383 34.6267 73.9996 34.8197C73.9609 35.0127 73.9299 35.1538 73.9068 35.243C73.8841 35.3277 73.8461 35.4703 73.7929 35.6709C73.7397 35.8716 73.7066 35.9895 73.6937 36.0248C73.375 37.0912 73.121 37.8482 72.9317 38.2957C72.8596 38.4577 72.7324 38.6208 72.5501 38.785C72.3678 38.9492 72.2009 39.0325 72.0495 39.035C72.0082 39.0353 71.9601 39.0348 71.9052 39.0337C71.8055 39.0232 71.6821 38.9988 71.5349 38.9605C71.3071 38.9046 71.1371 38.8433 71.025 38.7765C70.6944 38.609 70.4428 38.475 70.2701 38.3744C70.0979 38.2693 69.9 38.1249 69.6765 37.9411C69.4576 37.7578 69.2614 37.554 69.088 37.3297C68.7665 36.989 68.6053 36.6926 68.6044 36.4405C68.5937 36.3248 68.5943 36.2103 68.6063 36.097ZM70.0785 35.9556C70.0211 36.5865 70.5501 37.0451 71.6655 37.3315C71.9914 37.2831 72.2053 36.7763 72.3071 35.8109C72.2449 35.7494 72.0574 35.7023 71.7446 35.6695C71.6268 35.6572 71.4903 35.6475 71.3353 35.6404C70.7205 35.6036 70.3016 35.7086 70.0785 35.9556ZM74.6003 35.185C74.6075 35.117 74.6264 35.0457 74.6572 34.971C74.7012 34.8152 74.8077 34.6958 74.9769 34.6127C75.151 34.5255 75.336 34.4876 75.5319 34.499C75.5872 34.4956 75.6303 34.5001 75.6611 34.5125C75.6964 34.5254 75.7256 34.5307 75.7487 34.5286C75.7719 34.5264 75.7878 34.5281 75.7963 34.5335C75.8049 34.539 75.8142 34.5377 75.8242 34.5296L75.8536 34.512C75.8586 34.508 75.8691 34.4953 75.8851 34.4741C75.9011 34.4529 75.9196 34.4296 75.9406 34.4043C75.9816 34.3628 76.0141 34.2722 76.038 34.1327C76.0619 33.9932 76.0762 33.8572 76.081 33.7248C76.0863 33.5879 76.104 33.4637 76.134 33.3523C76.3779 32.214 76.6722 31.3352 77.0171 30.7161C77.3061 30.1919 77.6121 29.7886 77.9352 29.5063C78.2633 29.2199 78.6663 29.049 79.1441 28.9937C79.297 28.9776 79.4415 28.9767 79.5775 28.9909C80.2301 29.0593 80.7038 29.4777 80.9985 30.2463C81.1027 30.5184 81.1579 30.7991 81.164 31.0884C81.1706 31.1991 81.1694 31.2975 81.1603 31.3836C81.1465 31.515 81.1151 31.6171 81.0662 31.6899C80.9922 31.87 80.8584 31.9866 80.6649 32.0397C80.5564 32.0696 80.4498 32.0813 80.345 32.0749C80.268 32.0669 80.1924 32.0452 80.1182 32.0099C80.0728 32.0052 80.0267 31.9866 79.9797 31.9542C79.9372 31.9223 79.9012 31.8727 79.8717 31.8054C79.8426 31.7336 79.8189 31.6762 79.8005 31.633C79.7821 31.5898 79.7571 31.5231 79.7254 31.4327C79.6987 31.3382 79.6823 31.277 79.6761 31.2488C79.6699 31.2207 79.6485 31.1405 79.6121 31.0084C79.5756 30.8763 79.5446 30.7791 79.5191 30.7169C79.4936 30.6546 79.4479 30.588 79.3821 30.517C79.3213 30.4419 79.2433 30.3993 79.1481 30.3894C78.9623 30.3699 78.7849 30.4659 78.6159 30.6773C78.4515 30.8892 78.3279 31.1054 78.245 31.3258C78.1672 31.5422 78.0801 31.8034 77.9836 32.1095C77.9669 32.181 77.9524 32.2322 77.94 32.263C77.844 32.5645 77.7544 32.979 77.6713 33.5064C77.6553 33.6147 77.6423 33.7164 77.6322 33.8116C77.5916 34.1969 77.5981 34.5045 77.6517 34.7347C77.7602 34.7919 77.9051 34.83 78.0864 34.8489C78.1318 34.8537 78.1816 34.8589 78.236 34.8646C78.2768 34.8689 78.3178 34.8709 78.3591 34.8706C78.5767 34.8934 78.7954 34.9484 79.0153 35.0356C79.1601 35.0965 79.2616 35.1988 79.3198 35.3424C79.378 35.4859 79.3974 35.6277 79.378 35.7677C79.3591 35.9032 79.305 36.0259 79.2155 36.1356C79.131 36.2413 79.0284 36.3016 78.9077 36.3165C78.8015 36.3237 78.5662 36.3174 78.2017 36.2975C77.8376 36.2732 77.5743 36.2937 77.4116 36.3591C77.3507 36.4582 77.2916 36.7796 77.2342 37.3234C77.2246 37.4141 77.2146 37.5093 77.2041 37.609C77.1955 37.6906 77.1871 37.7699 77.179 37.8469C77.1163 38.4406 77.0401 38.8588 76.9504 39.1014C76.8683 39.2715 76.7242 39.3779 76.5181 39.4204C76.4105 39.4412 76.3045 39.4462 76.2003 39.4353C76.1051 39.4253 76.0136 39.402 75.9258 39.3653C75.7372 39.286 75.6303 39.1694 75.6053 39.0156C75.576 38.8155 75.5867 38.4752 75.6374 37.9948C75.6517 37.8588 75.6698 37.7095 75.6915 37.5468C75.7133 37.3841 75.7313 37.2348 75.7457 37.0989C75.7968 36.6139 75.8089 36.2601 75.782 36.0373C75.6454 35.9863 75.5161 35.9522 75.3942 35.9348C75.2773 35.9134 75.1916 35.8999 75.1372 35.8942C75.0874 35.889 75.0263 35.8597 74.9541 35.8063C74.8818 35.7529 74.795 35.6636 74.6936 35.5384C74.6171 35.4388 74.5859 35.321 74.6003 35.185ZM81.1679 35.8727C81.1751 35.8047 81.1941 35.7334 81.2248 35.6587C81.2688 35.5029 81.3753 35.3835 81.5445 35.3004C81.7186 35.2132 81.9037 35.1753 82.0995 35.1867C82.1549 35.1833 82.1979 35.1878 82.2287 35.2002C82.264 35.213 82.2932 35.2184 82.3164 35.2162C82.3395 35.2141 82.3554 35.2157 82.3639 35.2212C82.3725 35.2267 82.3818 35.2254 82.3919 35.2173L82.4212 35.1997C82.4262 35.1957 82.4367 35.183 82.4527 35.1618C82.4687 35.1405 82.4872 35.1173 82.5082 35.092C82.5492 35.0505 82.5817 34.9599 82.6056 34.8204C82.6295 34.6808 82.6438 34.5449 82.6486 34.4125C82.6539 34.2756 82.6716 34.1514 82.7017 34.04C82.9455 32.9017 83.2398 32.0229 83.5847 31.4038C83.8737 30.8796 84.1798 30.4763 84.5028 30.194C84.8309 29.9076 85.2339 29.7367 85.7117 29.6813C85.8646 29.6653 86.0091 29.6644 86.1451 29.6786C86.7977 29.7469 87.2714 30.1654 87.5661 30.934C87.6703 31.2061 87.7255 31.4868 87.7316 31.7761C87.7383 31.8868 87.737 31.9852 87.728 32.0713C87.7141 32.2027 87.6827 32.3048 87.6338 32.3776C87.5598 32.5577 87.426 32.6743 87.2326 32.7274C87.124 32.7572 87.0174 32.769 86.9126 32.7626C86.8356 32.7545 86.76 32.7329 86.6858 32.6976C86.6405 32.6929 86.5943 32.6743 86.5473 32.6419C86.5049 32.6099 86.4688 32.5603 86.4393 32.4931C86.4102 32.4213 86.3865 32.3638 86.3681 32.3207C86.3498 32.2775 86.3247 32.2107 86.293 32.1204C86.2663 32.0259 86.2499 31.9646 86.2437 31.9365C86.2375 31.9083 86.2161 31.8282 86.1797 31.6961C86.1432 31.564 86.1122 31.4668 86.0867 31.4046C86.0612 31.3423 86.0155 31.2757 85.9497 31.2046C85.8889 31.1295 85.8109 31.087 85.7157 31.077C85.5299 31.0576 85.3525 31.1535 85.1835 31.365C85.0191 31.5769 84.8955 31.793 84.8127 32.0135C84.7348 32.2298 84.6477 32.4911 84.5513 32.7971C84.5345 32.8687 84.52 32.9199 84.5076 32.9507C84.4116 33.2522 84.322 33.6667 84.2389 34.1941C84.2229 34.3024 84.2099 34.4041 84.1998 34.4993C84.1592 34.8845 84.1657 35.1922 84.2193 35.4224C84.3278 35.4795 84.4727 35.5176 84.654 35.5366C84.6994 35.5414 84.7492 35.5466 84.8036 35.5523C84.8444 35.5565 84.8854 35.5585 84.9267 35.5583C85.1443 35.5811 85.363 35.636 85.5829 35.7232C85.7277 35.7842 85.8292 35.8865 85.8874 36.03C85.9456 36.1736 85.965 36.3154 85.9456 36.4554C85.9268 36.5909 85.8726 36.7135 85.7831 36.8233C85.6986 36.929 85.596 36.9893 85.4753 37.0041C85.3691 37.0114 85.1338 37.005 84.7693 36.9852C84.4053 36.9608 84.1419 36.9814 83.9792 37.0468C83.9183 37.1458 83.8592 37.4673 83.8018 38.0111C83.7923 38.1018 83.7822 38.1969 83.7717 38.2966C83.7631 38.3782 83.7547 38.4575 83.7466 38.5346C83.684 39.1283 83.6078 39.5465 83.518 39.7891C83.4359 39.9592 83.2918 40.0655 83.0857 40.1081C82.9781 40.1289 82.8721 40.1339 82.7679 40.1229C82.6727 40.113 82.5812 40.0896 82.4935 40.053C82.3048 39.9736 82.1979 39.8571 82.1729 39.7032C82.1436 39.5031 82.1543 39.1629 82.205 38.6825C82.2193 38.5465 82.2374 38.3972 82.2591 38.2345C82.2809 38.0718 82.2989 37.9225 82.3133 37.7865C82.3644 37.3016 82.3766 36.9477 82.3496 36.725C82.213 36.674 82.0837 36.6398 81.9618 36.6225C81.8449 36.6011 81.7592 36.5875 81.7049 36.5819C81.655 36.5766 81.5939 36.5473 81.5217 36.4939C81.4494 36.4405 81.3626 36.3513 81.2612 36.2261C81.1847 36.1264 81.1536 36.0086 81.1679 35.8727ZM87.4893 39.9368C87.4876 39.9092 87.4889 39.8749 87.4932 39.8342C87.4975 39.7934 87.5046 39.7483 87.5144 39.6989C87.5299 39.5951 87.5428 39.5163 87.5531 39.4624C87.5633 39.4085 87.5845 39.3168 87.6165 39.1872C87.6485 39.0577 87.6714 38.9707 87.6852 38.9264C87.7201 38.7696 87.937 37.8209 88.3361 36.0802C88.5703 35.1196 88.9505 34.6439 89.4765 34.6531C89.4996 34.651 89.5203 34.6509 89.5384 34.6528C89.6472 34.6641 89.768 34.7135 89.9008 34.8007C90.064 34.9048 90.1501 35.0444 90.1591 35.2195C90.1624 35.2748 90.1553 35.3428 90.1376 35.4234C90.1204 35.4995 90.0805 35.6168 90.018 35.7752C89.9559 35.9291 89.9173 36.035 89.902 36.093C89.6024 37.0651 89.4043 37.8783 89.3078 38.5326C89.2901 38.6133 89.2669 38.7896 89.2382 39.0615C89.21 39.3289 89.1755 39.5475 89.1347 39.7173C89.0984 39.8877 89.0575 40.014 89.0122 40.0963C88.8864 40.2893 88.6581 40.4121 88.3272 40.4645C88.2105 40.4843 88.1046 40.4893 88.0094 40.4793C87.8281 40.4603 87.6866 40.3905 87.5847 40.2699C87.5523 40.2298 87.5279 40.1792 87.5114 40.1179C87.4954 40.052 87.4881 39.9917 87.4893 39.9368ZM89.0879 33.0591C89.1065 32.8823 89.1829 32.7231 89.317 32.5813C89.4716 32.4188 89.6488 32.3251 89.8485 32.3002C89.9224 32.2942 89.9911 32.2945 90.0546 32.3011C90.2177 32.3182 90.3539 32.3737 90.4632 32.4676C90.6185 32.603 90.6875 32.7958 90.6702 33.0461C90.642 33.3135 90.4977 33.5091 90.2371 33.6331C90.0589 33.7152 89.8834 33.7495 89.7107 33.736C89.6291 33.7275 89.5465 33.7074 89.4627 33.6757C89.212 33.5761 89.0867 33.3958 89.0868 33.1346C89.0892 33.1119 89.0895 33.0868 89.0879 33.0591ZM90.5986 37.8293C90.6436 37.4032 90.7918 36.9537 91.0434 36.4806C91.3586 35.9683 91.7669 35.5734 92.2682 35.296C92.774 35.019 93.3271 34.8799 93.9276 34.8786C94.0514 34.8779 94.1836 34.8848 94.3241 34.8995C94.5688 34.9252 94.8386 34.974 95.1335 35.0461C95.5936 35.1585 95.8394 35.3263 95.8708 35.5495C95.8809 35.6284 95.882 35.7042 95.8744 35.7767C95.8562 35.9489 95.7941 36.1028 95.6882 36.2383C95.5348 36.433 95.3592 36.5338 95.1614 36.5406C95.0683 36.5537 94.9584 36.5537 94.8315 36.5404C94.7363 36.5304 94.6282 36.5122 94.5073 36.4858C94.3369 36.4497 94.1997 36.4261 94.0954 36.4152C94.0728 36.4128 94.0524 36.4107 94.0342 36.4088C93.998 36.405 93.9662 36.4017 93.939 36.3988C93.4292 36.4096 92.9783 36.6007 92.5863 36.972C92.2918 37.2436 92.1296 37.5222 92.0994 37.8077C92.0894 37.9029 92.0929 37.9995 92.1101 38.0975C92.2076 38.5201 92.4141 38.8648 92.7296 39.1315C92.9693 39.3353 93.266 39.4557 93.6195 39.4927C93.7328 39.5046 93.8516 39.5079 93.9759 39.5026C94.1002 39.4972 94.2531 39.4812 94.4347 39.4544C94.6167 39.423 94.761 39.4015 94.8677 39.3897C94.9788 39.3785 95.0908 39.381 95.2037 39.3974C95.321 39.4143 95.4165 39.4655 95.4899 39.5511C95.5684 39.6326 95.6314 39.7515 95.6791 39.9077C95.7027 39.9881 95.7109 40.0623 95.7038 40.1302C95.6779 40.375 95.4689 40.5753 95.0767 40.7313C94.6081 40.9159 94.0702 40.9764 93.4628 40.9128C93.4175 40.9081 93.3721 40.9034 93.3268 40.8986C91.8929 40.721 90.9944 39.9419 90.6314 38.5613C90.5873 38.3275 90.5764 38.0835 90.5986 37.8293Z" fill="black"/>
<defs>
<clipPath id="clip0_43_163">
<rect width="28.2972" height="34.4334" fill="white" transform="matrix(-0.309137 0.951018 -0.951702 -0.307023 41.518 42.4502)"/>
</clipPath>
</defs>
</svg>
