<svg width="121" height="70" viewBox="0 0 121 70" fill="none" xmlns="http://www.w3.org/2000/svg">
<g clip-path="url(#clip0_43_65)">
<path d="M40.9312 42.2609C41.3813 43.9048 40.659 45.1705 39.8416 46.2504C38.6845 47.7376 37.3551 49.1175 35.9306 50.3117C29.2238 55.6415 21.476 57.6381 13.0029 56.7651C10.8494 56.5355 8.69337 55.995 6.30414 55.5343C6.77462 57.7532 8.56574 59.4163 9.17692 61.6807C8.16294 61.6119 7.70531 60.9475 7.31106 60.4069C5.70239 58.1825 4.10893 55.9114 2.57757 53.6086C1.85118 52.4957 1.95504 51.8574 3.07289 51.2878C5.38588 50.0701 7.84599 49.6752 10.3911 50.1345C10.4849 50.1647 10.58 50.3504 10.7537 50.6132C9.58401 52.4581 7.15666 51.1582 5.65614 52.5862C8.64883 54.3786 11.9266 54.8158 15.2017 54.9422C18.6328 55.0671 22.0143 54.8661 25.2957 53.8575C28.515 52.8806 31.3704 51.2694 34.1611 49.3791C36.9836 47.5506 39.1621 45.1527 40.9312 42.2609Z" fill="black"/>
</g>
<path d="M47.4217 14.069C47.4752 13.5614 47.575 13.093 47.7211 12.6638C47.9272 12.0576 48.1822 11.5734 48.4862 11.2112C48.7907 10.8444 49.0822 10.5565 49.3609 10.3474C49.6441 10.1388 49.9264 9.98273 50.2077 9.8793C50.5426 9.74483 50.9582 9.6715 51.4544 9.6593C51.7438 9.65295 51.9995 9.66139 52.2216 9.68465C52.9242 9.75821 53.2745 9.97817 53.2725 10.3445C53.2736 10.3767 53.2728 10.4064 53.2699 10.4336C53.236 10.7554 52.9784 10.9598 52.4972 11.0469C52.372 11.0613 52.169 11.0744 51.8882 11.0863C51.6124 11.094 51.3646 11.1185 51.1449 11.1596C50.8598 11.2123 50.5463 11.3604 50.2044 11.6042C49.8625 11.8479 49.6152 12.129 49.4624 12.4475C49.2135 12.9392 49.0556 13.4153 48.9887 13.8756C48.9834 13.9255 48.9757 13.9774 48.9654 14.0313C48.9228 14.4347 48.9496 14.8109 49.0456 15.16C49.1555 15.5519 49.4057 15.8736 49.7962 16.1253C50.1265 16.3386 50.5478 16.472 51.06 16.5257C51.1506 16.5352 51.2438 16.5426 51.3394 16.5481C51.4628 16.5518 51.6493 16.5209 51.8991 16.4555C52.1494 16.3854 52.3301 16.3448 52.4413 16.3335C52.5338 16.3249 52.6254 16.3253 52.7161 16.3348C52.8339 16.3471 52.9453 16.3771 53.0503 16.4248C53.239 16.5041 53.3508 16.6166 53.3859 16.7623C53.4018 16.8282 53.4065 16.8928 53.3998 16.9562C53.3711 17.2282 53.1374 17.4672 52.6986 17.6733C52.3617 17.8259 52.0376 17.9225 51.7263 17.9632C51.42 17.9999 51.0243 17.9928 50.5393 17.942C49.9184 17.877 49.2745 17.6172 48.6075 17.1624C48.2321 16.8986 47.9272 16.5528 47.6928 16.125C47.4629 15.6977 47.3573 15.2215 47.3761 14.6965C47.3806 14.5229 47.3915 14.3545 47.4088 14.1913C47.4131 14.1506 47.4174 14.1098 47.4217 14.069ZM54.0794 18.2027C54.098 18.026 54.1324 17.8303 54.1826 17.6156C54.2681 17.2396 54.3988 16.7172 54.5748 16.0483C54.7557 15.3753 54.9059 14.777 55.0253 14.2534C55.0989 13.9037 55.1946 13.4738 55.3126 12.9638C55.4356 12.4497 55.5248 12.0604 55.5802 11.7959C55.5979 11.7152 55.6231 11.585 55.6558 11.4051C55.693 11.2258 55.7222 11.0799 55.7432 10.9675C55.7642 10.8552 55.7919 10.7229 55.8263 10.5707C55.8612 10.414 55.8997 10.2874 55.942 10.191C55.9847 10.0901 56.032 9.98968 56.0837 9.88971C56.1405 9.78568 56.206 9.70777 56.2803 9.65597C56.3549 9.59964 56.4363 9.56692 56.5243 9.55781C56.5892 9.55086 56.6534 9.5507 56.7168 9.55735C56.812 9.56731 56.9055 9.59314 56.9974 9.63483C57.1548 9.7063 57.2661 9.80273 57.3312 9.9241C57.3836 10.035 57.4067 10.1634 57.4005 10.3094C57.3947 10.4508 57.3768 10.5773 57.3467 10.6887C57.3171 10.7955 57.2786 10.9221 57.2311 11.0683C57.1836 11.2146 57.1514 11.3235 57.1347 11.395C57.118 11.4666 57.0949 11.5558 57.0652 11.6627C57.0407 11.7655 57.0165 11.8638 56.9929 11.9575C56.9697 12.0468 56.9456 12.145 56.9205 12.2524C56.8959 12.3552 56.8746 12.4492 56.8564 12.5344C56.8388 12.615 56.8241 12.6891 56.8124 12.7566C56.8011 12.8195 56.7981 12.8696 56.8034 12.9068C56.8086 12.944 56.8203 12.9636 56.8384 12.9655C57.0434 12.9778 57.3429 12.8969 57.737 12.7228C58.0398 12.5895 58.3113 12.5355 58.5515 12.5606C58.624 12.5682 58.6958 12.5826 58.7669 12.6038C59.0467 12.6881 59.2449 12.938 59.3615 13.3534C59.4785 13.7643 59.5222 14.2408 59.4925 14.783C59.4996 14.8021 59.4893 14.9431 59.4616 15.2059C59.4406 15.4053 59.4098 15.6748 59.3694 16.0142C59.2722 16.8059 59.2176 17.2584 59.2056 17.3717C59.1944 17.5217 59.1795 17.6622 59.1611 17.7932C59.0837 18.5274 58.9899 19.0033 58.8799 19.2209C58.8307 19.3395 58.7661 19.4312 58.6859 19.4961C58.5365 19.6088 58.3644 19.6549 58.1695 19.6345C58.1378 19.6312 58.106 19.6279 58.0743 19.6245C57.841 19.5772 57.6887 19.4788 57.6174 19.3293C57.5798 19.252 57.5741 19.0887 57.6004 18.8395C57.6271 18.5857 57.6801 18.1926 57.7592 17.6601C57.8382 17.1277 57.8957 16.6916 57.9316 16.3516L57.9775 15.9166C58.0038 15.6673 58.0234 15.4379 58.0363 15.2285C58.0493 15.0191 58.0531 14.8087 58.0479 14.5974C58.0432 14.3815 58.0138 14.2479 57.9596 14.1964C57.597 14.1584 57.2526 14.2736 56.9265 14.5418C56.6638 14.7297 56.4416 15.0111 56.26 15.3862C56.1382 15.7583 56.0133 16.247 55.8853 16.8522C55.7619 17.4579 55.6748 17.8703 55.6242 18.0896C55.5119 18.6323 55.4008 18.9689 55.2908 19.0994C55.1565 19.2869 54.942 19.3653 54.6474 19.3344C54.6111 19.3307 54.5751 19.3246 54.5393 19.3163C54.1638 19.2265 54.0105 18.8554 54.0794 18.2027ZM60.3603 16.0698C60.4272 15.4353 60.6373 14.9212 60.9904 14.5275C61.1916 14.2278 61.4456 13.9703 61.7525 13.755C62.0638 13.5401 62.3643 13.4066 62.6539 13.3545C63.0213 13.2601 63.3637 13.2295 63.681 13.2627C63.971 13.2931 64.2418 13.3764 64.4932 13.5127C65.0177 13.7967 65.3912 14.2963 65.6136 15.0115C65.6584 15.1079 65.7029 15.2729 65.747 15.5066C65.7961 15.7363 65.8146 15.9078 65.8027 16.0211C65.8043 16.0488 65.804 16.0739 65.8016 16.0966C65.7839 16.2643 65.7138 16.4288 65.5914 16.5901C65.4485 16.7721 65.2807 16.8852 65.0882 16.9292C64.9429 16.9598 64.6927 17.0298 64.3374 17.1392C63.9867 17.2491 63.6879 17.3232 63.441 17.3615C62.7732 17.4795 62.3127 17.5664 62.0593 17.6224C62.0912 17.8411 62.1837 18.0066 62.3369 18.1188C62.4905 18.2266 62.7355 18.337 63.0718 18.4501C63.1737 18.4837 63.2744 18.5057 63.3742 18.5161C63.4739 18.5266 63.5748 18.5257 63.6769 18.5135C63.8811 18.489 64.0432 18.451 64.1632 18.3994C64.2882 18.3438 64.427 18.3102 64.5794 18.2987C64.7319 18.2871 64.8541 18.3228 64.9462 18.4058C65.0699 18.5791 65.123 18.7496 65.1053 18.9173C65.0847 19.1122 64.9985 19.2567 64.8465 19.3507C64.4566 19.5711 63.9746 19.6879 63.4004 19.7011C63.2444 19.7031 63.0984 19.697 62.9624 19.6827C62.5907 19.6438 62.2806 19.5426 62.0321 19.3791C61.499 19.0896 61.1194 18.8001 60.8933 18.5107C60.6717 18.2217 60.4984 17.7797 60.3733 17.1847C60.3288 16.7814 60.3244 16.4097 60.3603 16.0698ZM61.8643 15.9524C61.8509 16.0793 61.8613 16.1766 61.8954 16.2443C61.909 16.2457 61.9271 16.2476 61.9498 16.25C62.0268 16.2581 62.1393 16.2561 62.2872 16.2441C62.4769 16.2273 62.6999 16.198 62.9564 16.1561C63.2179 16.1101 63.4039 16.0838 63.5146 16.0771C63.6862 16.0584 63.8592 16.0032 64.0339 15.9115C64.2085 15.8198 64.3197 15.7215 64.3675 15.6165C64.2814 15.2592 64.1395 14.9969 63.9418 14.8296C63.8028 14.7142 63.6449 14.6473 63.4681 14.6288C63.3956 14.6212 63.3176 14.6222 63.2341 14.6318C62.9604 14.6627 62.6614 14.7826 62.3369 14.9915C62.1553 15.1054 62.0211 15.3135 61.9342 15.616C61.8976 15.7451 61.8744 15.8572 61.8643 15.9524ZM66.3935 17.1964C66.4385 16.7704 66.5867 16.3208 66.8383 15.8477C67.1535 15.3354 67.5618 14.9406 68.0631 14.6632C68.5689 14.3862 69.122 14.2471 69.7225 14.2458C69.8463 14.245 69.9785 14.252 70.119 14.2667C70.3637 14.2923 70.6335 14.3412 70.9284 14.4133C71.3885 14.5256 71.6343 14.6934 71.6657 14.9167C71.6757 14.9956 71.6769 15.0713 71.6693 15.1439C71.6511 15.3161 71.589 15.47 71.4831 15.6055C71.3297 15.8002 71.1541 15.901 70.9563 15.9077C70.8632 15.9209 70.7533 15.9208 70.6264 15.9076C70.5312 15.8976 70.4231 15.8794 70.3022 15.853C70.1318 15.8168 69.9946 15.7933 69.8903 15.7824C69.8676 15.78 69.8473 15.7779 69.8291 15.776C69.7929 15.7722 69.7611 15.7689 69.7339 15.766C69.2241 15.7768 68.7732 15.9678 68.3812 16.3392C68.0867 16.6108 67.9245 16.8893 67.8943 17.1749C67.8843 17.27 67.8878 17.3666 67.905 17.4647C68.0025 17.8873 68.209 18.2319 68.5245 18.4987C68.7642 18.7025 69.0609 18.8229 69.4144 18.8599C69.5277 18.8718 69.6465 18.875 69.7708 18.8697C69.8951 18.8644 70.048 18.8483 70.2296 18.8215C70.4116 18.7902 70.5559 18.7686 70.6626 18.7569C70.7737 18.7456 70.8857 18.7482 70.9986 18.7646C71.1159 18.7815 71.2114 18.8327 71.2848 18.9183C71.3633 18.9998 71.4263 19.1187 71.474 19.2749C71.4976 19.3553 71.5058 19.4294 71.4987 19.4974C71.4728 19.7421 71.2638 19.9425 70.8716 20.0985C70.403 20.2831 69.8651 20.3436 69.2577 20.28C69.2124 20.2753 69.167 20.2705 69.1217 20.2658C67.6878 20.0881 66.7893 19.309 66.4263 17.9284C66.3822 17.6947 66.3713 17.4507 66.3935 17.1964ZM72.4004 19.6812L72.49 18.8314C72.5067 18.7598 72.5177 18.6991 72.523 18.6493C72.9203 16.0561 73.3354 13.7718 73.7684 11.7964C73.841 11.4558 73.9038 11.208 73.9568 11.0532C74.0103 10.8938 74.097 10.7448 74.217 10.6062C74.3416 10.468 74.5042 10.3819 74.7048 10.348C74.7984 10.3303 74.8836 10.3254 74.9607 10.3335C75.1375 10.352 75.2801 10.4334 75.3886 10.5776C75.381 10.6502 75.3733 10.7227 75.3657 10.7952C75.3303 11.1306 75.2734 11.4958 75.1951 11.8908C75.1022 12.3805 74.9922 12.9235 74.8651 13.5196C74.7381 14.1157 74.642 14.5707 74.5768 14.8847C74.5128 15.2308 74.4678 15.5262 74.442 15.771C74.4262 15.9205 74.4171 16.0502 74.4147 16.1599C74.5419 16.1274 74.8278 16.0015 75.2726 15.7823C75.6896 15.5648 76.003 15.396 76.2127 15.2759C76.2418 15.2606 76.3156 15.2134 76.4339 15.1341C76.5573 15.0508 76.6453 14.9982 76.698 14.9762C76.7553 14.9547 76.8332 14.9331 76.9317 14.9113C77.0348 14.89 77.132 14.9025 77.2233 14.9487C77.3192 14.9954 77.4115 15.0761 77.5002 15.1908C77.5742 15.2718 77.6202 15.3568 77.6383 15.4458C77.6614 15.5307 77.6453 15.6184 77.5899 15.7088C77.5351 15.7947 77.4789 15.8713 77.4213 15.9386C77.3688 16.0018 77.2759 16.0792 77.1425 16.1706C77.0142 16.2579 76.9184 16.3189 76.8552 16.3536C76.7965 16.3887 76.6982 16.4517 76.5602 16.5426C76.5111 16.5741 76.4697 16.5973 76.4361 16.6121C76.3979 16.6264 76.3324 16.6608 76.2396 16.7152C76.1518 16.7656 76.0788 16.8061 76.0206 16.8367C75.9623 16.8672 75.8961 16.9084 75.8219 16.9602C75.7527 17.0079 75.6971 17.0571 75.6551 17.1077C75.6131 17.1583 75.5847 17.2103 75.5699 17.2637C75.5523 17.3444 75.556 17.4181 75.581 17.4848C75.6065 17.5471 75.6578 17.6258 75.7348 17.7209C75.8168 17.812 75.8696 17.877 75.8929 17.9161C76.2125 18.362 76.5869 18.8526 77.0162 19.3878C77.0324 19.4078 77.0669 19.4504 77.1196 19.5155C77.1773 19.5765 77.2186 19.6198 77.2434 19.6453C77.2682 19.6708 77.3001 19.7154 77.3392 19.779C77.3834 19.8386 77.4146 19.89 77.433 19.9332C77.4513 19.9764 77.4685 20.0308 77.4844 20.0967C77.5009 20.158 77.5103 20.2208 77.5127 20.2852C77.5098 20.3124 77.5092 20.3398 77.5109 20.3675C77.4855 20.6077 77.3924 20.795 77.2316 20.9294C77.1059 21.0353 76.9501 21.0786 76.7643 21.0591C76.6827 21.0506 76.5932 21.0298 76.4959 20.9967C76.3611 20.9276 76.1962 20.7751 76.0011 20.5393C75.8065 20.299 75.5969 20.0273 75.3722 19.7243C75.148 19.4167 74.9805 19.2021 74.8696 19.0806L74.7966 18.9904C74.7489 18.9213 74.6949 18.8469 74.6346 18.7673C74.5788 18.6881 74.5141 18.6057 74.4407 18.5202C74.3718 18.435 74.3021 18.3567 74.2318 18.2852C74.1664 18.2096 74.1166 18.1609 74.0822 18.139C73.9851 19.059 73.8816 19.6713 73.7715 19.976C73.6889 20.2377 73.4867 20.3952 73.1649 20.4486C73.0673 20.4613 72.98 20.4636 72.903 20.4555C72.7443 20.4389 72.6222 20.3803 72.5366 20.2797C72.4195 20.1299 72.3741 19.9304 72.4004 19.6812ZM5.78804 28.4541C5.85498 27.8197 6.06503 27.3055 6.41819 26.9118C6.61937 26.6121 6.87337 26.3546 7.18021 26.1393C7.49158 25.9244 7.79207 25.7909 8.08169 25.7388C8.4491 25.6444 8.79144 25.6138 9.10871 25.647C9.39879 25.6774 9.66954 25.7607 9.92095 25.897C10.4455 26.181 10.8189 26.6807 11.0414 27.3959C11.0862 27.4922 11.1306 27.6572 11.1747 27.8909C11.2238 28.1206 11.2424 28.2921 11.2304 28.4054C11.2321 28.4331 11.2317 28.4582 11.2293 28.4809C11.2116 28.6486 11.1416 28.8131 11.0192 28.9744C10.8762 29.1565 10.7085 29.2695 10.516 29.3135C10.3707 29.3441 10.1204 29.4141 9.76517 29.5235C9.41447 29.6335 9.11565 29.7076 8.86874 29.7459C8.20098 29.8638 7.74043 29.9508 7.48706 30.0067C7.51898 30.2254 7.6115 30.3909 7.76463 30.5032C7.91824 30.6109 8.16321 30.7213 8.49956 30.8344C8.60141 30.868 8.7022 30.89 8.80191 30.9004C8.90163 30.9109 9.00254 30.91 9.10465 30.8978C9.30886 30.8733 9.47097 30.8353 9.59098 30.7837C9.71599 30.7281 9.85472 30.6945 10.0072 30.683C10.1596 30.6714 10.2819 30.7072 10.3739 30.7901C10.4977 30.9635 10.5507 31.134 10.533 31.3017C10.5125 31.4965 10.4262 31.641 10.2742 31.7351C9.88437 31.9554 9.40234 32.0722 8.82812 32.0854C8.67211 32.0874 8.52611 32.0813 8.39013 32.067C8.01847 32.0281 7.70836 31.9269 7.45982 31.7634C6.92671 31.4739 6.54711 31.1844 6.32102 30.895C6.09947 30.606 5.92613 30.164 5.80103 29.569C5.75651 29.1657 5.75218 28.7941 5.78804 28.4541ZM7.29207 28.3367C7.27868 28.4636 7.28903 28.5609 7.32313 28.6286C7.33673 28.6301 7.35486 28.632 7.37752 28.6343C7.45457 28.6424 7.56705 28.6404 7.71496 28.6284C7.90462 28.6116 8.12768 28.5823 8.38414 28.5404C8.64561 28.4945 8.8317 28.4681 8.94239 28.4614C9.11392 28.4427 9.287 28.3875 9.46165 28.2958C9.6363 28.2041 9.74749 28.1058 9.79522 28.0008C9.70918 27.6436 9.5673 27.3813 9.36958 27.2139C9.23052 27.0986 9.07261 27.0316 8.89584 27.0131C8.82332 27.0055 8.74531 27.0065 8.66182 27.0161C8.38818 27.047 8.08912 27.1669 7.76463 27.3758C7.58306 27.4897 7.44883 27.6979 7.36192 28.0003C7.32539 28.1294 7.30211 28.2415 7.29207 28.3367ZM11.7299 31.8806C11.7433 31.7537 11.7961 31.4706 11.8882 31.0312C11.904 30.9687 11.9138 30.9193 11.9176 30.883C11.9582 30.6719 12.0213 30.3784 12.1068 30.0024C12.1968 29.6269 12.2734 29.2913 12.3367 28.9955C12.4005 28.6952 12.4527 28.3959 12.4933 28.0977C12.4981 28.0524 12.5094 27.9666 12.5274 27.8401C12.5458 27.7092 12.5603 27.6145 12.5711 27.556C12.5823 27.493 12.5962 27.4051 12.6126 27.2923C12.6296 27.175 12.6482 27.0853 12.6685 27.0232C12.6893 26.9567 12.7135 26.879 12.7412 26.7903C12.7694 26.697 12.802 26.6271 12.839 26.5806C12.8805 26.5345 12.9225 26.4839 12.965 26.4288C13.0079 26.3692 13.0605 26.3265 13.1228 26.301C13.1896 26.2759 13.2552 26.2622 13.3196 26.2597C13.3795 26.2568 13.4369 26.256 13.4917 26.2571C13.6232 26.2709 13.7284 26.3163 13.8073 26.3933C13.9156 26.4963 13.9753 26.6469 13.9865 26.8451C13.9977 27.0433 13.9922 27.2466 13.9703 27.4551L13.8957 28.1621C13.8684 28.4204 13.8605 28.6258 13.8719 28.7782C14.1866 28.5317 14.404 28.339 14.524 28.2004C14.9135 27.7234 15.348 27.3404 15.8275 27.0516C16.2329 26.8145 16.5806 26.7112 16.8707 26.7415C17.0339 26.7586 17.1787 26.8196 17.3051 26.9245C17.3819 26.9783 17.4539 27.1211 17.5211 27.3526C17.5933 27.5801 17.6268 27.8059 17.6215 28.0299C17.6184 28.1028 17.6141 28.1872 17.6086 28.2828C17.5698 28.6499 17.4708 29.1757 17.3116 29.8601C17.11 30.7279 16.9951 31.2955 16.9669 31.5629C16.9612 31.6173 16.9566 31.7039 16.9533 31.8227C16.9544 31.9419 16.9507 32.0424 16.9421 32.1239C16.934 32.201 16.9162 32.261 16.8887 32.3039C16.7718 32.5437 16.5334 32.6745 16.1737 32.6964C16.0997 32.7024 16.0333 32.7024 15.9744 32.6962C15.7206 32.6696 15.5357 32.554 15.4198 32.3494C15.4251 32.2125 15.4379 32.0695 15.4582 31.9204C15.5094 31.4355 15.6137 30.8805 15.7713 30.2555C15.8883 29.7546 15.9641 29.3409 15.9985 29.0146C16.0157 28.8515 16.0219 28.7055 16.0172 28.5767C15.9346 28.5772 15.8525 28.5961 15.7706 28.6334C15.6938 28.6666 15.6123 28.7222 15.5262 28.8002C15.4451 28.8742 15.379 28.936 15.3279 28.9857C15.2768 29.0353 15.2041 29.117 15.1096 29.2308C15.0196 29.3451 14.9591 29.419 14.9281 29.4524C14.6859 29.7066 14.5095 29.9012 14.3991 30.0362C14.2931 30.1718 14.1807 30.325 14.0619 30.4958C13.9476 30.6671 13.8402 30.8163 13.7397 30.9432C13.7077 30.9857 13.5972 31.1643 13.4082 31.479C13.2192 31.7937 13.046 32.0459 12.8885 32.2356C12.7355 32.4258 12.6037 32.5243 12.493 32.531C12.3909 32.5432 12.2968 32.5448 12.2107 32.5358C12.052 32.5192 11.934 32.4656 11.8564 32.375C11.7506 32.2493 11.7084 32.0846 11.7299 31.8806ZM18.2882 27.9003C18.2989 27.8419 18.3137 27.7885 18.3326 27.74C18.3646 27.6105 18.4392 27.49 18.5563 27.3785C18.6785 27.263 18.8104 27.1852 18.9522 27.1451C18.9984 27.1407 19.2365 27.1428 19.6664 27.1511C20.1013 27.1554 20.3647 27.1349 20.4565 27.0895C20.5147 27.0589 20.5732 26.9826 20.6319 26.8604C20.6906 26.7383 20.7345 26.626 20.7637 26.5237C20.7978 26.4173 20.8378 26.2771 20.8836 26.1032C20.9295 25.9293 20.9538 25.8288 20.9567 25.8016C20.9734 25.73 21.0081 25.5756 21.0606 25.3382C21.1136 25.0963 21.1562 24.9312 21.1885 24.843C21.2212 24.7502 21.2817 24.6328 21.37 24.4908C21.4633 24.3448 21.5813 24.2472 21.7239 24.198C21.8671 24.1442 22.0456 24.124 22.2596 24.1372C22.2914 24.1405 22.3231 24.1438 22.3548 24.1472C22.6132 24.1742 22.7576 24.2604 22.7881 24.4056C22.8005 24.4619 22.8031 24.524 22.7959 24.592C22.783 24.7144 22.7367 24.8493 22.657 24.9967C22.6231 25.1444 22.5593 25.3577 22.4658 25.6365C22.3602 25.9417 22.3001 26.1645 22.2853 26.305C22.2704 26.4455 22.2584 26.6894 22.2493 27.0367C22.3409 27.1241 22.4728 27.1769 22.645 27.1949C22.7221 27.203 22.8069 27.2027 22.8995 27.1941C23.1163 27.1801 23.3403 27.1853 23.5715 27.2095C23.6531 27.218 23.7367 27.229 23.8223 27.2426C24.1422 27.2944 24.3105 27.4151 24.3271 27.6048C24.334 27.6696 24.3339 27.7361 24.3267 27.804C24.3143 27.9219 24.2792 28.0373 24.2215 28.1504C24.1343 28.3246 24.0122 28.4401 23.8549 28.497C23.7068 28.5548 23.381 28.5802 22.8777 28.5733C22.3793 28.5624 22.083 28.5909 21.9888 28.659C21.9196 28.7067 21.8491 28.8322 21.7772 29.0355C21.7054 29.2387 21.6456 29.4364 21.5978 29.6284C21.5546 29.8209 21.505 30.0517 21.4491 30.3208C21.3937 30.5853 21.3651 30.7267 21.3632 30.7448C21.2681 31.2114 21.1405 31.7479 20.9803 32.3543C20.9664 32.3987 20.9349 32.5237 20.8857 32.7293C20.8365 32.9349 20.7854 33.1152 20.7324 33.27C20.6794 33.4248 20.6134 33.5943 20.5344 33.7785C20.46 33.9632 20.3646 34.1067 20.2484 34.2091C20.1363 34.3165 20.0135 34.3724 19.8802 34.3767C19.8389 34.377 19.8001 34.3752 19.7639 34.3714C19.6415 34.3586 19.5145 34.3247 19.3828 34.2697C19.2072 34.1963 19.0995 34.1094 19.0597 34.009C19.049 33.9804 19.049 33.9369 19.0597 33.8784C19.0679 33.8014 19.0884 33.6935 19.1214 33.555C19.1825 33.3231 19.2539 33.0808 19.3355 32.8282C19.4222 32.5715 19.472 32.4255 19.4848 32.3902C19.7114 31.5891 19.841 31.078 19.8735 30.8569C19.9054 30.7273 20.0249 30.0731 20.2317 28.8943C20.1969 28.7898 20.0526 28.7243 19.7988 28.6977C19.6991 28.6873 19.5803 28.684 19.4424 28.6879C19.2038 28.6904 19.0098 28.6838 18.8602 28.6682C18.7152 28.653 18.6169 28.629 18.5654 28.5961C18.4325 28.5088 18.3482 28.374 18.3125 28.1916C18.2917 28.084 18.2836 27.9869 18.2882 27.9003ZM24.7022 30.4346C24.7692 29.8001 24.9792 29.286 25.3324 28.8922C25.5335 28.5925 25.7875 28.335 26.0944 28.1197C26.4058 27.9049 26.7062 27.7714 26.9959 27.7192C27.3633 27.6248 27.7056 27.5942 28.0229 27.6274C28.313 27.6578 28.5837 27.7411 28.8351 27.8774C29.3597 28.1615 29.7331 28.6611 29.9555 29.3763C30.0004 29.4726 30.0448 29.6377 30.0889 29.8714C30.138 30.1011 30.1566 30.2725 30.1446 30.3858C30.1463 30.4135 30.1459 30.4387 30.1435 30.4613C30.1258 30.629 30.0558 30.7935 29.9333 30.9548C29.7904 31.1369 29.6227 31.2499 29.4301 31.2939C29.2849 31.3245 29.0346 31.3946 28.6794 31.504C28.3286 31.6139 28.0298 31.688 27.7829 31.7263C27.1152 31.8442 26.6546 31.9312 26.4012 31.9872C26.4332 32.2059 26.5257 32.3713 26.6788 32.4836C26.8324 32.5913 27.0774 32.7017 27.4137 32.8149C27.5156 32.8484 27.6164 32.8704 27.7161 32.8809C27.8158 32.8913 27.9167 32.8904 28.0188 32.8782C28.223 32.8538 28.3851 32.8158 28.5052 32.7642C28.6302 32.7085 28.7689 32.675 28.9213 32.6634C29.0738 32.6519 29.196 32.6876 29.2881 32.7706C29.4119 32.9439 29.4649 33.1144 29.4472 33.2821C29.4267 33.477 29.3404 33.6214 29.1884 33.7155C28.7986 33.9359 28.3165 34.0526 27.7423 34.0658C27.5863 34.0678 27.4403 34.0617 27.3043 34.0475C26.9326 34.0086 26.6225 33.9074 26.374 33.7439C25.8409 33.4544 25.4613 33.1649 25.2352 32.8754C25.0136 32.5865 24.8403 32.1445 24.7152 31.5494C24.6707 31.1461 24.6664 30.7745 24.7022 30.4346ZM26.2062 30.3171C26.1929 30.444 26.2032 30.5413 26.2373 30.6091C26.2509 30.6105 26.269 30.6124 26.2917 30.6148C26.3688 30.6228 26.4812 30.6209 26.6291 30.6089C26.8188 30.5921 27.0419 30.5627 27.2983 30.5208C27.5598 30.4749 27.7459 30.4486 27.8566 30.4418C28.0281 30.4231 28.2012 30.3679 28.3758 30.2763C28.5505 30.1846 28.6617 30.0862 28.7094 29.9813C28.6234 29.624 28.4815 29.3617 28.2838 29.1944C28.1447 29.079 27.9868 29.0121 27.81 28.9936C27.7375 28.986 27.6595 28.987 27.576 28.9965C27.3024 29.0275 27.0033 29.1474 26.6788 29.3562C26.4972 29.4701 26.363 29.6783 26.2761 29.9808C26.2396 30.1098 26.2163 30.222 26.2062 30.3171ZM30.6462 33.9712C30.6605 33.8353 30.7009 33.6264 30.7673 33.3447C30.8279 33.0303 30.9368 32.3681 31.0937 31.3581C31.2552 30.3486 31.3806 29.6378 31.4699 29.2256C31.4857 29.1631 31.5083 29.0577 31.5376 28.9096C31.567 28.7615 31.5889 28.6629 31.6032 28.614C31.6175 28.5651 31.6392 28.4895 31.6684 28.3872C31.698 28.2803 31.7215 28.2095 31.7389 28.1746C31.7568 28.1353 31.783 28.083 31.8173 28.0179C31.8562 27.9532 31.895 27.9114 31.9336 27.8926C31.9728 27.8692 32.0192 27.842 32.0729 27.8109C32.1311 27.7804 32.1926 27.7616 32.2575 27.7547C32.3224 27.7477 32.3979 27.7487 32.484 27.7578C32.5067 27.7601 32.5296 27.7602 32.5527 27.7581C32.7522 27.779 32.9077 27.8686 33.0193 28.0269C33.0436 28.144 33.0561 28.2644 33.0568 28.3882C33.0575 28.512 33.0515 28.6122 33.0388 28.6888C33.0266 28.7608 33.0049 28.88 32.9736 29.0462C32.9423 29.2125 32.9243 29.3183 32.9195 29.3636C33.0199 29.4108 33.1387 29.414 33.2759 29.3734C33.4176 29.3333 33.5756 29.2696 33.7497 29.1825C33.9289 29.0913 34.0585 29.0361 34.1384 29.017C34.7038 28.87 35.1406 28.8126 35.4488 28.8449C35.5078 28.851 35.5642 28.8592 35.6181 28.8695C35.7748 28.9042 35.9144 28.9715 36.0367 29.0714C36.1641 29.1672 36.2344 29.2823 36.2478 29.4165C36.252 29.4628 36.2518 29.5086 36.247 29.5539C36.2269 29.7443 36.144 29.9005 35.9982 30.0227C35.8173 30.1734 35.6316 30.2616 35.441 30.2874C34.8968 30.3634 34.5099 30.4259 34.2801 30.4752C33.986 30.5269 33.6444 30.6584 33.2555 30.8697C32.8671 31.0764 32.6664 31.241 32.6535 31.3634C32.6325 31.4757 32.594 31.7535 32.5381 32.1967C32.4822 32.6399 32.42 33.0343 32.3514 33.38C32.2874 33.7261 32.2234 33.9852 32.1594 34.1572C32.0726 34.3726 31.9605 34.5006 31.8233 34.5413C31.7193 34.5716 31.5721 34.5768 31.3818 34.5569C31.3183 34.5502 31.2506 34.5409 31.1785 34.5287C31.0662 34.5078 30.9546 34.4572 30.844 34.3769C30.7383 34.2925 30.6717 34.2076 30.644 34.1222C30.6383 34.0896 30.639 34.0392 30.6462 33.9712ZM35.9837 37.0664C35.9821 36.9516 35.9863 36.8467 35.9963 36.7515C36.0059 36.6609 36.0258 36.537 36.0562 36.3798C36.0865 36.2225 36.106 36.1032 36.1146 36.0216C36.1686 35.5965 36.307 34.6533 36.5299 33.192C36.792 31.7073 37.1029 30.4111 37.4626 29.3032C37.6925 28.9057 38.2721 28.7327 39.2015 28.7842C40.0135 28.9058 40.6564 29.0671 41.1301 29.2679C41.6039 29.4687 42.0253 29.8176 42.3945 30.3145C42.6635 30.7184 42.7958 31.2019 42.7914 31.765C42.7904 31.8612 42.7849 31.9568 42.7748 32.052C42.727 32.5052 42.5708 32.9219 42.3061 33.302C42.1059 33.5926 41.8096 33.8823 41.4171 34.1711C41.0251 34.4554 40.6384 34.667 40.2572 34.8057C40.0284 34.933 39.7955 35.0117 39.5586 35.0419C39.3217 35.0721 39.0316 35.0852 38.6884 35.0814C38.3455 35.073 38.0838 35.0776 37.9033 35.0954C37.855 35.2049 37.8165 35.3315 37.7876 35.4751C37.7582 35.6232 37.7262 35.7963 37.6916 35.9943C37.6569 36.1922 37.6291 36.3474 37.6081 36.4598C37.5297 36.8548 37.3737 37.1615 37.1398 37.3799C36.9721 37.5364 36.7749 37.6028 36.5483 37.5791C36.4576 37.5696 36.3636 37.5483 36.2663 37.5152C36.1785 37.4785 36.1088 37.4231 36.057 37.349C36.0093 37.2798 35.9849 37.1856 35.9837 37.0664ZM38.0139 33.3955C38.0014 33.5134 37.9945 33.6226 37.993 33.7233C38.0338 33.7275 38.0746 33.7318 38.1154 33.7361C38.6729 33.7944 39.2159 33.7299 39.7443 33.5423C40.311 33.3405 40.7204 33.0214 40.9726 32.585C41.1182 32.3345 41.2032 32.0936 41.2276 31.8625C41.2625 31.5316 41.1687 31.2263 40.9462 30.9464C40.6147 30.5267 40.1568 30.2841 39.5726 30.2183C39.4956 30.2102 39.4158 30.2065 39.3332 30.207C39.2507 30.2075 39.1795 30.2092 39.1196 30.2121C39.0642 30.2155 39.0137 30.2171 38.9679 30.2168C38.9221 30.2166 38.8816 30.2307 38.8465 30.2591C38.816 30.288 38.791 30.3083 38.7714 30.32C38.7518 30.3317 38.7296 30.3683 38.7048 30.4299C38.6805 30.4869 38.6648 30.5265 38.6579 30.5487C38.651 30.5709 38.6355 30.6311 38.6113 30.7294C38.5877 30.8231 38.569 30.8922 38.5551 30.9366C38.255 32.0003 38.0746 32.8199 38.0139 33.3955ZM43.2511 35.2911C43.2654 35.1551 43.3058 34.9463 43.3722 34.6645C43.4329 34.3501 43.5417 33.6879 43.6986 32.678C43.8601 31.6685 43.9855 30.9576 44.0749 30.5454C44.0906 30.4829 44.1132 30.3776 44.1426 30.2294C44.1719 30.0813 44.1938 29.9828 44.2081 29.9339C44.2224 29.885 44.2442 29.8093 44.2733 29.707C44.3029 29.6001 44.3264 29.5293 44.3438 29.4944C44.3617 29.4551 44.3879 29.4028 44.4222 29.3377C44.4611 29.273 44.4999 29.2313 44.5386 29.2124C44.5777 29.189 44.6241 29.1618 44.6778 29.1308C44.736 29.1002 44.7976 29.0814 44.8624 29.0745C44.9273 29.0675 45.0028 29.0686 45.089 29.0776C45.1116 29.08 45.1345 29.0801 45.1577 29.0779C45.3571 29.0988 45.5126 29.1884 45.6242 29.3467C45.6485 29.4638 45.661 29.5842 45.6617 29.708C45.6624 29.8318 45.6564 29.932 45.6437 30.0086C45.6316 30.0806 45.6098 30.1998 45.5785 30.366C45.5472 30.5323 45.5292 30.6381 45.5244 30.6834C45.6249 30.7306 45.7437 30.7339 45.8808 30.6932C46.0226 30.6531 46.1805 30.5894 46.3547 30.5023C46.5338 30.4111 46.6634 30.3559 46.7433 30.3368C47.3087 30.1898 47.7455 30.1324 48.0538 30.1647C48.1127 30.1709 48.1691 30.1791 48.223 30.1893C48.3797 30.224 48.5193 30.2913 48.6416 30.3912C48.769 30.487 48.8393 30.6021 48.8527 30.7364C48.857 30.7826 48.8567 30.8284 48.8519 30.8737C48.8318 31.0641 48.7489 31.2204 48.6031 31.3426C48.4223 31.4932 48.2365 31.5814 48.0459 31.6073C47.5017 31.6832 47.1148 31.7458 46.885 31.795C46.5909 31.8467 46.2494 31.9782 45.8605 32.1895C45.472 32.3963 45.2714 32.5608 45.2585 32.6832C45.2374 32.7955 45.199 33.0733 45.143 33.5165C45.0871 33.9597 45.0249 34.3542 44.9563 34.6998C44.8923 35.0459 44.8283 35.305 44.7644 35.477C44.6775 35.6924 44.5654 35.8205 44.4283 35.8611C44.3242 35.8914 44.1771 35.8966 43.9867 35.8767C43.9232 35.8701 43.8555 35.8607 43.7834 35.8486C43.6711 35.8276 43.5596 35.777 43.4489 35.6967C43.3432 35.6123 43.2766 35.5274 43.2489 35.442C43.2432 35.4094 43.2439 35.359 43.2511 35.2911ZM49.273 33.0073C49.3399 32.3728 49.55 31.8587 49.9031 31.4649C50.1043 31.1652 50.3583 30.9077 50.6651 30.6924C50.9765 30.4776 51.277 30.3441 51.5666 30.292C51.934 30.1975 52.2764 30.1669 52.5936 30.2002C52.8837 30.2305 53.1545 30.3139 53.4059 30.4502C53.9304 30.7342 54.3039 31.2338 54.5263 31.949C54.5711 32.0454 54.6156 32.2104 54.6596 32.4441C54.7087 32.6738 54.7273 32.8453 54.7154 32.9586C54.717 32.9862 54.7167 33.0114 54.7143 33.0341C54.6966 33.2017 54.6265 33.3662 54.5041 33.5276C54.3612 33.7096 54.1934 33.8227 54.0009 33.8666C53.8556 33.8973 53.6053 33.9673 53.2501 34.0767C52.8994 34.1866 52.6006 34.2607 52.3537 34.299C51.6859 34.417 51.2254 34.5039 50.972 34.5599C51.0039 34.7786 51.0964 34.9441 51.2496 35.0563C51.4032 35.164 51.6481 35.2745 51.9845 35.3876C52.0863 35.4212 52.1871 35.4432 52.2868 35.4536C52.3866 35.4641 52.4875 35.4632 52.5896 35.4509C52.7938 35.4265 52.9559 35.3885 53.0759 35.3369C53.2009 35.2813 53.3397 35.2477 53.4921 35.2361C53.6445 35.2246 53.7668 35.2603 53.8589 35.3433C53.9826 35.5166 54.0357 35.6871 54.018 35.8548C53.9974 36.0497 53.9111 36.1942 53.7592 36.2882C53.3693 36.5086 52.8873 36.6254 52.3131 36.6386C52.157 36.6406 52.011 36.6344 51.8751 36.6202C51.5034 36.5813 51.1933 36.4801 50.9448 36.3166C50.4116 36.0271 50.032 35.7376 49.806 35.4482C49.5844 35.1592 49.4111 34.7172 49.286 34.1221C49.2414 33.7188 49.2371 33.3472 49.273 33.0073ZM50.777 32.8899C50.7636 33.0168 50.774 33.1141 50.8081 33.1818C50.8217 33.1832 50.8398 33.1851 50.8625 33.1875C50.9395 33.1956 51.052 33.1936 51.1999 33.1816C51.3896 33.1648 51.6126 33.1354 51.8691 33.0936C52.1305 33.0476 52.3166 33.0213 52.4273 33.0145C52.5988 32.9959 52.7719 32.9407 52.9466 32.849C53.1212 32.7573 53.2324 32.659 53.2802 32.554C53.1941 32.1967 53.0522 31.9344 52.8545 31.7671C52.7155 31.6517 52.5575 31.5848 52.3808 31.5663C52.3083 31.5587 52.2302 31.5597 52.1467 31.5693C51.8731 31.6002 51.5741 31.7201 51.2496 31.929C51.068 32.0428 50.9338 32.251 50.8469 32.5535C50.8103 32.6826 50.787 32.7947 50.777 32.8899ZM55.2148 36.4338C55.2282 36.3069 55.281 36.0237 55.3732 35.5843C55.3889 35.5218 55.3987 35.4724 55.4026 35.4362C55.4432 35.2251 55.5062 34.9315 55.5917 34.5556C55.6817 34.1801 55.7584 33.8445 55.8217 33.5487C55.8854 33.2483 55.9376 32.9491 55.9782 32.6509C55.983 32.6056 55.9944 32.5197 56.0123 32.3933C56.0307 32.2623 56.0453 32.1676 56.056 32.1092C56.0672 32.0462 56.0811 31.9583 56.0976 31.8455C56.1145 31.7281 56.1332 31.6384 56.1535 31.5764C56.1742 31.5098 56.1985 31.4322 56.2262 31.3434C56.2543 31.2502 56.2869 31.1803 56.3239 31.1337C56.3654 31.0877 56.4074 31.0371 56.4499 30.982C56.4928 30.9223 56.5455 30.8797 56.6077 30.8542C56.6745 30.8291 56.7401 30.8153 56.8045 30.8129C56.8644 30.81 56.9218 30.8091 56.9767 30.8103C57.1081 30.8241 57.2133 30.8694 57.2923 30.9464C57.4005 31.0494 57.4603 31.2 57.4714 31.3982C57.4826 31.5964 57.4772 31.7998 57.4552 32.0083L57.3806 32.7153C57.3533 32.9736 57.3454 33.179 57.3568 33.3314C57.6715 33.0848 57.8889 32.8922 58.0089 32.7536C58.3984 32.2766 58.8329 31.8936 59.3125 31.6047C59.7178 31.3677 60.0655 31.2643 60.3556 31.2947C60.5188 31.3118 60.6636 31.3728 60.79 31.4776C60.8668 31.5315 60.9388 31.6742 61.006 31.9058C61.0783 32.1333 61.1117 32.359 61.1064 32.583C61.1033 32.656 61.099 32.7403 61.0935 32.836C61.0548 33.2031 60.9558 33.7288 60.7965 34.4132C60.5949 35.2811 60.4801 35.8487 60.4519 36.1161C60.4461 36.1705 60.4416 36.2571 60.4382 36.3758C60.4394 36.4951 60.4356 36.5955 60.427 36.6771C60.4189 36.7541 60.4011 36.8141 60.3737 36.8571C60.2567 37.0969 60.0184 37.2277 59.6586 37.2496C59.5847 37.2556 59.5182 37.2555 59.4593 37.2494C59.2055 37.2228 59.0206 37.1072 58.9047 36.9026C58.91 36.7657 58.9228 36.6227 58.9431 36.4736C58.9943 35.9887 59.0987 35.4337 59.2563 34.8087C59.3733 34.3077 59.449 33.8941 59.4834 33.5678C59.5006 33.4046 59.5069 33.2587 59.5021 33.1299C59.4196 33.1304 59.3374 33.1493 59.2556 33.1865C59.1787 33.2197 59.0973 33.2753 59.0111 33.3534C58.93 33.4274 58.8639 33.4892 58.8128 33.5388C58.7618 33.5885 58.689 33.6702 58.5945 33.784C58.5045 33.8983 58.444 33.9722 58.413 34.0056C58.1708 34.2597 57.9945 34.4543 57.884 34.5894C57.778 34.7249 57.6657 34.8781 57.5468 35.049C57.4325 35.2203 57.3251 35.3694 57.2247 35.4964C57.1927 35.5388 57.0822 35.7174 56.8932 36.0321C56.7042 36.3469 56.5309 36.5991 56.3734 36.7888C56.2205 36.979 56.0886 37.0774 55.9779 37.0842C55.8758 37.0964 55.7817 37.098 55.6956 37.089C55.537 37.0724 55.4189 37.0188 55.3414 36.9282C55.2355 36.8025 55.1933 36.6377 55.2148 36.4338ZM61.9323 34.3328C61.9992 33.6983 62.2093 33.1842 62.5624 32.7905C62.7636 32.4908 63.0176 32.2333 63.3244 32.018C63.6358 31.8031 63.9363 31.6696 64.2259 31.6175C64.5933 31.5231 64.9357 31.4925 65.253 31.5257C65.543 31.556 65.8138 31.6394 66.0652 31.7757C66.5897 32.0597 66.9632 32.5593 67.1856 33.2745C67.2304 33.3709 67.2749 33.5359 67.319 33.7696C67.368 33.9993 67.3866 34.1708 67.3747 34.2841C67.3763 34.3118 67.376 34.3369 67.3736 34.3596C67.3559 34.5273 67.2858 34.6918 67.1634 34.8531C67.0205 35.0351 66.8527 35.1482 66.6602 35.1922C66.5149 35.2228 66.2647 35.2928 65.9094 35.4022C65.5587 35.5121 65.2599 35.5862 65.013 35.6245C64.3452 35.7425 63.8847 35.8294 63.6313 35.8854C63.6632 36.1041 63.7557 36.2696 63.9089 36.3818C64.0625 36.4896 64.3075 36.6 64.6438 36.7131C64.7457 36.7467 64.8464 36.7687 64.9462 36.7791C65.0459 36.7896 65.1468 36.7887 65.2489 36.7765C65.4531 36.752 65.6152 36.714 65.7352 36.6624C65.8602 36.6068 65.999 36.5732 66.1514 36.5617C66.3038 36.5501 66.4261 36.5858 66.5182 36.6688C66.6419 36.8421 66.695 37.0126 66.6773 37.1803C66.6567 37.3752 66.5705 37.5197 66.4185 37.6137C66.0286 37.8341 65.5466 37.9509 64.9724 37.9641C64.8163 37.9661 64.6704 37.9599 64.5344 37.9457C64.1627 37.9068 63.8526 37.8056 63.6041 37.6421C63.071 37.3526 62.6914 37.0631 62.4653 36.7737C62.2437 36.4847 62.0704 36.0427 61.9453 35.4477C61.9008 35.0443 61.8964 34.6727 61.9323 34.3328ZM63.4363 34.2154C63.4229 34.3423 63.4333 34.4396 63.4674 34.5073C63.481 34.5087 63.4991 34.5106 63.5218 34.513C63.5988 34.5211 63.7113 34.5191 63.8592 34.5071C64.0489 34.4903 64.2719 34.461 64.5284 34.4191C64.7899 34.3731 64.9759 34.3468 65.0866 34.3401C65.2582 34.3214 65.4312 34.2662 65.6059 34.1745C65.7805 34.0828 65.8917 33.9845 65.9395 33.8795C65.8534 33.5222 65.7115 33.2599 65.5138 33.0926C65.3748 32.9772 65.2169 32.9103 65.0401 32.8918C64.9676 32.8842 64.8896 32.8852 64.8061 32.8948C64.5324 32.9257 64.2334 33.0456 63.9089 33.2545C63.7273 33.3684 63.5931 33.5765 63.5062 33.879C63.4696 34.0081 63.4463 34.1202 63.4363 34.2154ZM68.1248 35.318C68.1561 35.0647 68.1928 34.7821 68.2349 34.4704C68.2884 34.1369 68.3415 33.8721 68.3943 33.676C68.4471 33.4799 68.5282 33.2754 68.6378 33.0623C68.7518 32.8497 68.9071 32.7033 69.1034 32.623C69.2711 32.5535 69.4774 32.5316 69.7221 32.5572C69.7357 32.5587 69.7471 32.5598 69.7561 32.5608C69.7788 32.5632 69.8014 32.5655 69.8241 32.5679C69.9808 32.6897 70.0528 32.876 70.0401 33.1267C70.0394 33.177 70.0366 33.2248 70.0318 33.2701C70.0113 33.465 69.9697 33.6417 69.9072 33.8001C69.8895 33.8807 69.8618 34.013 69.8241 34.1969C69.7587 34.4696 69.711 34.6822 69.6812 34.8349C69.6513 34.9876 69.6175 35.1994 69.5798 35.4704C69.5745 35.5202 69.5672 35.5676 69.5579 35.6124C69.5364 35.8164 69.5373 35.9814 69.5606 36.1076C69.5852 36.2659 69.6256 36.426 69.6818 36.5877C69.7431 36.7453 69.8525 36.8598 70.0099 36.9313C70.0846 36.962 70.1672 36.9821 70.2579 36.9916C70.3621 37.0025 70.4769 37.0008 70.6021 36.9864C70.8552 36.9763 71.1013 36.75 71.3405 36.3077C71.5801 35.8608 71.7422 35.4104 71.8267 34.9564C71.8513 34.8536 71.8799 34.6481 71.9124 34.3399C71.9287 34.1858 71.9453 34.0066 71.9623 33.8022C71.9733 33.6979 71.9831 33.605 71.9917 33.5234C72.0376 33.0884 72.0825 32.8365 72.1264 32.7677C72.2013 32.5786 72.3748 32.4547 72.6468 32.3961C72.7594 32.3712 72.8587 32.3633 72.9449 32.3723C72.9539 32.3733 72.963 32.3742 72.9721 32.3752C73.0763 32.3861 73.1578 32.4175 73.2164 32.4695C73.4802 32.6621 73.5579 33.2727 73.4493 34.3015C73.4393 34.3967 73.427 34.4917 73.4124 34.5864C73.3288 35.2054 73.1807 35.7833 72.9683 36.32C72.6372 37.156 72.2018 37.7427 71.6621 38.0803C71.2794 38.3198 70.7935 38.4086 70.2042 38.3469C69.9685 38.3223 69.7148 38.2728 69.4431 38.1985C68.5374 37.8791 68.0787 37.2538 68.067 36.3223C68.0661 36.0702 68.0854 35.7354 68.1248 35.318ZM73.832 38.4931C73.8463 38.3571 73.8867 38.1483 73.9531 37.8665C74.0137 37.5521 74.1225 36.89 74.2795 35.88C74.441 34.8705 74.5664 34.1596 74.6557 33.7474C74.6715 33.6849 74.6941 33.5796 74.7234 33.4314C74.7528 33.2833 74.7747 33.1848 74.789 33.1359C74.8033 33.087 74.825 33.0114 74.8542 32.909C74.8838 32.8021 74.9073 32.7313 74.9247 32.6965C74.9426 32.6571 74.9687 32.6048 75.0031 32.5397C75.042 32.475 75.0808 32.4333 75.1194 32.4144C75.1586 32.391 75.205 32.3638 75.2587 32.3328C75.3169 32.3022 75.3784 32.2835 75.4433 32.2765C75.5082 32.2695 75.5837 32.2706 75.6698 32.2796C75.6925 32.282 75.7154 32.2821 75.7385 32.2799C75.938 32.3008 76.0935 32.3904 76.2051 32.5487C76.2294 32.6658 76.2419 32.7863 76.2426 32.9101C76.2433 33.0338 76.2373 33.134 76.2246 33.2106C76.2124 33.2826 76.1907 33.4018 76.1594 33.5681C76.1281 33.7343 76.1101 33.8401 76.1053 33.8854C76.2057 33.9326 76.3245 33.9359 76.4617 33.8953C76.6034 33.8551 76.7614 33.7915 76.9355 33.7043C77.1147 33.6131 77.2443 33.5579 77.3242 33.5388C77.8896 33.3918 78.3264 33.3344 78.6346 33.3667C78.6935 33.3729 78.75 33.3811 78.8039 33.3913C78.9606 33.4261 79.1001 33.4934 79.2225 33.5932C79.3499 33.689 79.4202 33.8041 79.4335 33.9384C79.4378 33.9846 79.4376 34.0304 79.4328 34.0758C79.4127 34.2661 79.3298 34.4224 79.184 34.5446C79.0031 34.6952 78.8174 34.7834 78.6268 34.8093C78.0826 34.8852 77.6956 34.9478 77.4659 34.997C77.1718 35.0487 76.8302 35.1802 76.4413 35.3915C76.0529 35.5983 75.8522 35.7628 75.8393 35.8852C75.8183 35.9976 75.7798 36.2753 75.7239 36.7185C75.668 37.1617 75.6058 37.5562 75.5372 37.9018C75.4732 38.248 75.4092 38.507 75.3452 38.679C75.2583 38.8945 75.1463 39.0225 75.0091 39.0631C74.9051 39.0935 74.7579 39.0987 74.5676 39.0787C74.5041 39.0721 74.4363 39.0627 74.3643 39.0506C74.252 39.0296 74.1404 38.979 74.0298 38.8987C73.9241 38.8143 73.8574 38.7294 73.8298 38.6441C73.8241 38.6114 73.8248 38.5611 73.832 38.4931ZM79.6926 38.5844C79.7447 38.4386 79.8674 38.3392 80.0609 38.2861C80.1513 38.2544 80.2464 38.2437 80.3461 38.2541C80.464 38.2665 80.5903 38.3072 80.725 38.3763C80.9426 38.4861 81.1579 38.5522 81.3709 38.5745C81.4026 38.5778 81.4323 38.5787 81.46 38.577C81.6971 38.588 81.9558 38.4387 82.2359 38.129C82.266 38.0176 82.2596 37.9046 82.2166 37.7902C82.1783 37.6762 82.1057 37.5609 81.9988 37.4443C81.897 37.3237 81.802 37.2244 81.714 37.1464C81.631 37.0644 81.5198 36.968 81.3802 36.8572C81.2412 36.7418 81.155 36.6686 81.1216 36.6376C80.4695 36.0424 80.1514 35.5394 80.1672 35.1287C80.1694 35.0647 80.174 34.9988 80.1812 34.9308C80.197 34.7812 80.2296 34.6243 80.279 34.4599C80.3456 34.2195 80.4307 34.0428 80.5343 33.9299C81.0163 33.4443 81.6997 33.1996 82.5845 33.1961C82.5935 33.197 82.6026 33.198 82.6117 33.1989C82.6212 33.1953 82.6326 33.1965 82.6457 33.2025C82.7273 33.211 82.8688 33.2373 83.0704 33.2813C83.335 33.3365 83.526 33.3932 83.6436 33.4513C84.3387 33.8128 84.6867 34.2066 84.6875 34.6328C84.6861 34.6464 84.6847 34.66 84.6832 34.6736C84.6818 34.6872 84.6806 34.6986 84.6796 34.7076C84.6663 34.8345 84.6153 34.9483 84.5268 35.049C84.4222 35.171 84.3145 35.2582 84.2036 35.3107C84.1516 35.3694 84.0615 35.3761 83.9334 35.3306C83.8098 35.2855 83.7026 35.2377 83.6117 35.1869C83.5254 35.1366 83.4206 35.0661 83.2972 34.9753C83.1744 34.8799 83.0913 34.8208 83.0479 34.798C82.8012 34.7034 82.5895 34.6469 82.4128 34.6283C82.0366 34.589 81.8231 34.7224 81.7725 35.0287C81.7539 35.1184 81.7778 35.2171 81.8443 35.3249C81.9159 35.4286 81.9889 35.5187 82.0633 35.5953C82.1382 35.6673 82.2284 35.7454 82.3341 35.8298C82.4402 35.9097 82.4974 35.9546 82.5055 35.9646C82.5136 35.9746 82.5715 36.0334 82.6794 36.1409C82.7922 36.2444 82.861 36.3088 82.8858 36.3343C82.9106 36.3599 82.9701 36.4257 83.0643 36.5317C83.1635 36.6338 83.2286 36.7116 83.2596 36.7653C83.2956 36.8149 83.3494 36.8915 83.421 36.9952C83.4975 37.0949 83.5478 37.1826 83.5719 37.2585C83.596 37.3343 83.6252 37.4267 83.6595 37.5357C83.6943 37.6402 83.713 37.7452 83.7156 37.8509C83.7232 37.9525 83.7211 38.0599 83.7091 38.1732C83.6073 38.8774 83.2071 39.4129 82.5085 39.7796C82.2998 39.8906 82.0273 39.9538 81.6912 39.969C81.5302 39.975 81.3817 39.9709 81.2457 39.9567C81.0916 39.9405 80.9502 39.912 80.8217 39.871C80.2418 39.6774 79.8824 39.5001 79.7436 39.3389C79.6494 39.2328 79.6124 39.0846 79.6324 38.8942C79.6434 38.79 79.6635 38.6867 79.6926 38.5844ZM88.9954 35.3038C89.0061 35.2454 89.0209 35.192 89.0398 35.1435C89.0718 35.014 89.1464 34.8935 89.2635 34.7821C89.3857 34.6666 89.5176 34.5887 89.6594 34.5486C89.7056 34.5443 89.9437 34.5463 90.3736 34.5546C90.8085 34.5589 91.0719 34.5384 91.1637 34.493C91.2219 34.4625 91.2804 34.3861 91.3391 34.2639C91.3978 34.1418 91.4418 34.0295 91.4709 33.9272C91.505 33.8208 91.545 33.6807 91.5909 33.5067C91.6367 33.3328 91.6611 33.2323 91.6639 33.2051C91.6806 33.1335 91.7153 32.9791 91.7678 32.7417C91.8208 32.4998 91.8634 32.3347 91.8957 32.2465C91.9284 32.1537 91.9889 32.0363 92.0772 31.8943C92.1705 31.7483 92.2885 31.6507 92.4311 31.6015C92.5743 31.5477 92.7528 31.5275 92.9668 31.5407C92.9986 31.544 93.0303 31.5474 93.062 31.5507C93.3204 31.5777 93.4648 31.6639 93.4953 31.8091C93.5077 31.8654 93.5103 31.9275 93.5031 31.9955C93.4902 32.1179 93.4439 32.2528 93.3642 32.4002C93.3303 32.5479 93.2665 32.7612 93.173 33.0401C93.0674 33.3452 93.0073 33.568 92.9925 33.7085C92.9776 33.849 92.9657 34.0929 92.9565 34.4402C93.0481 34.5277 93.18 34.5804 93.3522 34.5985C93.4293 34.6065 93.5141 34.6062 93.6067 34.5976C93.8235 34.5836 94.0475 34.5888 94.2787 34.613C94.3603 34.6215 94.4439 34.6326 94.5295 34.6461C94.8494 34.6979 95.0177 34.8187 95.0343 35.0083C95.0412 35.0731 95.0411 35.1396 95.0339 35.2076C95.0215 35.3254 94.9864 35.4409 94.9287 35.5539C94.8415 35.7281 94.7194 35.8436 94.5622 35.9005C94.414 35.9583 94.0882 35.9837 93.5849 35.9769C93.0865 35.9659 92.7902 35.9945 92.696 36.0625C92.6268 36.1102 92.5563 36.2357 92.4844 36.439C92.4126 36.6422 92.3528 36.8399 92.305 37.0319C92.2618 37.2244 92.2122 37.4552 92.1563 37.7243C92.1009 37.9889 92.0723 38.1302 92.0704 38.1483C91.9753 38.6149 91.8477 39.1514 91.6875 39.7578C91.6736 39.8022 91.6421 39.9272 91.5929 40.1328C91.5437 40.3385 91.4926 40.5187 91.4396 40.6735C91.3866 40.8283 91.3206 40.9978 91.2416 41.182C91.1672 41.3667 91.0718 41.5102 90.9556 41.6126C90.8435 41.72 90.7207 41.7759 90.5874 41.7802C90.5461 41.7805 90.5073 41.7787 90.4711 41.7749C90.3487 41.7621 90.2217 41.7282 90.09 41.6732C89.9144 41.5998 89.8067 41.5129 89.7669 41.4125C89.7562 41.3839 89.7562 41.3404 89.767 41.2819C89.7751 41.2049 89.7956 41.0971 89.8286 40.9585C89.8897 40.7266 89.9611 40.4843 90.0427 40.2317C90.1294 39.975 90.1792 39.829 90.1921 39.7937C90.4186 38.9926 90.5482 38.4815 90.5807 38.2604C90.6127 38.1309 90.7321 37.4767 90.9389 36.2978C90.9041 36.1933 90.7598 36.1278 90.506 36.1012C90.4063 36.0908 90.2875 36.0875 90.1496 36.0914C89.911 36.0939 89.717 36.0874 89.5674 36.0717C89.4224 36.0565 89.3241 36.0325 89.2726 35.9996C89.1397 35.9124 89.0554 35.7775 89.0197 35.5951C88.9989 35.4875 88.9908 35.3904 88.9954 35.3038ZM95.0842 40.5946C95.1029 40.4179 95.1373 40.2221 95.1874 40.0074C95.2729 39.6315 95.4037 39.1091 95.5796 38.4402C95.7606 37.7672 95.9108 37.1689 96.0302 36.6453C96.1038 36.2956 96.1995 35.8657 96.3175 35.3557C96.4405 34.8416 96.5296 34.4523 96.585 34.1878C96.6027 34.1071 96.6279 33.9769 96.6606 33.797C96.6979 33.6176 96.727 33.4718 96.7481 33.3594C96.7691 33.2471 96.7968 33.1148 96.8312 32.9626C96.866 32.8059 96.9046 32.6793 96.9468 32.5829C96.9896 32.482 97.0368 32.3816 97.0886 32.2816C97.1454 32.1776 97.2109 32.0997 97.2851 32.0479C97.3598 31.9915 97.4412 31.9588 97.5292 31.9497C97.5941 31.9427 97.6582 31.9426 97.7217 31.9492C97.8169 31.9592 97.9104 31.985 98.0022 32.0267C98.1597 32.0982 98.2709 32.1946 98.336 32.316C98.3885 32.4269 98.4116 32.5553 98.4054 32.7013C98.3996 32.8427 98.3817 32.9691 98.3516 33.0805C98.322 33.1874 98.2834 33.314 98.2359 33.4602C98.1884 33.6065 98.1563 33.7154 98.1396 33.7869C98.1229 33.8585 98.0997 33.9477 98.0701 34.0546C98.0455 34.1574 98.0214 34.2557 97.9978 34.3494C97.9746 34.4386 97.9505 34.5369 97.9254 34.6443C97.9008 34.7471 97.8794 34.8411 97.8613 34.9262C97.8436 35.0069 97.8289 35.0809 97.8172 35.1484C97.806 35.2114 97.803 35.2615 97.8082 35.2987C97.8135 35.3359 97.8252 35.3555 97.8433 35.3574C98.0482 35.3697 98.3477 35.2888 98.7419 35.1147C99.0446 34.9814 99.3161 34.9274 99.5564 34.9525C99.6289 34.9601 99.7007 34.9745 99.7718 34.9957C100.052 35.08 100.25 35.3298 100.366 35.7453C100.483 36.1562 100.527 36.6327 100.497 37.1749C100.504 37.194 100.494 37.3349 100.466 37.5978C100.445 37.7972 100.415 38.0666 100.374 38.4061C100.277 39.1978 100.222 39.6503 100.21 39.7636C100.199 39.9136 100.184 40.0541 100.166 40.1851C100.089 40.9193 99.9948 41.3952 99.8848 41.6128C99.8356 41.7313 99.7709 41.8231 99.6908 41.888C99.5414 42.0007 99.3693 42.0468 99.1744 42.0264C99.1426 42.0231 99.1109 42.0197 99.0792 42.0164C98.8459 41.9691 98.6936 41.8707 98.6223 41.7211C98.5846 41.6439 98.5789 41.4806 98.6052 41.2313C98.632 40.9776 98.6849 40.5844 98.764 40.052C98.8431 39.5196 98.9006 39.0834 98.9364 38.7435L98.9823 38.3084C99.0086 38.0592 99.0283 37.8298 99.0412 37.6204C99.0541 37.411 99.058 37.2006 99.0528 36.9893C99.0481 36.7734 99.0186 36.6397 98.9645 36.5882C98.6019 36.5503 98.2575 36.6654 97.9313 36.9337C97.6686 37.1216 97.4465 37.403 97.2648 37.7781C97.1431 38.1502 97.0182 38.6389 96.8902 39.2441C96.7667 39.8498 96.6797 40.2622 96.6291 40.4814C96.5168 41.0241 96.4057 41.3607 96.2957 41.4913C96.1613 41.6788 95.9468 41.7572 95.6522 41.7263C95.616 41.7225 95.5799 41.7165 95.5442 41.7081C95.1687 41.6184 95.0154 41.2472 95.0842 40.5946ZM100.822 41.3328C100.82 41.3052 100.821 41.2709 100.826 41.2301C100.83 41.1894 100.837 41.1443 100.847 41.0949C100.862 40.9911 100.875 40.9123 100.885 40.8584C100.896 40.8045 100.917 40.7127 100.949 40.5832C100.981 40.4537 101.004 40.3667 101.018 40.3224C101.052 40.1656 101.269 39.2169 101.668 37.4762C101.903 36.5156 102.283 36.0399 102.809 36.0491C102.832 36.047 102.853 36.0468 102.871 36.0487C102.98 36.0601 103.1 36.1094 103.233 36.1967C103.396 36.3008 103.482 36.4404 103.491 36.6155C103.495 36.6708 103.488 36.7388 103.47 36.8194C103.453 36.8955 103.413 37.0128 103.35 37.1712C103.288 37.3251 103.25 37.431 103.234 37.489C102.935 38.4611 102.737 39.2743 102.64 39.9286C102.622 40.0093 102.599 40.1855 102.571 40.4575C102.542 40.7249 102.508 40.9435 102.467 41.1133C102.431 41.2837 102.39 41.41 102.345 41.4923C102.219 41.6853 101.99 41.808 101.66 41.8605C101.543 41.8803 101.437 41.8853 101.342 41.8753C101.161 41.8563 101.019 41.7865 100.917 41.6659C100.885 41.6258 100.86 41.5751 100.844 41.5139C100.828 41.448 100.82 41.3877 100.822 41.3328ZM102.42 34.4551C102.439 34.2783 102.515 34.1191 102.649 33.9773C102.804 33.8148 102.981 33.7211 103.181 33.6962C103.255 33.6902 103.324 33.6905 103.387 33.6971C103.55 33.7142 103.686 33.7697 103.796 33.8636C103.951 33.999 104.02 34.1918 104.003 34.4421C103.974 34.7095 103.83 34.9051 103.57 35.029C103.391 35.1112 103.216 35.1455 103.043 35.132C102.962 35.1235 102.879 35.1034 102.795 35.0717C102.544 34.9721 102.419 34.7917 102.419 34.5306C102.422 34.5079 102.422 34.4827 102.42 34.4551ZM103.84 41.5251C103.853 41.3982 103.906 41.1151 103.998 40.6757C104.014 40.6132 104.024 40.5638 104.027 40.5275C104.068 40.3164 104.131 40.0229 104.216 39.6469C104.307 39.2714 104.383 38.9358 104.446 38.64C104.51 38.3397 104.562 38.0404 104.603 37.7423C104.608 37.6969 104.619 37.6111 104.637 37.4846C104.655 37.3537 104.67 37.259 104.681 37.2005C104.692 37.1376 104.706 37.0497 104.722 36.9368C104.739 36.8195 104.758 36.7298 104.778 36.6677C104.799 36.6012 104.823 36.5235 104.851 36.4348C104.879 36.3415 104.912 36.2716 104.949 36.2251C104.99 36.179 105.032 36.1284 105.075 36.0733C105.118 36.0137 105.17 35.9711 105.233 35.9455C105.299 35.9204 105.365 35.9067 105.429 35.9042C105.489 35.9014 105.547 35.9005 105.601 35.9016C105.733 35.9154 105.838 35.9608 105.917 36.0378C106.025 36.1408 106.085 36.2914 106.096 36.4896C106.107 36.6878 106.102 36.8911 106.08 37.0996L106.005 37.8066C105.978 38.0649 105.97 38.2703 105.982 38.4227C106.296 38.1762 106.514 37.9836 106.634 37.8449C107.023 37.3679 107.458 36.985 107.937 36.6961C108.343 36.459 108.69 36.3557 108.98 36.386C109.144 36.4031 109.288 36.4641 109.415 36.569C109.492 36.6229 109.564 36.7656 109.631 36.9971C109.703 37.2246 109.737 37.4504 109.731 37.6744C109.728 37.7473 109.724 37.8317 109.718 37.9273C109.68 38.2944 109.581 38.8202 109.421 39.5046C109.22 40.3724 109.105 40.94 109.077 41.2074C109.071 41.2618 109.066 41.3484 109.063 41.4672C109.064 41.5864 109.06 41.6869 109.052 41.7684C109.044 41.8455 109.026 41.9055 108.998 41.9484C108.882 42.1882 108.643 42.319 108.283 42.3409C108.209 42.347 108.143 42.3469 108.084 42.3407C107.83 42.3141 107.645 42.1985 107.53 41.994C107.535 41.857 107.548 41.714 107.568 41.565C107.619 41.08 107.723 40.525 107.881 39.9C107.998 39.3991 108.074 38.9854 108.108 38.6591C108.125 38.496 108.132 38.35 108.127 38.2212C108.044 38.2217 107.962 38.2406 107.88 38.2779C107.804 38.3111 107.722 38.3667 107.636 38.4447C107.555 38.5187 107.489 38.5805 107.438 38.6302C107.387 38.6798 107.314 38.7615 107.219 38.8754C107.129 38.9897 107.069 39.0635 107.038 39.0969C106.796 39.3511 106.619 39.5457 106.509 39.6807C106.403 39.8163 106.29 39.9695 106.172 40.1403C106.057 40.3116 105.95 40.4608 105.849 40.5877C105.817 40.6302 105.707 40.8088 105.518 41.1235C105.329 41.4382 105.156 41.6904 104.998 41.8801C104.845 42.0703 104.713 42.1688 104.603 42.1755C104.501 42.1877 104.407 42.1893 104.32 42.1803C104.162 42.1637 104.044 42.1101 103.966 42.0195C103.86 41.8939 103.818 41.7291 103.84 41.5251ZM110.305 41.7484L110.395 40.8987C110.411 40.8271 110.422 40.7664 110.428 40.7165C110.825 38.1234 111.24 35.8391 111.673 33.8637C111.746 33.523 111.808 33.2753 111.861 33.1205C111.915 32.9611 112.002 32.8121 112.122 32.6734C112.246 32.5353 112.409 32.4492 112.609 32.4152C112.703 32.3975 112.788 32.3927 112.865 32.4008C113.042 32.4193 113.185 32.5007 113.293 32.6449C113.286 32.7174 113.278 32.7899 113.27 32.8624C113.235 33.1978 113.178 33.563 113.1 33.9581C113.007 34.4478 112.897 34.9907 112.77 35.5869C112.643 36.183 112.547 36.638 112.481 36.9519C112.417 37.2981 112.372 37.5935 112.347 37.8382C112.331 37.9878 112.322 38.1174 112.319 38.2272C112.447 38.1946 112.732 38.0688 113.177 37.8496C113.594 37.6321 113.908 37.4633 114.117 37.3432C114.146 37.3279 114.22 37.2806 114.339 37.2014C114.462 37.1181 114.55 37.0654 114.603 37.0435C114.66 37.022 114.738 37.0003 114.836 36.9786C114.939 36.9573 115.037 36.9698 115.128 37.016C115.224 37.0627 115.316 37.1434 115.405 37.258C115.479 37.3391 115.525 37.4241 115.543 37.5131C115.566 37.598 115.55 37.6856 115.495 37.7761C115.44 37.862 115.383 37.9386 115.326 38.0058C115.273 38.0691 115.181 38.1464 115.047 38.2378C114.919 38.3252 114.823 38.3862 114.76 38.4208C114.701 38.4559 114.603 38.5189 114.465 38.6099C114.416 38.6414 114.374 38.6646 114.341 38.6794C114.303 38.6937 114.237 38.7281 114.144 38.7825C114.056 38.8329 113.983 38.8734 113.925 38.9039C113.867 38.9345 113.801 38.9757 113.727 39.0275C113.657 39.0752 113.602 39.1244 113.56 39.175C113.518 39.2255 113.489 39.2776 113.475 39.331C113.457 39.4116 113.461 39.4853 113.486 39.5521C113.511 39.6143 113.562 39.693 113.639 39.7881C113.721 39.8792 113.774 39.9443 113.798 39.9834C114.117 40.4293 114.492 40.9198 114.921 41.4551C114.937 41.4751 114.972 41.5177 115.024 41.5827C115.082 41.6438 115.123 41.687 115.148 41.7125C115.173 41.7381 115.205 41.7826 115.244 41.8463C115.288 41.9059 115.319 41.9573 115.338 42.0005C115.356 42.0436 115.373 42.0981 115.389 42.1639C115.406 42.2252 115.415 42.2881 115.417 42.3525C115.414 42.3797 115.414 42.4071 115.415 42.4348C115.39 42.675 115.297 42.8623 115.136 42.9966C115.011 43.1026 114.855 43.1459 114.669 43.1264C114.587 43.1179 114.498 43.097 114.401 43.0639C114.266 42.9948 114.101 42.8424 113.906 42.6066C113.711 42.3663 113.501 42.0946 113.277 41.7916C113.053 41.484 112.885 41.2694 112.774 41.1478L112.701 41.0577C112.654 40.9886 112.6 40.9142 112.539 40.8345C112.483 40.7554 112.419 40.673 112.345 40.5874C112.276 40.5023 112.207 40.424 112.136 40.3525C112.071 40.2769 112.021 40.2281 111.987 40.2062C111.89 41.1262 111.786 41.7386 111.676 42.0432C111.594 42.3049 111.391 42.4625 111.07 42.5158C110.972 42.5285 110.885 42.5308 110.808 42.5228C110.649 42.5062 110.527 42.4475 110.441 42.3469C110.324 42.1972 110.279 41.9977 110.305 41.7484Z" fill="black"/>
<defs>
<clipPath id="clip0_43_65">
<rect width="28.2972" height="34.4334" fill="white" transform="matrix(-0.309137 0.951018 -0.951702 -0.307023 41.518 42.4502)"/>
</clipPath>
</defs>
</svg>
