<svg width="389" height="226" viewBox="0 0 389 226" fill="none" xmlns="http://www.w3.org/2000/svg">
<rect x="0.5" y="0.5" width="388" height="225" rx="15.5" fill="white"/>
<rect x="0.5" y="0.5" width="388" height="225" rx="15.5" stroke="#ECECEC"/>
<circle cx="195" cy="114" r="53" stroke="#F6F6F6" stroke-width="11"/>
<path d="M248 114C248 126.262 243.748 138.144 235.97 147.623C228.191 157.101 217.366 163.589 205.34 165.982C193.314 168.374 180.83 166.522 170.016 160.742C159.202 154.962 150.727 145.611 146.034 134.282C141.342 122.954 140.723 110.349 144.282 98.6149C147.842 86.8811 155.359 76.7444 165.555 69.9321C175.75 63.1198 187.992 60.0533 200.195 61.2552C212.398 62.4571 223.806 67.8529 232.477 76.5233" stroke="#008826" stroke-width="11"/>
<path d="M178.368 122.288C177.168 122.288 176.152 122.056 175.32 121.592C174.488 121.128 173.848 120.52 173.4 119.768C172.952 119.016 172.688 118.216 172.608 117.368H175.944C176.088 118.008 176.368 118.504 176.784 118.856C177.2 119.192 177.744 119.36 178.416 119.36C179.056 119.36 179.6 119.168 180.048 118.784C180.512 118.4 180.872 117.832 181.128 117.08C181.384 116.328 181.528 115.4 181.56 114.296C181.56 114.248 181.56 114.208 181.56 114.176C181.56 114.128 181.56 114.08 181.56 114.032C181.336 114.432 181.008 114.792 180.576 115.112C180.16 115.416 179.696 115.656 179.184 115.832C178.672 116.008 178.144 116.096 177.6 116.096C176.688 116.096 175.832 115.88 175.032 115.448C174.232 115 173.584 114.368 173.088 113.552C172.608 112.72 172.368 111.744 172.368 110.624C172.368 109.568 172.616 108.608 173.112 107.744C173.624 106.88 174.32 106.192 175.2 105.68C176.096 105.168 177.112 104.912 178.248 104.912C179.544 104.912 180.632 105.152 181.512 105.632C182.392 106.096 183.088 106.72 183.6 107.504C184.128 108.288 184.512 109.168 184.752 110.144C184.992 111.104 185.112 112.088 185.112 113.096C185.112 114.968 184.848 116.592 184.32 117.968C183.792 119.344 183.024 120.408 182.016 121.16C181.008 121.912 179.792 122.288 178.368 122.288ZM178.488 113.072C179 113.072 179.456 112.968 179.856 112.76C180.272 112.552 180.592 112.256 180.816 111.872C181.056 111.488 181.176 111.048 181.176 110.552C181.176 110.04 181.056 109.592 180.816 109.208C180.592 108.824 180.272 108.528 179.856 108.32C179.44 108.096 178.968 107.984 178.44 107.984C177.928 107.984 177.472 108.096 177.072 108.32C176.672 108.528 176.352 108.824 176.112 109.208C175.888 109.576 175.776 110.008 175.776 110.504C175.776 111.016 175.888 111.464 176.112 111.848C176.352 112.232 176.672 112.536 177.072 112.76C177.488 112.968 177.96 113.072 178.488 113.072ZM186.092 122V119.336C187.068 118.536 188.028 117.744 188.972 116.96C189.932 116.176 190.788 115.4 191.54 114.632C192.308 113.848 192.916 113.088 193.364 112.352C193.812 111.6 194.036 110.88 194.036 110.192C194.036 109.792 193.956 109.424 193.796 109.088C193.652 108.736 193.42 108.464 193.1 108.272C192.796 108.064 192.388 107.96 191.876 107.96C191.38 107.96 190.956 108.072 190.604 108.296C190.252 108.52 189.988 108.832 189.812 109.232C189.636 109.616 189.548 110.064 189.548 110.576H186.068C186.116 109.296 186.404 108.232 186.932 107.384C187.46 106.536 188.164 105.912 189.044 105.512C189.94 105.112 190.924 104.912 191.996 104.912C193.244 104.912 194.284 105.144 195.116 105.608C195.948 106.056 196.572 106.664 196.988 107.432C197.42 108.184 197.636 109.024 197.636 109.952C197.636 110.688 197.508 111.4 197.252 112.088C196.996 112.76 196.644 113.416 196.196 114.056C195.748 114.68 195.236 115.288 194.66 115.88C194.1 116.456 193.508 117.016 192.884 117.56C192.26 118.088 191.644 118.592 191.036 119.072H197.972V122H186.092ZM202.415 122L211.751 105.2H215.255L205.919 122H202.415ZM214.847 122.288C214.047 122.288 213.319 122.112 212.663 121.76C212.023 121.408 211.511 120.904 211.127 120.248C210.743 119.592 210.551 118.816 210.551 117.92C210.551 116.992 210.743 116.208 211.127 115.568C211.511 114.912 212.023 114.408 212.663 114.056C213.319 113.704 214.039 113.528 214.823 113.528C215.639 113.528 216.367 113.704 217.007 114.056C217.647 114.408 218.151 114.912 218.519 115.568C218.903 116.208 219.095 116.992 219.095 117.92C219.095 118.816 218.903 119.592 218.519 120.248C218.135 120.904 217.623 121.408 216.983 121.76C216.359 122.112 215.647 122.288 214.847 122.288ZM214.823 119.864C215.111 119.864 215.367 119.792 215.591 119.648C215.815 119.488 215.991 119.264 216.119 118.976C216.247 118.688 216.311 118.336 216.311 117.92C216.311 117.472 216.247 117.104 216.119 116.816C215.991 116.528 215.815 116.312 215.591 116.168C215.367 116.008 215.111 115.928 214.823 115.928C214.535 115.928 214.279 116.008 214.055 116.168C213.831 116.312 213.655 116.528 213.527 116.816C213.399 117.104 213.335 117.464 213.335 117.896C213.335 118.328 213.399 118.688 213.527 118.976C213.655 119.264 213.831 119.488 214.055 119.648C214.279 119.792 214.535 119.864 214.823 119.864ZM202.943 113.672C202.143 113.672 201.415 113.496 200.759 113.144C200.119 112.792 199.607 112.288 199.223 111.632C198.839 110.976 198.647 110.2 198.647 109.304C198.647 108.376 198.839 107.592 199.223 106.952C199.607 106.296 200.119 105.792 200.759 105.44C201.415 105.088 202.143 104.912 202.943 104.912C203.743 104.912 204.463 105.088 205.103 105.44C205.743 105.792 206.247 106.296 206.615 106.952C206.999 107.592 207.191 108.376 207.191 109.304C207.191 110.2 206.999 110.976 206.615 111.632C206.247 112.288 205.743 112.792 205.103 113.144C204.463 113.496 203.743 113.672 202.943 113.672ZM202.919 111.248C203.207 111.248 203.463 111.176 203.687 111.032C203.911 110.872 204.087 110.648 204.215 110.36C204.343 110.072 204.407 109.72 204.407 109.304C204.407 108.856 204.343 108.488 204.215 108.2C204.087 107.912 203.911 107.696 203.687 107.552C203.463 107.392 203.207 107.312 202.919 107.312C202.631 107.312 202.375 107.392 202.151 107.552C201.927 107.696 201.751 107.912 201.623 108.2C201.495 108.488 201.431 108.856 201.431 109.304C201.431 109.72 201.495 110.072 201.623 110.36C201.751 110.648 201.927 110.872 202.151 111.032C202.375 111.176 202.631 111.248 202.919 111.248Z" fill="black"/>
<path d="M140.284 40.168C139.575 40.168 138.945 40.042 138.394 39.79C137.843 39.538 137.414 39.1787 137.106 38.712C136.798 38.2453 136.639 37.69 136.63 37.046H138.408C138.408 37.3727 138.483 37.6667 138.632 37.928C138.791 38.18 139.005 38.3807 139.276 38.53C139.556 38.6793 139.892 38.754 140.284 38.754C140.62 38.754 140.909 38.7027 141.152 38.6C141.404 38.488 141.595 38.334 141.726 38.138C141.866 37.9327 141.936 37.6947 141.936 37.424C141.936 37.116 141.861 36.864 141.712 36.668C141.572 36.4627 141.376 36.29 141.124 36.15C140.872 36.01 140.583 35.8887 140.256 35.786C139.929 35.674 139.584 35.5573 139.22 35.436C138.445 35.1747 137.862 34.8433 137.47 34.442C137.078 34.0313 136.882 33.4853 136.882 32.804C136.882 32.2347 137.017 31.7447 137.288 31.334C137.559 30.9233 137.937 30.606 138.422 30.382C138.917 30.1487 139.486 30.032 140.13 30.032C140.783 30.032 141.353 30.1487 141.838 30.382C142.333 30.6153 142.72 30.942 143 31.362C143.289 31.7727 143.439 32.2673 143.448 32.846H141.656C141.647 32.6033 141.581 32.3793 141.46 32.174C141.339 31.9593 141.161 31.7867 140.928 31.656C140.704 31.516 140.429 31.446 140.102 31.446C139.822 31.4367 139.57 31.4833 139.346 31.586C139.131 31.6793 138.959 31.8193 138.828 32.006C138.707 32.1833 138.646 32.4073 138.646 32.678C138.646 32.9393 138.702 33.1587 138.814 33.336C138.935 33.504 139.108 33.6487 139.332 33.77C139.556 33.882 139.817 33.9893 140.116 34.092C140.415 34.1947 140.741 34.3067 141.096 34.428C141.581 34.5867 142.02 34.7827 142.412 35.016C142.813 35.24 143.131 35.534 143.364 35.898C143.597 36.262 143.714 36.7333 143.714 37.312C143.714 37.816 143.583 38.2873 143.322 38.726C143.061 39.1553 142.678 39.5053 142.174 39.776C141.67 40.0373 141.04 40.168 140.284 40.168ZM144.648 40V30.2H150.976V31.558H146.328V34.372H150.556V35.702H146.328V38.642H150.976V40H144.648ZM156.507 40.168C155.565 40.168 154.729 39.958 154.001 39.538C153.283 39.1087 152.718 38.516 152.307 37.76C151.897 36.9947 151.691 36.108 151.691 35.1C151.691 34.1013 151.897 33.224 152.307 32.468C152.718 31.7027 153.283 31.1053 154.001 30.676C154.729 30.2467 155.565 30.032 156.507 30.032C157.469 30.032 158.313 30.2467 159.041 30.676C159.769 31.1053 160.334 31.7027 160.735 32.468C161.137 33.224 161.337 34.1013 161.337 35.1C161.337 36.108 161.137 36.9947 160.735 37.76C160.334 38.516 159.769 39.1087 159.041 39.538C158.313 39.958 157.469 40.168 156.507 40.168ZM156.521 38.656C157.147 38.656 157.693 38.516 158.159 38.236C158.626 37.9467 158.985 37.536 159.237 37.004C159.489 36.472 159.615 35.8373 159.615 35.1C159.615 34.3627 159.489 33.728 159.237 33.196C158.985 32.664 158.626 32.258 158.159 31.978C157.693 31.6887 157.147 31.544 156.521 31.544C155.896 31.544 155.35 31.6887 154.883 31.978C154.417 32.258 154.053 32.664 153.791 33.196C153.539 33.728 153.413 34.3627 153.413 35.1C153.413 35.8373 153.539 36.472 153.791 37.004C154.053 37.536 154.417 37.9467 154.883 38.236C155.35 38.516 155.896 38.656 156.521 38.656ZM169.351 40.168C168.38 40.168 167.54 39.958 166.831 39.538C166.131 39.1087 165.589 38.516 165.207 37.76C164.833 36.9947 164.647 36.1127 164.647 35.114C164.647 34.106 164.833 33.224 165.207 32.468C165.589 31.7027 166.131 31.1053 166.831 30.676C167.54 30.2467 168.38 30.032 169.351 30.032C170.517 30.032 171.469 30.3213 172.207 30.9C172.944 31.4693 173.411 32.2767 173.607 33.322H171.759C171.628 32.7713 171.362 32.3373 170.961 32.02C170.559 31.7027 170.018 31.544 169.337 31.544C168.721 31.544 168.189 31.6887 167.741 31.978C167.302 32.258 166.961 32.6687 166.719 33.21C166.485 33.742 166.369 34.3767 166.369 35.114C166.369 35.8513 166.485 36.486 166.719 37.018C166.961 37.5407 167.302 37.9467 167.741 38.236C168.189 38.516 168.721 38.656 169.337 38.656C170.018 38.656 170.559 38.5113 170.961 38.222C171.362 37.9233 171.628 37.5127 171.759 36.99H173.607C173.42 37.9793 172.953 38.7587 172.207 39.328C171.469 39.888 170.517 40.168 169.351 40.168ZM177.785 40.168C177.113 40.168 176.506 40.014 175.965 39.706C175.433 39.3887 175.013 38.9547 174.705 38.404C174.406 37.844 174.257 37.2047 174.257 36.486C174.257 35.7487 174.411 35.1047 174.719 34.554C175.027 33.994 175.447 33.56 175.979 33.252C176.52 32.9347 177.127 32.776 177.799 32.776C178.471 32.776 179.073 32.9347 179.605 33.252C180.146 33.56 180.566 33.9893 180.865 34.54C181.173 35.0907 181.327 35.7347 181.327 36.472C181.327 37.2093 181.173 37.8533 180.865 38.404C180.557 38.9547 180.132 39.3887 179.591 39.706C179.059 40.014 178.457 40.168 177.785 40.168ZM177.785 38.726C178.121 38.726 178.424 38.642 178.695 38.474C178.975 38.306 179.199 38.054 179.367 37.718C179.535 37.382 179.619 36.9667 179.619 36.472C179.619 35.9773 179.535 35.5667 179.367 35.24C179.208 34.904 178.989 34.652 178.709 34.484C178.438 34.316 178.135 34.232 177.799 34.232C177.472 34.232 177.169 34.316 176.889 34.484C176.609 34.652 176.385 34.904 176.217 35.24C176.049 35.5667 175.965 35.9773 175.965 36.472C175.965 36.9667 176.049 37.382 176.217 37.718C176.385 38.054 176.604 38.306 176.875 38.474C177.155 38.642 177.458 38.726 177.785 38.726ZM182.271 40V32.944H183.755L183.881 34.12C184.096 33.7093 184.404 33.3827 184.805 33.14C185.207 32.8973 185.683 32.776 186.233 32.776C186.803 32.776 187.288 32.8973 187.689 33.14C188.091 33.3733 188.399 33.7187 188.613 34.176C188.837 34.6333 188.949 35.2027 188.949 35.884V40H187.269V36.038C187.269 35.45 187.139 34.9973 186.877 34.68C186.616 34.3627 186.229 34.204 185.715 34.204C185.379 34.204 185.076 34.2833 184.805 34.442C184.544 34.6007 184.334 34.834 184.175 35.142C184.026 35.4407 183.951 35.8047 183.951 36.234V40H182.271ZM193.086 40C192.61 40 192.195 39.9253 191.84 39.776C191.495 39.6267 191.224 39.3793 191.028 39.034C190.832 38.6887 190.734 38.222 190.734 37.634V34.358H189.53V32.944H190.734L190.93 31.082H192.414V32.944H194.332V34.358H192.414V37.634C192.414 37.9887 192.489 38.236 192.638 38.376C192.797 38.5067 193.058 38.572 193.422 38.572H194.29V40H193.086ZM198.339 40.168C197.639 40.168 197.023 40.0187 196.491 39.72C195.959 39.412 195.544 38.9827 195.245 38.432C194.947 37.8813 194.797 37.2467 194.797 36.528C194.797 35.7813 194.942 35.128 195.231 34.568C195.53 34.008 195.945 33.5693 196.477 33.252C197.019 32.9347 197.644 32.776 198.353 32.776C199.044 32.776 199.646 32.93 200.159 33.238C200.673 33.546 201.069 33.9613 201.349 34.484C201.629 34.9973 201.769 35.576 201.769 36.22C201.769 36.3133 201.769 36.416 201.769 36.528C201.769 36.64 201.76 36.7567 201.741 36.878H196.001V35.8H200.075C200.057 35.2867 199.884 34.8853 199.557 34.596C199.231 34.2973 198.825 34.148 198.339 34.148C197.994 34.148 197.677 34.2273 197.387 34.386C197.098 34.5447 196.869 34.7827 196.701 35.1C196.533 35.408 196.449 35.8 196.449 36.276V36.682C196.449 37.1207 196.529 37.4987 196.687 37.816C196.855 38.1333 197.079 38.376 197.359 38.544C197.649 38.7027 197.971 38.782 198.325 38.782C198.717 38.782 199.039 38.698 199.291 38.53C199.553 38.362 199.744 38.138 199.865 37.858H201.573C201.443 38.2967 201.228 38.6933 200.929 39.048C200.631 39.3933 200.262 39.6687 199.823 39.874C199.385 40.07 198.89 40.168 198.339 40.168ZM202.62 40V32.944H204.104L204.23 34.12C204.445 33.7093 204.753 33.3827 205.154 33.14C205.556 32.8973 206.032 32.776 206.582 32.776C207.152 32.776 207.637 32.8973 208.038 33.14C208.44 33.3733 208.748 33.7187 208.962 34.176C209.186 34.6333 209.298 35.2027 209.298 35.884V40H207.618V36.038C207.618 35.45 207.488 34.9973 207.226 34.68C206.965 34.3627 206.578 34.204 206.064 34.204C205.728 34.204 205.425 34.2833 205.154 34.442C204.893 34.6007 204.683 34.834 204.524 35.142C204.375 35.4407 204.3 35.8047 204.3 36.234V40H202.62ZM213.436 40C212.96 40 212.544 39.9253 212.19 39.776C211.844 39.6267 211.574 39.3793 211.378 39.034C211.182 38.6887 211.084 38.222 211.084 37.634V34.358H209.88V32.944H211.084L211.28 31.082H212.764V32.944H214.682V34.358H212.764V37.634C212.764 37.9887 212.838 38.236 212.988 38.376C213.146 38.5067 213.408 38.572 213.772 38.572H214.64V40H213.436ZM221.626 40.168C220.917 40.168 220.287 40.042 219.736 39.79C219.186 39.538 218.756 39.1787 218.448 38.712C218.14 38.2453 217.982 37.69 217.972 37.046H219.75C219.75 37.3727 219.825 37.6667 219.974 37.928C220.133 38.18 220.348 38.3807 220.618 38.53C220.898 38.6793 221.234 38.754 221.626 38.754C221.962 38.754 222.252 38.7027 222.494 38.6C222.746 38.488 222.938 38.334 223.068 38.138C223.208 37.9327 223.278 37.6947 223.278 37.424C223.278 37.116 223.204 36.864 223.054 36.668C222.914 36.4627 222.718 36.29 222.466 36.15C222.214 36.01 221.925 35.8887 221.598 35.786C221.272 35.674 220.926 35.5573 220.562 35.436C219.788 35.1747 219.204 34.8433 218.812 34.442C218.42 34.0313 218.224 33.4853 218.224 32.804C218.224 32.2347 218.36 31.7447 218.63 31.334C218.901 30.9233 219.279 30.606 219.764 30.382C220.259 30.1487 220.828 30.032 221.472 30.032C222.126 30.032 222.695 30.1487 223.18 30.382C223.675 30.6153 224.062 30.942 224.342 31.362C224.632 31.7727 224.781 32.2673 224.79 32.846H222.998C222.989 32.6033 222.924 32.3793 222.802 32.174C222.681 31.9593 222.504 31.7867 222.27 31.656C222.046 31.516 221.771 31.446 221.444 31.446C221.164 31.4367 220.912 31.4833 220.688 31.586C220.474 31.6793 220.301 31.8193 220.17 32.006C220.049 32.1833 219.988 32.4073 219.988 32.678C219.988 32.9393 220.044 33.1587 220.156 33.336C220.278 33.504 220.45 33.6487 220.674 33.77C220.898 33.882 221.16 33.9893 221.458 34.092C221.757 34.1947 222.084 34.3067 222.438 34.428C222.924 34.5867 223.362 34.7827 223.754 35.016C224.156 35.24 224.473 35.534 224.706 35.898C224.94 36.262 225.056 36.7333 225.056 37.312C225.056 37.816 224.926 38.2873 224.664 38.726C224.403 39.1553 224.02 39.5053 223.516 39.776C223.012 40.0373 222.382 40.168 221.626 40.168ZM229.28 40.168C228.589 40.168 227.968 40.014 227.418 39.706C226.876 39.3887 226.452 38.9547 226.144 38.404C225.845 37.844 225.696 37.2093 225.696 36.5C225.696 35.7627 225.845 35.1187 226.144 34.568C226.452 34.008 226.876 33.5693 227.418 33.252C227.968 32.9347 228.594 32.776 229.294 32.776C230.171 32.776 230.908 33.0093 231.506 33.476C232.103 33.9333 232.486 34.5633 232.654 35.366H230.89C230.796 35.0113 230.6 34.7313 230.302 34.526C230.012 34.3207 229.667 34.218 229.266 34.218C228.92 34.218 228.603 34.3067 228.314 34.484C228.034 34.6613 227.81 34.918 227.642 35.254C227.483 35.59 227.404 35.996 227.404 36.472C227.404 36.836 227.45 37.158 227.544 37.438C227.637 37.718 227.768 37.956 227.936 38.152C228.113 38.3387 228.314 38.4833 228.538 38.586C228.762 38.6887 229.004 38.74 229.266 38.74C229.536 38.74 229.779 38.698 229.994 38.614C230.218 38.5207 230.404 38.3853 230.554 38.208C230.712 38.0307 230.824 37.8207 230.89 37.578H232.654C232.486 38.362 232.103 38.992 231.506 39.468C230.908 39.9347 230.166 40.168 229.28 40.168ZM236.864 40.168C236.192 40.168 235.585 40.014 235.044 39.706C234.512 39.3887 234.092 38.9547 233.784 38.404C233.485 37.844 233.336 37.2047 233.336 36.486C233.336 35.7487 233.49 35.1047 233.798 34.554C234.106 33.994 234.526 33.56 235.058 33.252C235.599 32.9347 236.206 32.776 236.878 32.776C237.55 32.776 238.152 32.9347 238.684 33.252C239.225 33.56 239.645 33.9893 239.944 34.54C240.252 35.0907 240.406 35.7347 240.406 36.472C240.406 37.2093 240.252 37.8533 239.944 38.404C239.636 38.9547 239.211 39.3887 238.67 39.706C238.138 40.014 237.536 40.168 236.864 40.168ZM236.864 38.726C237.2 38.726 237.503 38.642 237.774 38.474C238.054 38.306 238.278 38.054 238.446 37.718C238.614 37.382 238.698 36.9667 238.698 36.472C238.698 35.9773 238.614 35.5667 238.446 35.24C238.287 34.904 238.068 34.652 237.788 34.484C237.517 34.316 237.214 34.232 236.878 34.232C236.551 34.232 236.248 34.316 235.968 34.484C235.688 34.652 235.464 34.904 235.296 35.24C235.128 35.5667 235.044 35.9773 235.044 36.472C235.044 36.9667 235.128 37.382 235.296 37.718C235.464 38.054 235.683 38.306 235.954 38.474C236.234 38.642 236.537 38.726 236.864 38.726ZM241.35 40V32.944H242.848L243.002 34.26C243.17 33.952 243.38 33.6907 243.632 33.476C243.884 33.252 244.178 33.0793 244.514 32.958C244.859 32.8367 245.237 32.776 245.648 32.776V34.554H245.06C244.78 34.554 244.514 34.5913 244.262 34.666C244.01 34.7313 243.791 34.8433 243.604 35.002C243.427 35.1513 243.287 35.3613 243.184 35.632C243.081 35.8933 243.03 36.2247 243.03 36.626V40H241.35ZM249.368 40.168C248.668 40.168 248.052 40.0187 247.52 39.72C246.988 39.412 246.573 38.9827 246.274 38.432C245.976 37.8813 245.826 37.2467 245.826 36.528C245.826 35.7813 245.971 35.128 246.26 34.568C246.559 34.008 246.974 33.5693 247.506 33.252C248.048 32.9347 248.673 32.776 249.382 32.776C250.073 32.776 250.675 32.93 251.188 33.238C251.702 33.546 252.098 33.9613 252.378 34.484C252.658 34.9973 252.798 35.576 252.798 36.22C252.798 36.3133 252.798 36.416 252.798 36.528C252.798 36.64 252.789 36.7567 252.77 36.878H247.03V35.8H251.104C251.086 35.2867 250.913 34.8853 250.586 34.596C250.26 34.2973 249.854 34.148 249.368 34.148C249.023 34.148 248.706 34.2273 248.416 34.386C248.127 34.5447 247.898 34.7827 247.73 35.1C247.562 35.408 247.478 35.8 247.478 36.276V36.682C247.478 37.1207 247.558 37.4987 247.716 37.816C247.884 38.1333 248.108 38.376 248.388 38.544C248.678 38.7027 249 38.782 249.354 38.782C249.746 38.782 250.068 38.698 250.32 38.53C250.582 38.362 250.773 38.138 250.894 37.858H252.602C252.472 38.2967 252.257 38.6933 251.958 39.048C251.66 39.3933 251.291 39.6687 250.852 39.874C250.414 40.07 249.919 40.168 249.368 40.168Z" fill="black"/>
<path d="M116.18 197V190H117.18V197H116.18ZM111.73 197V190H112.73V197H111.73ZM112.56 193.84V193.02H116.4V193.84H112.56ZM120.374 197.12C119.894 197.12 119.467 197.01 119.094 196.79C118.721 196.57 118.427 196.263 118.214 195.87C118.007 195.477 117.904 195.02 117.904 194.5C117.904 193.967 118.007 193.503 118.214 193.11C118.427 192.71 118.721 192.4 119.094 192.18C119.467 191.953 119.901 191.84 120.394 191.84C120.887 191.84 121.311 191.95 121.664 192.17C122.017 192.39 122.291 192.683 122.484 193.05C122.677 193.41 122.774 193.81 122.774 194.25C122.774 194.317 122.771 194.39 122.764 194.47C122.764 194.543 122.761 194.627 122.754 194.72H118.634V194.01H121.774C121.754 193.59 121.614 193.263 121.354 193.03C121.094 192.79 120.771 192.67 120.384 192.67C120.111 192.67 119.861 192.733 119.634 192.86C119.407 192.98 119.224 193.16 119.084 193.4C118.951 193.633 118.884 193.93 118.884 194.29V194.57C118.884 194.943 118.951 195.26 119.084 195.52C119.224 195.773 119.407 195.967 119.634 196.1C119.861 196.227 120.107 196.29 120.374 196.29C120.694 196.29 120.957 196.22 121.164 196.08C121.371 195.94 121.524 195.75 121.624 195.51H122.624C122.537 195.817 122.391 196.093 122.184 196.34C121.977 196.58 121.721 196.77 121.414 196.91C121.114 197.05 120.767 197.12 120.374 197.12ZM125.055 197.12C124.642 197.12 124.298 197.05 124.025 196.91C123.752 196.77 123.548 196.583 123.415 196.35C123.282 196.11 123.215 195.853 123.215 195.58C123.215 195.247 123.302 194.963 123.475 194.73C123.648 194.49 123.895 194.307 124.215 194.18C124.535 194.053 124.918 193.99 125.365 193.99H126.675C126.675 193.697 126.632 193.453 126.545 193.26C126.458 193.067 126.328 192.923 126.155 192.83C125.988 192.73 125.775 192.68 125.515 192.68C125.215 192.68 124.958 192.753 124.745 192.9C124.532 193.04 124.398 193.25 124.345 193.53H123.345C123.385 193.177 123.505 192.877 123.705 192.63C123.912 192.377 124.175 192.183 124.495 192.05C124.815 191.91 125.155 191.84 125.515 191.84C125.988 191.84 126.385 191.923 126.705 192.09C127.025 192.257 127.265 192.493 127.425 192.8C127.592 193.1 127.675 193.46 127.675 193.88V197H126.805L126.725 196.15C126.652 196.283 126.565 196.41 126.465 196.53C126.365 196.65 126.245 196.753 126.105 196.84C125.972 196.927 125.815 196.993 125.635 197.04C125.462 197.093 125.268 197.12 125.055 197.12ZM125.245 196.31C125.458 196.31 125.652 196.267 125.825 196.18C125.998 196.093 126.145 195.977 126.265 195.83C126.392 195.677 126.485 195.507 126.545 195.32C126.612 195.127 126.648 194.93 126.655 194.73V194.7H125.465C125.178 194.7 124.945 194.737 124.765 194.81C124.592 194.877 124.465 194.97 124.385 195.09C124.305 195.21 124.265 195.35 124.265 195.51C124.265 195.677 124.302 195.82 124.375 195.94C124.455 196.053 124.568 196.143 124.715 196.21C124.862 196.277 125.038 196.31 125.245 196.31ZM130.691 197.12C130.211 197.12 129.788 197.007 129.421 196.78C129.055 196.547 128.768 196.233 128.561 195.84C128.361 195.44 128.261 194.987 128.261 194.48C128.261 193.967 128.361 193.513 128.561 193.12C128.768 192.727 129.055 192.417 129.421 192.19C129.795 191.957 130.221 191.84 130.701 191.84C131.095 191.84 131.441 191.92 131.741 192.08C132.041 192.233 132.275 192.453 132.441 192.74V189.8H133.441V197H132.541L132.441 196.22C132.341 196.373 132.211 196.52 132.051 196.66C131.891 196.793 131.698 196.903 131.471 196.99C131.245 197.077 130.985 197.12 130.691 197.12ZM130.851 196.25C131.165 196.25 131.441 196.177 131.681 196.03C131.921 195.883 132.105 195.677 132.231 195.41C132.365 195.143 132.431 194.833 132.431 194.48C132.431 194.127 132.365 193.82 132.231 193.56C132.105 193.293 131.921 193.087 131.681 192.94C131.441 192.787 131.165 192.71 130.851 192.71C130.551 192.71 130.281 192.787 130.041 192.94C129.801 193.087 129.615 193.293 129.481 193.56C129.348 193.82 129.281 194.127 129.281 194.48C129.281 194.833 129.348 195.143 129.481 195.41C129.615 195.677 129.801 195.883 130.041 196.03C130.281 196.177 130.551 196.25 130.851 196.25ZM134.379 197V191.96H135.379V197H134.379ZM134.889 191.01C134.696 191.01 134.536 190.95 134.409 190.83C134.289 190.71 134.229 190.557 134.229 190.37C134.229 190.19 134.289 190.043 134.409 189.93C134.536 189.81 134.696 189.75 134.889 189.75C135.076 189.75 135.232 189.81 135.359 189.93C135.486 190.043 135.549 190.19 135.549 190.37C135.549 190.557 135.486 190.71 135.359 190.83C135.232 190.95 135.076 191.01 134.889 191.01ZM136.309 197V191.96H137.209L137.269 192.82C137.429 192.52 137.656 192.283 137.949 192.11C138.242 191.93 138.579 191.84 138.959 191.84C139.359 191.84 139.702 191.92 139.989 192.08C140.276 192.24 140.499 192.483 140.659 192.81C140.819 193.13 140.899 193.533 140.899 194.02V197H139.899V194.12C139.899 193.653 139.796 193.3 139.589 193.06C139.382 192.82 139.082 192.7 138.689 192.7C138.429 192.7 138.196 192.763 137.989 192.89C137.782 193.01 137.616 193.19 137.489 193.43C137.369 193.67 137.309 193.963 137.309 194.31V197H136.309ZM143.728 199.32C143.268 199.32 142.861 199.26 142.508 199.14C142.155 199.027 141.881 198.85 141.688 198.61C141.495 198.37 141.398 198.077 141.398 197.73C141.398 197.55 141.438 197.367 141.518 197.18C141.598 197 141.728 196.827 141.908 196.66C142.088 196.493 142.331 196.343 142.638 196.21L143.198 196.66C142.858 196.787 142.628 196.937 142.508 197.11C142.395 197.29 142.338 197.463 142.338 197.63C142.338 197.83 142.398 197.997 142.518 198.13C142.638 198.263 142.801 198.363 143.008 198.43C143.221 198.497 143.461 198.53 143.728 198.53C143.988 198.53 144.215 198.493 144.408 198.42C144.601 198.347 144.751 198.243 144.858 198.11C144.965 197.977 145.018 197.82 145.018 197.64C145.018 197.427 144.938 197.247 144.778 197.1C144.618 196.96 144.311 196.877 143.858 196.85C143.478 196.823 143.155 196.787 142.888 196.74C142.628 196.693 142.405 196.637 142.218 196.57C142.038 196.503 141.885 196.43 141.758 196.35C141.638 196.27 141.535 196.187 141.448 196.1V195.87L142.448 194.84L143.258 195.12L142.168 196.13L142.378 195.68C142.451 195.727 142.521 195.773 142.588 195.82C142.655 195.86 142.745 195.897 142.858 195.93C142.971 195.963 143.125 195.993 143.318 196.02C143.511 196.047 143.765 196.073 144.078 196.1C144.531 196.133 144.895 196.213 145.168 196.34C145.448 196.467 145.651 196.637 145.778 196.85C145.905 197.063 145.968 197.317 145.968 197.61C145.968 197.897 145.888 198.17 145.728 198.43C145.575 198.69 145.331 198.903 144.998 199.07C144.671 199.237 144.248 199.32 143.728 199.32ZM143.728 195.45C143.301 195.45 142.938 195.37 142.638 195.21C142.345 195.05 142.118 194.833 141.958 194.56C141.805 194.287 141.728 193.983 141.728 193.65C141.728 193.31 141.805 193.007 141.958 192.74C142.118 192.467 142.348 192.25 142.648 192.09C142.948 191.923 143.308 191.84 143.728 191.84C144.148 191.84 144.505 191.923 144.798 192.09C145.098 192.25 145.325 192.467 145.478 192.74C145.638 193.007 145.718 193.31 145.718 193.65C145.718 193.983 145.638 194.287 145.478 194.56C145.325 194.833 145.098 195.05 144.798 195.21C144.505 195.37 144.148 195.45 143.728 195.45ZM143.728 194.65C144.055 194.65 144.315 194.567 144.508 194.4C144.701 194.227 144.798 193.977 144.798 193.65C144.798 193.323 144.701 193.077 144.508 192.91C144.315 192.737 144.055 192.65 143.728 192.65C143.401 192.65 143.138 192.737 142.938 192.91C142.738 193.077 142.638 193.323 142.638 193.65C142.638 193.977 142.738 194.227 142.938 194.4C143.138 194.567 143.401 194.65 143.728 194.65ZM144.548 192.75L144.308 191.96H146.378V192.65L144.548 192.75ZM148.831 197.12C148.405 197.12 148.031 197.05 147.711 196.91C147.391 196.77 147.138 196.573 146.951 196.32C146.765 196.067 146.651 195.77 146.611 195.43H147.631C147.665 195.59 147.728 195.737 147.821 195.87C147.921 196.003 148.055 196.11 148.221 196.19C148.395 196.27 148.598 196.31 148.831 196.31C149.051 196.31 149.231 196.28 149.371 196.22C149.518 196.153 149.625 196.067 149.691 195.96C149.758 195.847 149.791 195.727 149.791 195.6C149.791 195.413 149.745 195.273 149.651 195.18C149.565 195.08 149.431 195.003 149.251 194.95C149.078 194.89 148.868 194.837 148.621 194.79C148.388 194.75 148.161 194.697 147.941 194.63C147.728 194.557 147.535 194.467 147.361 194.36C147.195 194.253 147.061 194.12 146.961 193.96C146.861 193.793 146.811 193.59 146.811 193.35C146.811 193.063 146.888 192.807 147.041 192.58C147.195 192.347 147.411 192.167 147.691 192.04C147.978 191.907 148.315 191.84 148.701 191.84C149.261 191.84 149.711 191.973 150.051 192.24C150.391 192.507 150.591 192.883 150.651 193.37H149.681C149.655 193.143 149.555 192.97 149.381 192.85C149.208 192.723 148.978 192.66 148.691 192.66C148.405 192.66 148.185 192.717 148.031 192.83C147.878 192.943 147.801 193.093 147.801 193.28C147.801 193.4 147.845 193.507 147.931 193.6C148.018 193.693 148.145 193.773 148.311 193.84C148.485 193.9 148.695 193.957 148.941 194.01C149.295 194.077 149.611 194.16 149.891 194.26C150.171 194.36 150.395 194.507 150.561 194.7C150.728 194.893 150.811 195.17 150.811 195.53C150.818 195.843 150.738 196.12 150.571 196.36C150.411 196.6 150.181 196.787 149.881 196.92C149.588 197.053 149.238 197.12 148.831 197.12ZM151.889 197.05C151.695 197.05 151.535 196.99 151.409 196.87C151.289 196.743 151.229 196.593 151.229 196.42C151.229 196.24 151.289 196.09 151.409 195.97C151.535 195.843 151.695 195.78 151.889 195.78C152.082 195.78 152.239 195.843 152.359 195.97C152.479 196.09 152.539 196.24 152.539 196.42C152.539 196.593 152.479 196.743 152.359 196.87C152.239 196.99 152.082 197.05 151.889 197.05ZM151.889 193.11C151.695 193.11 151.535 193.05 151.409 192.93C151.289 192.803 151.229 192.653 151.229 192.48C151.229 192.3 151.289 192.15 151.409 192.03C151.535 191.903 151.695 191.84 151.889 191.84C152.082 191.84 152.239 191.903 152.359 192.03C152.479 192.15 152.539 192.3 152.539 192.48C152.539 192.653 152.479 192.803 152.359 192.93C152.239 193.05 152.082 193.11 151.889 193.11ZM156.075 197V191.13L154.855 191.44V190.69L156.445 190H157.095V197H156.075ZM157.916 197V196.28C158.383 195.92 158.826 195.557 159.246 195.19C159.666 194.823 160.04 194.46 160.366 194.1C160.7 193.733 160.96 193.377 161.146 193.03C161.333 192.677 161.426 192.34 161.426 192.02C161.426 191.793 161.386 191.583 161.306 191.39C161.226 191.197 161.1 191.04 160.926 190.92C160.753 190.793 160.516 190.73 160.216 190.73C159.93 190.73 159.69 190.793 159.496 190.92C159.31 191.047 159.166 191.217 159.066 191.43C158.973 191.637 158.926 191.867 158.926 192.12H157.956C157.963 191.64 158.066 191.233 158.266 190.9C158.466 190.567 158.736 190.313 159.076 190.14C159.423 189.967 159.81 189.88 160.236 189.88C160.683 189.88 161.07 189.963 161.396 190.13C161.723 190.29 161.976 190.527 162.156 190.84C162.336 191.147 162.426 191.523 162.426 191.97C162.426 192.29 162.363 192.61 162.236 192.93C162.11 193.243 161.936 193.55 161.716 193.85C161.503 194.15 161.263 194.44 160.996 194.72C160.73 194.993 160.453 195.253 160.166 195.5C159.886 195.747 159.616 195.97 159.356 196.17H162.646V197H157.916Z" fill="black"/>
<path d="M178.16 197L176.26 190H177.33L178.75 195.83L180.38 190H181.49L183.07 195.85L184.51 190H185.58L183.65 197H182.48L180.91 191.43L179.3 197H178.16ZM187.806 197.12C187.333 197.12 186.906 197.01 186.526 196.79C186.153 196.57 185.856 196.263 185.636 195.87C185.423 195.47 185.316 195.01 185.316 194.49C185.316 193.957 185.426 193.493 185.646 193.1C185.866 192.7 186.166 192.39 186.546 192.17C186.926 191.95 187.353 191.84 187.826 191.84C188.306 191.84 188.733 191.95 189.106 192.17C189.48 192.39 189.773 192.697 189.986 193.09C190.206 193.483 190.316 193.947 190.316 194.48C190.316 195.013 190.206 195.477 189.986 195.87C189.773 196.263 189.476 196.57 189.096 196.79C188.716 197.01 188.286 197.12 187.806 197.12ZM187.806 196.26C188.08 196.26 188.326 196.193 188.546 196.06C188.773 195.927 188.953 195.73 189.086 195.47C189.226 195.203 189.296 194.873 189.296 194.48C189.296 194.087 189.23 193.76 189.096 193.5C188.963 193.233 188.783 193.033 188.556 192.9C188.336 192.767 188.093 192.7 187.826 192.7C187.56 192.7 187.313 192.767 187.086 192.9C186.86 193.033 186.676 193.233 186.536 193.5C186.403 193.76 186.336 194.087 186.336 194.48C186.336 194.873 186.403 195.203 186.536 195.47C186.676 195.73 186.856 195.927 187.076 196.06C187.303 196.193 187.546 196.26 187.806 196.26ZM190.993 197V191.96H191.893L191.983 192.91C192.096 192.683 192.243 192.493 192.423 192.34C192.603 192.18 192.813 192.057 193.053 191.97C193.299 191.883 193.579 191.84 193.893 191.84V192.9H193.533C193.326 192.9 193.129 192.927 192.943 192.98C192.756 193.027 192.589 193.11 192.443 193.23C192.303 193.35 192.193 193.513 192.113 193.72C192.033 193.927 191.993 194.183 191.993 194.49V197H190.993ZM196.404 197.12C195.924 197.12 195.501 197.007 195.134 196.78C194.768 196.547 194.481 196.233 194.274 195.84C194.074 195.44 193.974 194.987 193.974 194.48C193.974 193.967 194.074 193.513 194.274 193.12C194.481 192.727 194.768 192.417 195.134 192.19C195.508 191.957 195.934 191.84 196.414 191.84C196.808 191.84 197.154 191.92 197.454 192.08C197.754 192.233 197.988 192.453 198.154 192.74V189.8H199.154V197H198.254L198.154 196.22C198.054 196.373 197.924 196.52 197.764 196.66C197.604 196.793 197.411 196.903 197.184 196.99C196.958 197.077 196.698 197.12 196.404 197.12ZM196.564 196.25C196.878 196.25 197.154 196.177 197.394 196.03C197.634 195.883 197.818 195.677 197.944 195.41C198.078 195.143 198.144 194.833 198.144 194.48C198.144 194.127 198.078 193.82 197.944 193.56C197.818 193.293 197.634 193.087 197.394 192.94C197.154 192.787 196.878 192.71 196.564 192.71C196.264 192.71 195.994 192.787 195.754 192.94C195.514 193.087 195.328 193.293 195.194 193.56C195.061 193.82 194.994 194.127 194.994 194.48C194.994 194.833 195.061 195.143 195.194 195.41C195.328 195.677 195.514 195.883 195.754 196.03C195.994 196.177 196.264 196.25 196.564 196.25ZM201.972 197.12C201.545 197.12 201.172 197.05 200.852 196.91C200.532 196.77 200.278 196.573 200.092 196.32C199.905 196.067 199.792 195.77 199.752 195.43H200.772C200.805 195.59 200.868 195.737 200.962 195.87C201.062 196.003 201.195 196.11 201.362 196.19C201.535 196.27 201.738 196.31 201.972 196.31C202.192 196.31 202.372 196.28 202.512 196.22C202.658 196.153 202.765 196.067 202.832 195.96C202.898 195.847 202.932 195.727 202.932 195.6C202.932 195.413 202.885 195.273 202.792 195.18C202.705 195.08 202.572 195.003 202.392 194.95C202.218 194.89 202.008 194.837 201.762 194.79C201.528 194.75 201.302 194.697 201.082 194.63C200.868 194.557 200.675 194.467 200.502 194.36C200.335 194.253 200.202 194.12 200.102 193.96C200.002 193.793 199.952 193.59 199.952 193.35C199.952 193.063 200.028 192.807 200.182 192.58C200.335 192.347 200.552 192.167 200.832 192.04C201.118 191.907 201.455 191.84 201.842 191.84C202.402 191.84 202.852 191.973 203.192 192.24C203.532 192.507 203.732 192.883 203.792 193.37H202.822C202.795 193.143 202.695 192.97 202.522 192.85C202.348 192.723 202.118 192.66 201.832 192.66C201.545 192.66 201.325 192.717 201.172 192.83C201.018 192.943 200.942 193.093 200.942 193.28C200.942 193.4 200.985 193.507 201.072 193.6C201.158 193.693 201.285 193.773 201.452 193.84C201.625 193.9 201.835 193.957 202.082 194.01C202.435 194.077 202.752 194.16 203.032 194.26C203.312 194.36 203.535 194.507 203.702 194.7C203.868 194.893 203.952 195.17 203.952 195.53C203.958 195.843 203.878 196.12 203.712 196.36C203.552 196.6 203.322 196.787 203.022 196.92C202.728 197.053 202.378 197.12 201.972 197.12ZM205.029 197.05C204.836 197.05 204.676 196.99 204.549 196.87C204.429 196.743 204.369 196.593 204.369 196.42C204.369 196.24 204.429 196.09 204.549 195.97C204.676 195.843 204.836 195.78 205.029 195.78C205.223 195.78 205.379 195.843 205.499 195.97C205.619 196.09 205.679 196.24 205.679 196.42C205.679 196.593 205.619 196.743 205.499 196.87C205.379 196.99 205.223 197.05 205.029 197.05ZM205.029 193.11C204.836 193.11 204.676 193.05 204.549 192.93C204.429 192.803 204.369 192.653 204.369 192.48C204.369 192.3 204.429 192.15 204.549 192.03C204.676 191.903 204.836 191.84 205.029 191.84C205.223 191.84 205.379 191.903 205.499 192.03C205.619 192.15 205.679 192.3 205.679 192.48C205.679 192.653 205.619 192.803 205.499 192.93C205.379 193.05 205.223 193.11 205.029 193.11ZM209.216 197V191.13L207.996 191.44V190.69L209.586 190H210.236V197H209.216ZM211.767 197L214.437 190.86H210.737V190H215.467V190.73L212.807 197H211.767ZM215.694 197V196.28C216.16 195.92 216.604 195.557 217.024 195.19C217.444 194.823 217.817 194.46 218.144 194.1C218.477 193.733 218.737 193.377 218.924 193.03C219.11 192.677 219.204 192.34 219.204 192.02C219.204 191.793 219.164 191.583 219.084 191.39C219.004 191.197 218.877 191.04 218.704 190.92C218.53 190.793 218.294 190.73 217.994 190.73C217.707 190.73 217.467 190.793 217.274 190.92C217.087 191.047 216.944 191.217 216.844 191.43C216.75 191.637 216.704 191.867 216.704 192.12H215.734C215.74 191.64 215.844 191.233 216.044 190.9C216.244 190.567 216.514 190.313 216.854 190.14C217.2 189.967 217.587 189.88 218.014 189.88C218.46 189.88 218.847 189.963 219.174 190.13C219.5 190.29 219.754 190.527 219.934 190.84C220.114 191.147 220.204 191.523 220.204 191.97C220.204 192.29 220.14 192.61 220.014 192.93C219.887 193.243 219.714 193.55 219.494 193.85C219.28 194.15 219.04 194.44 218.774 194.72C218.507 194.993 218.23 195.253 217.944 195.5C217.664 195.747 217.394 195.97 217.134 196.17H220.424V197H215.694ZM223.325 197.12C222.878 197.12 222.468 197.04 222.095 196.88C221.728 196.713 221.435 196.467 221.215 196.14C221.002 195.807 220.888 195.39 220.875 194.89H221.875C221.882 195.143 221.942 195.373 222.055 195.58C222.168 195.787 222.332 195.953 222.545 196.08C222.765 196.2 223.025 196.26 223.325 196.26C223.625 196.26 223.875 196.203 224.075 196.09C224.282 195.977 224.435 195.823 224.535 195.63C224.642 195.437 224.695 195.22 224.695 194.98C224.695 194.68 224.622 194.437 224.475 194.25C224.335 194.063 224.142 193.923 223.895 193.83C223.655 193.737 223.385 193.69 223.085 193.69H222.565V192.85H223.085C223.505 192.85 223.838 192.753 224.085 192.56C224.338 192.367 224.465 192.093 224.465 191.74C224.465 191.447 224.368 191.207 224.175 191.02C223.982 190.833 223.698 190.74 223.325 190.74C222.952 190.74 222.655 190.847 222.435 191.06C222.222 191.273 222.102 191.543 222.075 191.87H221.085C221.105 191.477 221.208 191.13 221.395 190.83C221.588 190.523 221.848 190.29 222.175 190.13C222.508 189.963 222.892 189.88 223.325 189.88C223.792 189.88 224.182 189.963 224.495 190.13C224.815 190.29 225.055 190.507 225.215 190.78C225.382 191.053 225.465 191.353 225.465 191.68C225.465 191.927 225.418 192.157 225.325 192.37C225.232 192.577 225.098 192.757 224.925 192.91C224.752 193.063 224.542 193.173 224.295 193.24C224.562 193.293 224.802 193.397 225.015 193.55C225.228 193.703 225.395 193.903 225.515 194.15C225.635 194.39 225.695 194.67 225.695 194.99C225.695 195.37 225.605 195.723 225.425 196.05C225.245 196.37 224.978 196.63 224.625 196.83C224.278 197.023 223.845 197.12 223.325 197.12Z" fill="black"/>
<path d="M239.73 197V190H240.73V196.21H243.93V197H239.73ZM244.621 197V191.96H245.621V197H244.621ZM245.131 191.01C244.938 191.01 244.778 190.95 244.651 190.83C244.531 190.71 244.471 190.557 244.471 190.37C244.471 190.19 244.531 190.043 244.651 189.93C244.778 189.81 244.938 189.75 245.131 189.75C245.318 189.75 245.474 189.81 245.601 189.93C245.728 190.043 245.791 190.19 245.791 190.37C245.791 190.557 245.728 190.71 245.601 190.83C245.474 190.95 245.318 191.01 245.131 191.01ZM246.551 197V191.96H247.451L247.511 192.82C247.671 192.52 247.898 192.283 248.191 192.11C248.484 191.93 248.821 191.84 249.201 191.84C249.601 191.84 249.944 191.92 250.231 192.08C250.518 192.24 250.741 192.483 250.901 192.81C251.061 193.13 251.141 193.533 251.141 194.02V197H250.141V194.12C250.141 193.653 250.038 193.3 249.831 193.06C249.624 192.82 249.324 192.7 248.931 192.7C248.671 192.7 248.438 192.763 248.231 192.89C248.024 193.01 247.858 193.19 247.731 193.43C247.611 193.67 247.551 193.963 247.551 194.31V197H246.551ZM255.09 197L252.77 194.24L254.87 191.96H256.08L253.58 194.63V193.88L256.35 197H255.09ZM251.92 197V189.8H252.92V197H251.92ZM258.37 197.12C257.944 197.12 257.57 197.05 257.25 196.91C256.93 196.77 256.677 196.573 256.49 196.32C256.304 196.067 256.19 195.77 256.15 195.43H257.17C257.204 195.59 257.267 195.737 257.36 195.87C257.46 196.003 257.594 196.11 257.76 196.19C257.934 196.27 258.137 196.31 258.37 196.31C258.59 196.31 258.77 196.28 258.91 196.22C259.057 196.153 259.164 196.067 259.23 195.96C259.297 195.847 259.33 195.727 259.33 195.6C259.33 195.413 259.284 195.273 259.19 195.18C259.104 195.08 258.97 195.003 258.79 194.95C258.617 194.89 258.407 194.837 258.16 194.79C257.927 194.75 257.7 194.697 257.48 194.63C257.267 194.557 257.074 194.467 256.9 194.36C256.734 194.253 256.6 194.12 256.5 193.96C256.4 193.793 256.35 193.59 256.35 193.35C256.35 193.063 256.427 192.807 256.58 192.58C256.734 192.347 256.95 192.167 257.23 192.04C257.517 191.907 257.854 191.84 258.24 191.84C258.8 191.84 259.25 191.973 259.59 192.24C259.93 192.507 260.13 192.883 260.19 193.37H259.22C259.194 193.143 259.094 192.97 258.92 192.85C258.747 192.723 258.517 192.66 258.23 192.66C257.944 192.66 257.724 192.717 257.57 192.83C257.417 192.943 257.34 193.093 257.34 193.28C257.34 193.4 257.384 193.507 257.47 193.6C257.557 193.693 257.684 193.773 257.85 193.84C258.024 193.9 258.234 193.957 258.48 194.01C258.834 194.077 259.15 194.16 259.43 194.26C259.71 194.36 259.934 194.507 260.1 194.7C260.267 194.893 260.35 195.17 260.35 195.53C260.357 195.843 260.277 196.12 260.11 196.36C259.95 196.6 259.72 196.787 259.42 196.92C259.127 197.053 258.777 197.12 258.37 197.12ZM261.428 197.05C261.234 197.05 261.074 196.99 260.948 196.87C260.828 196.743 260.768 196.593 260.768 196.42C260.768 196.24 260.828 196.09 260.948 195.97C261.074 195.843 261.234 195.78 261.428 195.78C261.621 195.78 261.778 195.843 261.898 195.97C262.018 196.09 262.078 196.24 262.078 196.42C262.078 196.593 262.018 196.743 261.898 196.87C261.778 196.99 261.621 197.05 261.428 197.05ZM261.428 193.11C261.234 193.11 261.074 193.05 260.948 192.93C260.828 192.803 260.768 192.653 260.768 192.48C260.768 192.3 260.828 192.15 260.948 192.03C261.074 191.903 261.234 191.84 261.428 191.84C261.621 191.84 261.778 191.903 261.898 192.03C262.018 192.15 262.078 192.3 262.078 192.48C262.078 192.653 262.018 192.803 261.898 192.93C261.778 193.05 261.621 193.11 261.428 193.11ZM265.614 197V191.13L264.394 191.44V190.69L265.984 190H266.634V197H265.614ZM267.455 197V196.28C267.922 195.92 268.365 195.557 268.785 195.19C269.205 194.823 269.579 194.46 269.905 194.1C270.239 193.733 270.499 193.377 270.685 193.03C270.872 192.677 270.965 192.34 270.965 192.02C270.965 191.793 270.925 191.583 270.845 191.39C270.765 191.197 270.639 191.04 270.465 190.92C270.292 190.793 270.055 190.73 269.755 190.73C269.469 190.73 269.229 190.793 269.035 190.92C268.849 191.047 268.705 191.217 268.605 191.43C268.512 191.637 268.465 191.867 268.465 192.12H267.495C267.502 191.64 267.605 191.233 267.805 190.9C268.005 190.567 268.275 190.313 268.615 190.14C268.962 189.967 269.349 189.88 269.775 189.88C270.222 189.88 270.609 189.963 270.935 190.13C271.262 190.29 271.515 190.527 271.695 190.84C271.875 191.147 271.965 191.523 271.965 191.97C271.965 192.29 271.902 192.61 271.775 192.93C271.649 193.243 271.475 193.55 271.255 193.85C271.042 194.15 270.802 194.44 270.535 194.72C270.269 194.993 269.992 195.253 269.705 195.5C269.425 195.747 269.155 195.97 268.895 196.17H272.185V197H267.455ZM275.087 197.12C274.64 197.12 274.23 197.04 273.857 196.88C273.49 196.713 273.197 196.467 272.977 196.14C272.763 195.807 272.65 195.39 272.637 194.89H273.637C273.643 195.143 273.703 195.373 273.817 195.58C273.93 195.787 274.093 195.953 274.307 196.08C274.527 196.2 274.787 196.26 275.087 196.26C275.387 196.26 275.637 196.203 275.837 196.09C276.043 195.977 276.197 195.823 276.297 195.63C276.403 195.437 276.457 195.22 276.457 194.98C276.457 194.68 276.383 194.437 276.237 194.25C276.097 194.063 275.903 193.923 275.657 193.83C275.417 193.737 275.147 193.69 274.847 193.69H274.327V192.85H274.847C275.267 192.85 275.6 192.753 275.847 192.56C276.1 192.367 276.227 192.093 276.227 191.74C276.227 191.447 276.13 191.207 275.937 191.02C275.743 190.833 275.46 190.74 275.087 190.74C274.713 190.74 274.417 190.847 274.197 191.06C273.983 191.273 273.863 191.543 273.837 191.87H272.847C272.867 191.477 272.97 191.13 273.157 190.83C273.35 190.523 273.61 190.29 273.937 190.13C274.27 189.963 274.653 189.88 275.087 189.88C275.553 189.88 275.943 189.963 276.257 190.13C276.577 190.29 276.817 190.507 276.977 190.78C277.143 191.053 277.227 191.353 277.227 191.68C277.227 191.927 277.18 192.157 277.087 192.37C276.993 192.577 276.86 192.757 276.687 192.91C276.513 193.063 276.303 193.173 276.057 193.24C276.323 193.293 276.563 193.397 276.777 193.55C276.99 193.703 277.157 193.903 277.277 194.15C277.397 194.39 277.457 194.67 277.457 194.99C277.457 195.37 277.367 195.723 277.187 196.05C277.007 196.37 276.74 196.63 276.387 196.83C276.04 197.023 275.607 197.12 275.087 197.12Z" fill="black"/>
</svg>
