<svg width="389" height="226" viewBox="0 0 389 226" fill="none" xmlns="http://www.w3.org/2000/svg">
<rect x="0.5" y="0.5" width="388" height="225" rx="15.5" fill="white"/>
<rect x="0.5" y="0.5" width="388" height="225" rx="15.5" stroke="#ECECEC"/>
<rect x="33.5" y="64.5" width="322" height="38" rx="6.5" fill="white" stroke="#ECECEC"/>
<path d="M33.28 57L35.85 50H36.94L39.51 57H38.44L36.39 51.2L34.33 57H33.28ZM34.44 55.27L34.72 54.47H38.01L38.29 55.27H34.44ZM41.9337 57.12C41.4537 57.12 41.0303 57.0067 40.6637 56.78C40.297 56.5467 40.0103 56.2333 39.8037 55.84C39.6037 55.44 39.5037 54.9867 39.5037 54.48C39.5037 53.9667 39.6037 53.5133 39.8037 53.12C40.0103 52.7267 40.297 52.4167 40.6637 52.19C41.037 51.9567 41.4637 51.84 41.9437 51.84C42.337 51.84 42.6837 51.92 42.9837 52.08C43.2837 52.2333 43.517 52.4533 43.6837 52.74V49.8H44.6837V57H43.7837L43.6837 56.22C43.5837 56.3733 43.4537 56.52 43.2937 56.66C43.1337 56.7933 42.9403 56.9033 42.7137 56.99C42.487 57.0767 42.227 57.12 41.9337 57.12ZM42.0937 56.25C42.407 56.25 42.6837 56.1767 42.9237 56.03C43.1637 55.8833 43.347 55.6767 43.4737 55.41C43.607 55.1433 43.6737 54.8333 43.6737 54.48C43.6737 54.1267 43.607 53.82 43.4737 53.56C43.347 53.2933 43.1637 53.0867 42.9237 52.94C42.6837 52.7867 42.407 52.71 42.0937 52.71C41.7937 52.71 41.5237 52.7867 41.2837 52.94C41.0437 53.0867 40.857 53.2933 40.7237 53.56C40.5903 53.82 40.5237 54.1267 40.5237 54.48C40.5237 54.8333 40.5903 55.1433 40.7237 55.41C40.857 55.6767 41.0437 55.8833 41.2837 56.03C41.5237 56.1767 41.7937 56.25 42.0937 56.25ZM47.7911 57.12C47.3111 57.12 46.8878 57.0067 46.5211 56.78C46.1544 56.5467 45.8678 56.2333 45.6611 55.84C45.4611 55.44 45.3611 54.9867 45.3611 54.48C45.3611 53.9667 45.4611 53.5133 45.6611 53.12C45.8678 52.7267 46.1544 52.4167 46.5211 52.19C46.8944 51.9567 47.3211 51.84 47.8011 51.84C48.1944 51.84 48.5411 51.92 48.8411 52.08C49.1411 52.2333 49.3744 52.4533 49.5411 52.74V49.8H50.5411V57H49.6411L49.5411 56.22C49.4411 56.3733 49.3111 56.52 49.1511 56.66C48.9911 56.7933 48.7978 56.9033 48.5711 56.99C48.3444 57.0767 48.0844 57.12 47.7911 57.12ZM47.9511 56.25C48.2644 56.25 48.5411 56.1767 48.7811 56.03C49.0211 55.8833 49.2044 55.6767 49.3311 55.41C49.4644 55.1433 49.5311 54.8333 49.5311 54.48C49.5311 54.1267 49.4644 53.82 49.3311 53.56C49.2044 53.2933 49.0211 53.0867 48.7811 52.94C48.5411 52.7867 48.2644 52.71 47.9511 52.71C47.6511 52.71 47.3811 52.7867 47.1411 52.94C46.9011 53.0867 46.7144 53.2933 46.5811 53.56C46.4478 53.82 46.3811 54.1267 46.3811 54.48C46.3811 54.8333 46.4478 55.1433 46.5811 55.41C46.7144 55.6767 46.9011 55.8833 47.1411 56.03C47.3811 56.1767 47.6511 56.25 47.9511 56.25ZM54.4871 57L53.0071 51.96H53.9971L55.0971 56.16L54.9071 56.15L56.1271 51.96H57.2471L58.4671 56.15L58.2771 56.16L59.3671 51.96H60.3771L58.8971 57H57.8671L56.5871 52.63H56.7871L55.5071 57H54.4871ZM62.8838 57.12C62.4038 57.12 61.9772 57.01 61.6038 56.79C61.2305 56.57 60.9372 56.2633 60.7238 55.87C60.5172 55.4767 60.4138 55.02 60.4138 54.5C60.4138 53.9667 60.5172 53.5033 60.7238 53.11C60.9372 52.71 61.2305 52.4 61.6038 52.18C61.9772 51.9533 62.4105 51.84 62.9038 51.84C63.3972 51.84 63.8205 51.95 64.1738 52.17C64.5272 52.39 64.8005 52.6833 64.9938 53.05C65.1872 53.41 65.2838 53.81 65.2838 54.25C65.2838 54.3167 65.2805 54.39 65.2738 54.47C65.2738 54.5433 65.2705 54.6267 65.2638 54.72H61.1438V54.01H64.2838C64.2638 53.59 64.1238 53.2633 63.8638 53.03C63.6038 52.79 63.2805 52.67 62.8938 52.67C62.6205 52.67 62.3705 52.7333 62.1438 52.86C61.9172 52.98 61.7338 53.16 61.5938 53.4C61.4605 53.6333 61.3938 53.93 61.3938 54.29V54.57C61.3938 54.9433 61.4605 55.26 61.5938 55.52C61.7338 55.7733 61.9172 55.9667 62.1438 56.1C62.3705 56.2267 62.6172 56.29 62.8838 56.29C63.2038 56.29 63.4672 56.22 63.6738 56.08C63.8805 55.94 64.0338 55.75 64.1338 55.51H65.1338C65.0472 55.8167 64.9005 56.0933 64.6938 56.34C64.4872 56.58 64.2305 56.77 63.9238 56.91C63.6238 57.05 63.2772 57.12 62.8838 57.12ZM68.6448 57.12C68.3715 57.12 68.1215 57.08 67.8948 57C67.6748 56.9267 67.4815 56.8233 67.3148 56.69C67.1482 56.5567 67.0082 56.4033 66.8948 56.23L66.7948 57H65.8948V49.8H66.8948V52.75C67.0548 52.4967 67.2782 52.2833 67.5648 52.11C67.8582 51.93 68.2182 51.84 68.6448 51.84C69.1248 51.84 69.5482 51.9567 69.9148 52.19C70.2815 52.4167 70.5648 52.73 70.7648 53.13C70.9715 53.5233 71.0748 53.9767 71.0748 54.49C71.0748 54.99 70.9715 55.44 70.7648 55.84C70.5648 56.24 70.2815 56.5533 69.9148 56.78C69.5482 57.0067 69.1248 57.12 68.6448 57.12ZM68.4848 56.25C68.7915 56.25 69.0615 56.1767 69.2948 56.03C69.5348 55.8833 69.7215 55.6767 69.8548 55.41C69.9948 55.1433 70.0648 54.8333 70.0648 54.48C70.0648 54.1267 69.9948 53.82 69.8548 53.56C69.7215 53.2933 69.5348 53.0867 69.2948 52.94C69.0615 52.7867 68.7915 52.71 68.4848 52.71C68.1715 52.71 67.8948 52.7867 67.6548 52.94C67.4215 53.0867 67.2382 53.2933 67.1048 53.56C66.9715 53.82 66.9048 54.1267 66.9048 54.48C66.9048 54.8333 66.9715 55.1433 67.1048 55.41C67.2382 55.6767 67.4215 55.8833 67.6548 56.03C67.8948 56.1767 68.1715 56.25 68.4848 56.25ZM73.6925 57.12C73.2658 57.12 72.8925 57.05 72.5725 56.91C72.2525 56.77 71.9992 56.5733 71.8125 56.32C71.6258 56.0667 71.5125 55.77 71.4725 55.43H72.4925C72.5258 55.59 72.5892 55.7367 72.6825 55.87C72.7825 56.0033 72.9158 56.11 73.0825 56.19C73.2558 56.27 73.4592 56.31 73.6925 56.31C73.9125 56.31 74.0925 56.28 74.2325 56.22C74.3792 56.1533 74.4858 56.0667 74.5525 55.96C74.6192 55.8467 74.6525 55.7267 74.6525 55.6C74.6525 55.4133 74.6058 55.2733 74.5125 55.18C74.4258 55.08 74.2925 55.0033 74.1125 54.95C73.9392 54.89 73.7292 54.8367 73.4825 54.79C73.2492 54.75 73.0225 54.6967 72.8025 54.63C72.5892 54.5567 72.3958 54.4667 72.2225 54.36C72.0558 54.2533 71.9225 54.12 71.8225 53.96C71.7225 53.7933 71.6725 53.59 71.6725 53.35C71.6725 53.0633 71.7492 52.8067 71.9025 52.58C72.0558 52.3467 72.2725 52.1667 72.5525 52.04C72.8392 51.9067 73.1758 51.84 73.5625 51.84C74.1225 51.84 74.5725 51.9733 74.9125 52.24C75.2525 52.5067 75.4525 52.8833 75.5125 53.37H74.5425C74.5158 53.1433 74.4158 52.97 74.2425 52.85C74.0692 52.7233 73.8392 52.66 73.5525 52.66C73.2658 52.66 73.0458 52.7167 72.8925 52.83C72.7392 52.9433 72.6625 53.0933 72.6625 53.28C72.6625 53.4 72.7058 53.5067 72.7925 53.6C72.8792 53.6933 73.0058 53.7733 73.1725 53.84C73.3458 53.9 73.5558 53.9567 73.8025 54.01C74.1558 54.0767 74.4725 54.16 74.7525 54.26C75.0325 54.36 75.2558 54.5067 75.4225 54.7C75.5892 54.8933 75.6725 55.17 75.6725 55.53C75.6792 55.8433 75.5992 56.12 75.4325 56.36C75.2725 56.6 75.0425 56.7867 74.7425 56.92C74.4492 57.0533 74.0992 57.12 73.6925 57.12ZM76.4199 57V51.96H77.4199V57H76.4199ZM76.9299 51.01C76.7366 51.01 76.5766 50.95 76.4499 50.83C76.3299 50.71 76.2699 50.5567 76.2699 50.37C76.2699 50.19 76.3299 50.0433 76.4499 49.93C76.5766 49.81 76.7366 49.75 76.9299 49.75C77.1166 49.75 77.2733 49.81 77.3999 49.93C77.5266 50.0433 77.5899 50.19 77.5899 50.37C77.5899 50.5567 77.5266 50.71 77.3999 50.83C77.2733 50.95 77.1166 51.01 76.9299 51.01ZM80.4299 57C80.1099 57 79.8333 56.95 79.5999 56.85C79.3666 56.75 79.1866 56.5833 79.0599 56.35C78.9333 56.1167 78.8699 55.8 78.8699 55.4V52.81H77.9999V51.96H78.8699L78.9899 50.7H79.8699V51.96H81.2999V52.81H79.8699V55.41C79.8699 55.6967 79.9299 55.8933 80.0499 56C80.1699 56.1 80.3766 56.15 80.6699 56.15H81.2499V57H80.4299ZM84.0459 57.12C83.5659 57.12 83.1393 57.01 82.7659 56.79C82.3926 56.57 82.0993 56.2633 81.8859 55.87C81.6793 55.4767 81.5759 55.02 81.5759 54.5C81.5759 53.9667 81.6793 53.5033 81.8859 53.11C82.0993 52.71 82.3926 52.4 82.7659 52.18C83.1393 51.9533 83.5726 51.84 84.0659 51.84C84.5593 51.84 84.9826 51.95 85.3359 52.17C85.6893 52.39 85.9626 52.6833 86.1559 53.05C86.3493 53.41 86.4459 53.81 86.4459 54.25C86.4459 54.3167 86.4426 54.39 86.4359 54.47C86.4359 54.5433 86.4326 54.6267 86.4259 54.72H82.3059V54.01H85.4459C85.4259 53.59 85.2859 53.2633 85.0259 53.03C84.7659 52.79 84.4426 52.67 84.0559 52.67C83.7826 52.67 83.5326 52.7333 83.3059 52.86C83.0793 52.98 82.8959 53.16 82.7559 53.4C82.6226 53.6333 82.5559 53.93 82.5559 54.29V54.57C82.5559 54.9433 82.6226 55.26 82.7559 55.52C82.8959 55.7733 83.0793 55.9667 83.3059 56.1C83.5326 56.2267 83.7793 56.29 84.0459 56.29C84.3659 56.29 84.6293 56.22 84.8359 56.08C85.0426 55.94 85.1959 55.75 85.2959 55.51H86.2959C86.2093 55.8167 86.0626 56.0933 85.8559 56.34C85.6493 56.58 85.3926 56.77 85.0859 56.91C84.7859 57.05 84.4393 57.12 84.0459 57.12ZM89.1155 57V49.8H90.1155V57H89.1155ZM91.0586 57V51.96H92.0586V57H91.0586ZM91.5686 51.01C91.3753 51.01 91.2153 50.95 91.0886 50.83C90.9686 50.71 90.9086 50.5567 90.9086 50.37C90.9086 50.19 90.9686 50.0433 91.0886 49.93C91.2153 49.81 91.3753 49.75 91.5686 49.75C91.7553 49.75 91.9119 49.81 92.0386 49.93C92.1653 50.0433 92.2286 50.19 92.2286 50.37C92.2286 50.5567 92.1653 50.71 92.0386 50.83C91.9119 50.95 91.7553 51.01 91.5686 51.01ZM92.9886 57V51.96H93.8886L93.9486 52.82C94.1086 52.52 94.3353 52.2833 94.6286 52.11C94.9219 51.93 95.2586 51.84 95.6386 51.84C96.0386 51.84 96.3819 51.92 96.6686 52.08C96.9553 52.24 97.1786 52.4833 97.3386 52.81C97.4986 53.13 97.5786 53.5333 97.5786 54.02V57H96.5786V54.12C96.5786 53.6533 96.4753 53.3 96.2686 53.06C96.0619 52.82 95.7619 52.7 95.3686 52.7C95.1086 52.7 94.8753 52.7633 94.6686 52.89C94.4619 53.01 94.2953 53.19 94.1686 53.43C94.0486 53.67 93.9886 53.9633 93.9886 54.31V57H92.9886ZM101.528 57L99.2077 54.24L101.308 51.96H102.518L100.018 54.63V53.88L102.788 57H101.528ZM98.3577 57V49.8H99.3577V57H98.3577Z" fill="#797979"/>
<path d="M44.98 89V81.944H46.044L46.128 83.288C46.2867 82.9707 46.4873 82.7 46.73 82.476C46.982 82.252 47.2807 82.0793 47.626 81.958C47.9807 81.8367 48.382 81.776 48.83 81.776V83.008H48.396C48.0973 83.008 47.8127 83.05 47.542 83.134C47.2713 83.2087 47.0287 83.3347 46.814 83.512C46.6087 83.6893 46.4453 83.932 46.324 84.24C46.212 84.5387 46.156 84.912 46.156 85.36V89H44.98ZM52.2959 89.168C51.6332 89.168 51.0452 89.014 50.5319 88.706C50.0279 88.398 49.6312 87.9687 49.3419 87.418C49.0525 86.858 48.9079 86.2093 48.9079 85.472C48.9079 84.7253 49.0479 84.0767 49.3279 83.526C49.6172 82.9753 50.0185 82.546 50.5319 82.238C51.0545 81.93 51.6519 81.776 52.3239 81.776C53.0145 81.776 53.5979 81.93 54.0739 82.238C54.5592 82.546 54.9279 82.952 55.1799 83.456C55.4412 83.9507 55.5719 84.4967 55.5719 85.094C55.5719 85.1873 55.5719 85.2853 55.5719 85.388C55.5719 85.4907 55.5672 85.6073 55.5579 85.738H49.7899V84.828H54.4239C54.3959 84.184 54.1812 83.68 53.7799 83.316C53.3879 82.952 52.8932 82.77 52.2959 82.77C51.8945 82.77 51.5212 82.8633 51.1759 83.05C50.8399 83.2273 50.5692 83.4933 50.3639 83.848C50.1585 84.1933 50.0559 84.6273 50.0559 85.15V85.542C50.0559 86.1207 50.1585 86.606 50.3639 86.998C50.5785 87.39 50.8539 87.684 51.1899 87.88C51.5352 88.076 51.9039 88.174 52.2959 88.174C52.7905 88.174 53.1965 88.0667 53.5139 87.852C53.8405 87.628 54.0739 87.3293 54.2139 86.956H55.3759C55.2639 87.376 55.0679 87.754 54.7879 88.09C54.5079 88.426 54.1579 88.692 53.7379 88.888C53.3272 89.0747 52.8465 89.168 52.2959 89.168ZM59.1189 89.168C58.5309 89.168 58.0176 89.07 57.5789 88.874C57.1496 88.678 56.8042 88.4073 56.5429 88.062C56.2909 87.7073 56.1369 87.292 56.0809 86.816H57.2849C57.3316 87.0587 57.4296 87.2827 57.5789 87.488C57.7282 87.6933 57.9289 87.8613 58.1809 87.992C58.4422 88.1133 58.7596 88.174 59.1329 88.174C59.4596 88.174 59.7302 88.1273 59.9449 88.034C60.1596 87.9313 60.3182 87.796 60.4209 87.628C60.5329 87.46 60.5889 87.278 60.5889 87.082C60.5889 86.7927 60.5189 86.5733 60.3789 86.424C60.2482 86.2747 60.0522 86.158 59.7909 86.074C59.5296 85.9807 59.2122 85.9013 58.8389 85.836C58.5309 85.78 58.2276 85.7053 57.9289 85.612C57.6302 85.5187 57.3642 85.3973 57.1309 85.248C56.8976 85.0893 56.7109 84.898 56.5709 84.674C56.4402 84.45 56.3749 84.1747 56.3749 83.848C56.3749 83.4467 56.4776 83.092 56.6829 82.784C56.8882 82.4667 57.1822 82.2193 57.5649 82.042C57.9569 81.8647 58.4096 81.776 58.9229 81.776C59.6789 81.776 60.2902 81.958 60.7569 82.322C61.2236 82.686 61.4989 83.2133 61.5829 83.904H60.4209C60.3742 83.5493 60.2202 83.274 59.9589 83.078C59.7069 82.8727 59.3569 82.77 58.9089 82.77C58.4702 82.77 58.1342 82.8587 57.9009 83.036C57.6769 83.2133 57.5649 83.4467 57.5649 83.736C57.5649 83.9227 57.6256 84.0907 57.7469 84.24C57.8776 84.38 58.0642 84.5013 58.3069 84.604C58.5589 84.7067 58.8669 84.7907 59.2309 84.856C59.6976 84.94 60.1222 85.052 60.5049 85.192C60.8876 85.332 61.1956 85.542 61.4289 85.822C61.6716 86.0927 61.7929 86.48 61.7929 86.984C61.7929 87.4227 61.6809 87.8053 61.4569 88.132C61.2422 88.4587 60.9342 88.7153 60.5329 88.902C60.1316 89.0793 59.6602 89.168 59.1189 89.168ZM65.3482 89.168C64.8069 89.168 64.3309 89.0607 63.9202 88.846C63.5189 88.6313 63.2062 88.3 62.9822 87.852C62.7676 87.404 62.6602 86.844 62.6602 86.172V81.944H63.8362V86.046C63.8362 86.746 63.9902 87.2733 64.2982 87.628C64.6062 87.9827 65.0402 88.16 65.6003 88.16C65.9922 88.16 66.3469 88.0667 66.6642 87.88C66.9816 87.684 67.2289 87.4087 67.4062 87.054C67.5929 86.69 67.6862 86.2467 67.6862 85.724V81.944H68.8622V89H67.7983L67.7282 87.768C67.5136 88.2067 67.1962 88.552 66.7762 88.804C66.3562 89.0467 65.8802 89.168 65.3482 89.168ZM70.1116 89V81.944H71.1756L71.2456 82.952C71.4696 82.588 71.7683 82.3033 72.1416 82.098C72.5243 81.8833 72.9396 81.776 73.3876 81.776C73.7516 81.776 74.0783 81.8273 74.3676 81.93C74.6663 82.0233 74.9276 82.1727 75.1516 82.378C75.3756 82.574 75.5576 82.826 75.6976 83.134C75.9403 82.7047 76.2716 82.3733 76.6916 82.14C77.121 81.8973 77.5783 81.776 78.0636 81.776C78.605 81.776 79.0763 81.888 79.4776 82.112C79.8883 82.3267 80.201 82.658 80.4156 83.106C80.6396 83.5447 80.7516 84.1047 80.7516 84.786V89H79.5896V84.912C79.5896 84.2027 79.445 83.6707 79.1556 83.316C78.8663 82.9613 78.4603 82.784 77.9376 82.784C77.5736 82.784 77.247 82.882 76.9576 83.078C76.6683 83.2647 76.4396 83.54 76.2716 83.904C76.1036 84.268 76.0196 84.716 76.0196 85.248V89H74.8436V84.912C74.8436 84.2027 74.699 83.6707 74.4096 83.316C74.1203 82.9613 73.7096 82.784 73.1776 82.784C72.823 82.784 72.501 82.882 72.2116 83.078C71.9316 83.2647 71.7076 83.54 71.5396 83.904C71.3716 84.268 71.2876 84.716 71.2876 85.248V89H70.1116ZM84.9744 89.168C84.3117 89.168 83.7237 89.014 83.2104 88.706C82.7064 88.398 82.3097 87.9687 82.0204 87.418C81.7311 86.858 81.5864 86.2093 81.5864 85.472C81.5864 84.7253 81.7264 84.0767 82.0064 83.526C82.2957 82.9753 82.6971 82.546 83.2104 82.238C83.7331 81.93 84.3304 81.776 85.0024 81.776C85.6931 81.776 86.2764 81.93 86.7524 82.238C87.2377 82.546 87.6064 82.952 87.8584 83.456C88.1197 83.9507 88.2504 84.4967 88.2504 85.094C88.2504 85.1873 88.2504 85.2853 88.2504 85.388C88.2504 85.4907 88.2457 85.6073 88.2364 85.738H82.4684V84.828H87.1024C87.0744 84.184 86.8597 83.68 86.4584 83.316C86.0664 82.952 85.5717 82.77 84.9744 82.77C84.5731 82.77 84.1997 82.8633 83.8544 83.05C83.5184 83.2273 83.2477 83.4933 83.0424 83.848C82.8371 84.1933 82.7344 84.6273 82.7344 85.15V85.542C82.7344 86.1207 82.8371 86.606 83.0424 86.998C83.2571 87.39 83.5324 87.684 83.8684 87.88C84.2137 88.076 84.5824 88.174 84.9744 88.174C85.4691 88.174 85.8751 88.0667 86.1924 87.852C86.5191 87.628 86.7524 87.3293 86.8924 86.956H88.0544C87.9424 87.376 87.7464 87.754 87.4664 88.09C87.1864 88.426 86.8364 88.692 86.4164 88.888C86.0057 89.0747 85.5251 89.168 84.9744 89.168ZM92.8334 89.168C92.4321 89.168 92.0681 89.112 91.7414 89C91.4241 88.8787 91.1441 88.72 90.9014 88.524C90.6588 88.328 90.4581 88.0993 90.2994 87.838L90.2014 89H89.1374V78.92H90.3134V83.106C90.5374 82.742 90.8594 82.4293 91.2794 82.168C91.6994 81.9067 92.2174 81.776 92.8334 81.776C93.5148 81.776 94.1121 81.9393 94.6254 82.266C95.1388 82.5833 95.5354 83.022 95.8154 83.582C96.1048 84.1327 96.2494 84.7627 96.2494 85.472C96.2494 86.1813 96.1048 86.816 95.8154 87.376C95.5354 87.936 95.1388 88.3747 94.6254 88.692C94.1121 89.0093 93.5148 89.168 92.8334 89.168ZM92.6934 88.146C93.1508 88.146 93.5568 88.034 93.9114 87.81C94.2661 87.586 94.5414 87.278 94.7374 86.886C94.9428 86.4847 95.0454 86.0133 95.0454 85.472C95.0454 84.94 94.9428 84.4733 94.7374 84.072C94.5414 83.6707 94.2661 83.358 93.9114 83.134C93.5568 82.91 93.1508 82.798 92.6934 82.798C92.2268 82.798 91.8161 82.91 91.4614 83.134C91.1068 83.358 90.8314 83.6707 90.6354 84.072C90.4394 84.4733 90.3414 84.94 90.3414 85.472C90.3414 86.0133 90.4394 86.4847 90.6354 86.886C90.8314 87.278 91.1068 87.586 91.4614 87.81C91.8161 88.034 92.2268 88.146 92.6934 88.146ZM99.7631 89.168C99.2218 89.168 98.7458 89.0607 98.3351 88.846C97.9338 88.6313 97.6211 88.3 97.3971 87.852C97.1824 87.404 97.0751 86.844 97.0751 86.172V81.944H98.2511V86.046C98.2511 86.746 98.4051 87.2733 98.7131 87.628C99.0211 87.9827 99.4551 88.16 100.015 88.16C100.407 88.16 100.762 88.0667 101.079 87.88C101.396 87.684 101.644 87.4087 101.821 87.054C102.008 86.69 102.101 86.2467 102.101 85.724V81.944H103.277V89H102.213L102.143 87.768C101.928 88.2067 101.611 88.552 101.191 88.804C100.771 89.0467 100.295 89.168 99.7631 89.168ZM104.638 89V81.944H105.814V89H104.638ZM105.226 80.446C104.993 80.446 104.797 80.3713 104.638 80.222C104.489 80.0633 104.414 79.8673 104.414 79.634C104.414 79.4007 104.489 79.214 104.638 79.074C104.797 78.9247 104.993 78.85 105.226 78.85C105.45 78.85 105.642 78.9247 105.8 79.074C105.959 79.214 106.038 79.4007 106.038 79.634C106.038 79.8673 105.959 80.0633 105.8 80.222C105.642 80.3713 105.45 80.446 105.226 80.446ZM107.19 89V78.92H108.366V89H107.19ZM112.715 89.168C112.034 89.168 111.436 89.0093 110.923 88.692C110.41 88.3653 110.013 87.922 109.733 87.362C109.453 86.802 109.313 86.1673 109.313 85.458C109.313 84.7487 109.453 84.1187 109.733 83.568C110.013 83.008 110.41 82.5693 110.923 82.252C111.446 81.9347 112.048 81.776 112.729 81.776C113.308 81.776 113.812 81.8927 114.241 82.126C114.68 82.3593 115.016 82.686 115.249 83.106V78.92H116.425V89H115.361L115.263 87.838C115.114 88.0713 114.922 88.2907 114.689 88.496C114.456 88.692 114.176 88.8553 113.849 88.986C113.522 89.1073 113.144 89.168 112.715 89.168ZM112.855 88.146C113.322 88.146 113.732 88.034 114.087 87.81C114.442 87.586 114.717 87.278 114.913 86.886C115.109 86.4847 115.207 86.0133 115.207 85.472C115.207 84.94 115.109 84.4733 114.913 84.072C114.717 83.6707 114.442 83.358 114.087 83.134C113.732 82.91 113.322 82.798 112.855 82.798C112.398 82.798 111.992 82.91 111.637 83.134C111.282 83.358 111.007 83.6707 110.811 84.072C110.615 84.4733 110.517 84.94 110.517 85.472C110.517 86.0133 110.615 86.4847 110.811 86.886C111.007 87.278 111.282 87.586 111.637 87.81C111.992 88.034 112.398 88.146 112.855 88.146ZM120.778 89.168C120.116 89.168 119.528 89.014 119.014 88.706C118.51 88.398 118.114 87.9687 117.824 87.418C117.535 86.858 117.39 86.2093 117.39 85.472C117.39 84.7253 117.53 84.0767 117.81 83.526C118.1 82.9753 118.501 82.546 119.014 82.238C119.537 81.93 120.134 81.776 120.806 81.776C121.497 81.776 122.08 81.93 122.556 82.238C123.042 82.546 123.41 82.952 123.662 83.456C123.924 83.9507 124.054 84.4967 124.054 85.094C124.054 85.1873 124.054 85.2853 124.054 85.388C124.054 85.4907 124.05 85.6073 124.04 85.738H118.272V84.828H122.906C122.878 84.184 122.664 83.68 122.262 83.316C121.87 82.952 121.376 82.77 120.778 82.77C120.377 82.77 120.004 82.8633 119.658 83.05C119.322 83.2273 119.052 83.4933 118.846 83.848C118.641 84.1933 118.538 84.6273 118.538 85.15V85.542C118.538 86.1207 118.641 86.606 118.846 86.998C119.061 87.39 119.336 87.684 119.672 87.88C120.018 88.076 120.386 88.174 120.778 88.174C121.273 88.174 121.679 88.0667 121.996 87.852C122.323 87.628 122.556 87.3293 122.696 86.956H123.858C123.746 87.376 123.55 87.754 123.27 88.09C122.99 88.426 122.64 88.692 122.22 88.888C121.81 89.0747 121.329 89.168 120.778 89.168ZM124.941 89V81.944H126.005L126.089 83.288C126.248 82.9707 126.449 82.7 126.691 82.476C126.943 82.252 127.242 82.0793 127.587 81.958C127.942 81.8367 128.343 81.776 128.791 81.776V83.008H128.357C128.059 83.008 127.774 83.05 127.503 83.134C127.233 83.2087 126.99 83.3347 126.775 83.512C126.57 83.6893 126.407 83.932 126.285 84.24C126.173 84.5387 126.117 84.912 126.117 85.36V89H124.941ZM129.282 89.07C129.049 89.07 128.853 88.9953 128.694 88.846C128.545 88.6873 128.47 88.496 128.47 88.272C128.47 88.048 128.545 87.8613 128.694 87.712C128.853 87.5533 129.049 87.474 129.282 87.474C129.516 87.474 129.707 87.5533 129.856 87.712C130.006 87.8613 130.08 88.048 130.08 88.272C130.08 88.496 130.006 88.6873 129.856 88.846C129.707 88.9953 129.516 89.07 129.282 89.07ZM133.598 89.168C133.01 89.168 132.496 89.07 132.058 88.874C131.628 88.678 131.283 88.4073 131.022 88.062C130.77 87.7073 130.616 87.292 130.56 86.816H131.764C131.81 87.0587 131.908 87.2827 132.058 87.488C132.207 87.6933 132.408 87.8613 132.66 87.992C132.921 88.1133 133.238 88.174 133.612 88.174C133.938 88.174 134.209 88.1273 134.424 88.034C134.638 87.9313 134.797 87.796 134.9 87.628C135.012 87.46 135.068 87.278 135.068 87.082C135.068 86.7927 134.998 86.5733 134.858 86.424C134.727 86.2747 134.531 86.158 134.27 86.074C134.008 85.9807 133.691 85.9013 133.318 85.836C133.01 85.78 132.706 85.7053 132.408 85.612C132.109 85.5187 131.843 85.3973 131.61 85.248C131.376 85.0893 131.19 84.898 131.05 84.674C130.919 84.45 130.854 84.1747 130.854 83.848C130.854 83.4467 130.956 83.092 131.162 82.784C131.367 82.4667 131.661 82.2193 132.044 82.042C132.436 81.8647 132.888 81.776 133.402 81.776C134.158 81.776 134.769 81.958 135.236 82.322C135.702 82.686 135.978 83.2133 136.062 83.904H134.9C134.853 83.5493 134.699 83.274 134.438 83.078C134.186 82.8727 133.836 82.77 133.388 82.77C132.949 82.77 132.613 82.8587 132.38 83.036C132.156 83.2133 132.044 83.4467 132.044 83.736C132.044 83.9227 132.104 84.0907 132.226 84.24C132.356 84.38 132.543 84.5013 132.786 84.604C133.038 84.7067 133.346 84.7907 133.71 84.856C134.176 84.94 134.601 85.052 134.984 85.192C135.366 85.332 135.674 85.542 135.908 85.822C136.15 86.0927 136.272 86.48 136.272 86.984C136.272 87.4227 136.16 87.8053 135.936 88.132C135.721 88.4587 135.413 88.7153 135.012 88.902C134.61 89.0793 134.139 89.168 133.598 89.168ZM140.415 89.168C139.762 89.168 139.174 89.0187 138.651 88.72C138.128 88.412 137.718 87.9827 137.419 87.432C137.12 86.872 136.971 86.2233 136.971 85.486C136.971 84.73 137.12 84.0767 137.419 83.526C137.727 82.966 138.142 82.5367 138.665 82.238C139.197 81.93 139.79 81.776 140.443 81.776C141.115 81.776 141.708 81.93 142.221 82.238C142.744 82.5367 143.154 82.966 143.453 83.526C143.761 84.0767 143.915 84.7253 143.915 85.472C143.915 86.2187 143.761 86.872 143.453 87.432C143.145 87.9827 142.73 88.412 142.207 88.72C141.684 89.0187 141.087 89.168 140.415 89.168ZM140.429 88.16C140.83 88.16 141.204 88.062 141.549 87.866C141.894 87.6607 142.174 87.3573 142.389 86.956C142.604 86.5547 142.711 86.06 142.711 85.472C142.711 84.8747 142.604 84.38 142.389 83.988C142.184 83.5867 141.908 83.288 141.563 83.092C141.227 82.8867 140.854 82.784 140.443 82.784C140.051 82.784 139.678 82.8867 139.323 83.092C138.978 83.288 138.698 83.5867 138.483 83.988C138.278 84.38 138.175 84.8747 138.175 85.472C138.175 86.06 138.278 86.5547 138.483 86.956C138.698 87.3573 138.973 87.6607 139.309 87.866C139.654 88.062 140.028 88.16 140.429 88.16Z" fill="black"/>
<rect x="147" y="75" width="1" height="19" fill="black"/>
<rect x="34" y="115" width="322" height="38" rx="4" fill="#16A34A"/>
<path d="M141.35 139L144.934 129.2H146.81L150.394 139H148.616L145.858 131.16L143.1 139H141.35ZM142.946 136.69L143.394 135.36H148.224L148.672 136.69H142.946ZM150.986 139V131.944H152.47L152.596 133.12C152.811 132.709 153.119 132.383 153.52 132.14C153.921 131.897 154.397 131.776 154.948 131.776C155.517 131.776 156.003 131.897 156.404 132.14C156.805 132.373 157.113 132.719 157.328 133.176C157.552 133.633 157.664 134.203 157.664 134.884V139H155.984V135.038C155.984 134.45 155.853 133.997 155.592 133.68C155.331 133.363 154.943 133.204 154.43 133.204C154.094 133.204 153.791 133.283 153.52 133.442C153.259 133.601 153.049 133.834 152.89 134.142C152.741 134.441 152.666 134.805 152.666 135.234V139H150.986ZM161.087 139.168C160.509 139.168 160.028 139.07 159.645 138.874C159.263 138.678 158.978 138.417 158.791 138.09C158.605 137.763 158.511 137.409 158.511 137.026C158.511 136.578 158.623 136.191 158.847 135.864C159.081 135.537 159.421 135.285 159.869 135.108C160.317 134.921 160.868 134.828 161.521 134.828H163.299C163.299 134.455 163.248 134.147 163.145 133.904C163.043 133.652 162.884 133.465 162.669 133.344C162.455 133.223 162.179 133.162 161.843 133.162C161.461 133.162 161.134 133.251 160.863 133.428C160.593 133.596 160.425 133.857 160.359 134.212H158.707C158.763 133.708 158.931 133.279 159.211 132.924C159.491 132.56 159.86 132.28 160.317 132.084C160.784 131.879 161.293 131.776 161.843 131.776C162.506 131.776 163.071 131.893 163.537 132.126C164.004 132.35 164.359 132.677 164.601 133.106C164.853 133.526 164.979 134.035 164.979 134.632V139H163.551L163.383 137.866C163.29 138.053 163.169 138.225 163.019 138.384C162.879 138.543 162.716 138.683 162.529 138.804C162.343 138.916 162.128 139.005 161.885 139.07C161.652 139.135 161.386 139.168 161.087 139.168ZM161.465 137.838C161.736 137.838 161.974 137.791 162.179 137.698C162.394 137.595 162.576 137.455 162.725 137.278C162.884 137.091 163.005 136.886 163.089 136.662C163.173 136.438 163.229 136.2 163.257 135.948V135.92H161.703C161.377 135.92 161.106 135.962 160.891 136.046C160.677 136.121 160.523 136.233 160.429 136.382C160.336 136.531 160.289 136.704 160.289 136.9C160.289 137.096 160.336 137.264 160.429 137.404C160.523 137.544 160.658 137.651 160.835 137.726C161.013 137.801 161.223 137.838 161.465 137.838ZM166.074 139V128.92H167.754V139H166.074ZM169.783 142.08L171.505 138.216H171.085L168.271 131.944H170.105L172.205 136.732L174.193 131.944H175.971L171.561 142.08H169.783ZM176.025 139V137.642L179.679 133.344H176.081V131.944H181.611V133.302L177.915 137.614H181.681V139H176.025ZM185.831 139.168C185.131 139.168 184.515 139.019 183.983 138.72C183.451 138.412 183.036 137.983 182.737 137.432C182.438 136.881 182.289 136.247 182.289 135.528C182.289 134.781 182.434 134.128 182.723 133.568C183.022 133.008 183.437 132.569 183.969 132.252C184.51 131.935 185.136 131.776 185.845 131.776C186.536 131.776 187.138 131.93 187.651 132.238C188.164 132.546 188.561 132.961 188.841 133.484C189.121 133.997 189.261 134.576 189.261 135.22C189.261 135.313 189.261 135.416 189.261 135.528C189.261 135.64 189.252 135.757 189.233 135.878H183.493V134.8H187.567C187.548 134.287 187.376 133.885 187.049 133.596C186.722 133.297 186.316 133.148 185.831 133.148C185.486 133.148 185.168 133.227 184.879 133.386C184.59 133.545 184.361 133.783 184.193 134.1C184.025 134.408 183.941 134.8 183.941 135.276V135.682C183.941 136.121 184.02 136.499 184.179 136.816C184.347 137.133 184.571 137.376 184.851 137.544C185.14 137.703 185.462 137.782 185.817 137.782C186.209 137.782 186.531 137.698 186.783 137.53C187.044 137.362 187.236 137.138 187.357 136.858H189.065C188.934 137.297 188.72 137.693 188.421 138.048C188.122 138.393 187.754 138.669 187.315 138.874C186.876 139.07 186.382 139.168 185.831 139.168ZM192.83 139V131.944H194.314L194.454 132.91C194.678 132.555 194.972 132.28 195.336 132.084C195.71 131.879 196.134 131.776 196.61 131.776C196.965 131.776 197.282 131.823 197.562 131.916C197.852 132.009 198.104 132.149 198.318 132.336C198.542 132.523 198.724 132.756 198.864 133.036C199.126 132.644 199.466 132.336 199.886 132.112C200.306 131.888 200.764 131.776 201.258 131.776C201.846 131.776 202.346 131.897 202.756 132.14C203.167 132.373 203.48 132.723 203.694 133.19C203.909 133.647 204.016 134.212 204.016 134.884V139H202.35V135.052C202.35 134.455 202.229 133.997 201.986 133.68C201.744 133.363 201.384 133.204 200.908 133.204C200.582 133.204 200.292 133.283 200.04 133.442C199.798 133.601 199.606 133.834 199.466 134.142C199.326 134.441 199.256 134.809 199.256 135.248V139H197.59V135.052C197.59 134.455 197.469 133.997 197.226 133.68C196.984 133.363 196.62 133.204 196.134 133.204C195.826 133.204 195.546 133.283 195.294 133.442C195.052 133.601 194.86 133.834 194.72 134.142C194.58 134.441 194.51 134.809 194.51 135.248V139H192.83ZM205.713 142.08L207.435 138.216H207.015L204.201 131.944H206.035L208.135 136.732L210.123 131.944H211.901L207.491 142.08H205.713ZM219.166 139.168C218.793 139.168 218.457 139.117 218.158 139.014C217.86 138.921 217.598 138.79 217.374 138.622C217.15 138.445 216.964 138.244 216.814 138.02L216.632 139H215.134V128.92H216.814V132.98C217.038 132.635 217.342 132.35 217.724 132.126C218.107 131.893 218.583 131.776 219.152 131.776C219.815 131.776 220.398 131.939 220.902 132.266C221.416 132.583 221.817 133.022 222.106 133.582C222.405 134.133 222.554 134.767 222.554 135.486C222.554 136.186 222.41 136.816 222.12 137.376C221.831 137.936 221.43 138.375 220.916 138.692C220.412 139.009 219.829 139.168 219.166 139.168ZM218.816 137.712C219.208 137.712 219.558 137.619 219.866 137.432C220.174 137.236 220.412 136.975 220.58 136.648C220.758 136.312 220.846 135.92 220.846 135.472C220.846 135.033 220.758 134.646 220.58 134.31C220.412 133.974 220.174 133.713 219.866 133.526C219.558 133.339 219.208 133.246 218.816 133.246C218.415 133.246 218.06 133.339 217.752 133.526C217.454 133.713 217.216 133.974 217.038 134.31C216.87 134.646 216.786 135.033 216.786 135.472C216.786 135.92 216.87 136.312 217.038 136.648C217.216 136.975 217.454 137.236 217.752 137.432C218.06 137.619 218.415 137.712 218.816 137.712ZM226.103 139.168C225.534 139.168 225.044 139.056 224.633 138.832C224.232 138.599 223.924 138.253 223.709 137.796C223.495 137.329 223.387 136.755 223.387 136.074V131.944H225.067V135.906C225.067 136.513 225.193 136.975 225.445 137.292C225.707 137.6 226.099 137.754 226.621 137.754C226.957 137.754 227.256 137.675 227.517 137.516C227.788 137.357 227.998 137.129 228.147 136.83C228.306 136.522 228.385 136.149 228.385 135.71V131.944H230.065V139H228.581L228.455 137.824C228.241 138.235 227.928 138.561 227.517 138.804C227.116 139.047 226.645 139.168 226.103 139.168ZM234.048 139.168C233.423 139.168 232.877 139.07 232.41 138.874C231.953 138.669 231.589 138.389 231.318 138.034C231.057 137.67 230.903 137.255 230.856 136.788H232.536C232.583 136.984 232.667 137.166 232.788 137.334C232.91 137.493 233.073 137.619 233.278 137.712C233.493 137.805 233.745 137.852 234.034 137.852C234.314 137.852 234.543 137.815 234.72 137.74C234.898 137.656 235.028 137.549 235.112 137.418C235.196 137.287 235.238 137.147 235.238 136.998C235.238 136.774 235.178 136.601 235.056 136.48C234.935 136.359 234.758 136.265 234.524 136.2C234.3 136.125 234.03 136.055 233.712 135.99C233.376 135.925 233.05 135.845 232.732 135.752C232.424 135.649 232.144 135.523 231.892 135.374C231.65 135.225 231.454 135.033 231.304 134.8C231.164 134.567 231.094 134.282 231.094 133.946C231.094 133.535 231.202 133.167 231.416 132.84C231.64 132.513 231.958 132.257 232.368 132.07C232.788 131.874 233.288 131.776 233.866 131.776C234.688 131.776 235.341 131.967 235.826 132.35C236.321 132.723 236.61 133.251 236.694 133.932H235.098C235.052 133.671 234.921 133.47 234.706 133.33C234.492 133.181 234.207 133.106 233.852 133.106C233.488 133.106 233.208 133.176 233.012 133.316C232.826 133.447 232.732 133.624 232.732 133.848C232.732 133.988 232.788 134.119 232.9 134.24C233.022 134.352 233.194 134.45 233.418 134.534C233.642 134.609 233.918 134.683 234.244 134.758C234.767 134.861 235.229 134.982 235.63 135.122C236.032 135.262 236.349 135.467 236.582 135.738C236.816 136.009 236.932 136.391 236.932 136.886C236.942 137.334 236.825 137.731 236.582 138.076C236.349 138.421 236.018 138.692 235.588 138.888C235.159 139.075 234.646 139.168 234.048 139.168ZM237.933 139V131.944H239.613V139H237.933ZM238.773 130.824C238.465 130.824 238.208 130.731 238.003 130.544C237.807 130.348 237.709 130.11 237.709 129.83C237.709 129.541 237.807 129.307 238.003 129.13C238.208 128.943 238.465 128.85 238.773 128.85C239.081 128.85 239.333 128.943 239.529 129.13C239.734 129.307 239.837 129.541 239.837 129.83C239.837 130.11 239.734 130.348 239.529 130.544C239.333 130.731 239.081 130.824 238.773 130.824ZM240.854 139V131.944H242.338L242.464 133.12C242.679 132.709 242.987 132.383 243.388 132.14C243.789 131.897 244.265 131.776 244.816 131.776C245.385 131.776 245.871 131.897 246.272 132.14C246.673 132.373 246.981 132.719 247.196 133.176C247.42 133.633 247.532 134.203 247.532 134.884V139H245.852V135.038C245.852 134.45 245.721 133.997 245.46 133.68C245.199 133.363 244.811 133.204 244.298 133.204C243.962 133.204 243.659 133.283 243.388 133.442C243.127 133.601 242.917 133.834 242.758 134.142C242.609 134.441 242.534 134.805 242.534 135.234V139H240.854ZM251.907 139.168C251.207 139.168 250.591 139.019 250.059 138.72C249.527 138.412 249.112 137.983 248.813 137.432C248.515 136.881 248.365 136.247 248.365 135.528C248.365 134.781 248.51 134.128 248.799 133.568C249.098 133.008 249.513 132.569 250.045 132.252C250.587 131.935 251.212 131.776 251.921 131.776C252.612 131.776 253.214 131.93 253.727 132.238C254.241 132.546 254.637 132.961 254.917 133.484C255.197 133.997 255.337 134.576 255.337 135.22C255.337 135.313 255.337 135.416 255.337 135.528C255.337 135.64 255.328 135.757 255.309 135.878H249.569V134.8H253.643C253.625 134.287 253.452 133.885 253.125 133.596C252.799 133.297 252.393 133.148 251.907 133.148C251.562 133.148 251.245 133.227 250.955 133.386C250.666 133.545 250.437 133.783 250.269 134.1C250.101 134.408 250.017 134.8 250.017 135.276V135.682C250.017 136.121 250.097 136.499 250.255 136.816C250.423 137.133 250.647 137.376 250.927 137.544C251.217 137.703 251.539 137.782 251.893 137.782C252.285 137.782 252.607 137.698 252.859 137.53C253.121 137.362 253.312 137.138 253.433 136.858H255.141C255.011 137.297 254.796 137.693 254.497 138.048C254.199 138.393 253.83 138.669 253.391 138.874C252.953 139.07 252.458 139.168 251.907 139.168ZM259.002 139.168C258.377 139.168 257.831 139.07 257.364 138.874C256.907 138.669 256.543 138.389 256.272 138.034C256.011 137.67 255.857 137.255 255.81 136.788H257.49C257.537 136.984 257.621 137.166 257.742 137.334C257.864 137.493 258.027 137.619 258.232 137.712C258.447 137.805 258.699 137.852 258.988 137.852C259.268 137.852 259.497 137.815 259.674 137.74C259.852 137.656 259.982 137.549 260.066 137.418C260.15 137.287 260.192 137.147 260.192 136.998C260.192 136.774 260.132 136.601 260.01 136.48C259.889 136.359 259.712 136.265 259.478 136.2C259.254 136.125 258.984 136.055 258.666 135.99C258.33 135.925 258.004 135.845 257.686 135.752C257.378 135.649 257.098 135.523 256.846 135.374C256.604 135.225 256.408 135.033 256.258 134.8C256.118 134.567 256.048 134.282 256.048 133.946C256.048 133.535 256.156 133.167 256.37 132.84C256.594 132.513 256.912 132.257 257.322 132.07C257.742 131.874 258.242 131.776 258.82 131.776C259.642 131.776 260.295 131.967 260.78 132.35C261.275 132.723 261.564 133.251 261.648 133.932H260.052C260.006 133.671 259.875 133.47 259.66 133.33C259.446 133.181 259.161 133.106 258.806 133.106C258.442 133.106 258.162 133.176 257.966 133.316C257.78 133.447 257.686 133.624 257.686 133.848C257.686 133.988 257.742 134.119 257.854 134.24C257.976 134.352 258.148 134.45 258.372 134.534C258.596 134.609 258.872 134.683 259.198 134.758C259.721 134.861 260.183 134.982 260.584 135.122C260.986 135.262 261.303 135.467 261.536 135.738C261.77 136.009 261.886 136.391 261.886 136.886C261.896 137.334 261.779 137.731 261.536 138.076C261.303 138.421 260.972 138.692 260.542 138.888C260.113 139.075 259.6 139.168 259.002 139.168ZM265.631 139.168C265.005 139.168 264.459 139.07 263.993 138.874C263.535 138.669 263.171 138.389 262.901 138.034C262.639 137.67 262.485 137.255 262.439 136.788H264.119C264.165 136.984 264.249 137.166 264.371 137.334C264.492 137.493 264.655 137.619 264.861 137.712C265.075 137.805 265.327 137.852 265.617 137.852C265.897 137.852 266.125 137.815 266.303 137.74C266.48 137.656 266.611 137.549 266.695 137.418C266.779 137.287 266.821 137.147 266.821 136.998C266.821 136.774 266.76 136.601 266.639 136.48C266.517 136.359 266.34 136.265 266.107 136.2C265.883 136.125 265.612 136.055 265.295 135.99C264.959 135.925 264.632 135.845 264.315 135.752C264.007 135.649 263.727 135.523 263.475 135.374C263.232 135.225 263.036 135.033 262.887 134.8C262.747 134.567 262.677 134.282 262.677 133.946C262.677 133.535 262.784 133.167 262.999 132.84C263.223 132.513 263.54 132.257 263.951 132.07C264.371 131.874 264.87 131.776 265.449 131.776C266.27 131.776 266.923 131.967 267.409 132.35C267.903 132.723 268.193 133.251 268.277 133.932H266.681C266.634 133.671 266.503 133.47 266.289 133.33C266.074 133.181 265.789 133.106 265.435 133.106C265.071 133.106 264.791 133.176 264.595 133.316C264.408 133.447 264.315 133.624 264.315 133.848C264.315 133.988 264.371 134.119 264.483 134.24C264.604 134.352 264.777 134.45 265.001 134.534C265.225 134.609 265.5 134.683 265.827 134.758C266.349 134.861 266.811 134.982 267.213 135.122C267.614 135.262 267.931 135.467 268.165 135.738C268.398 136.009 268.515 136.391 268.515 136.886C268.524 137.334 268.407 137.731 268.165 138.076C267.931 138.421 267.6 138.692 267.171 138.888C266.741 139.075 266.228 139.168 265.631 139.168Z" fill="white"/>
<path d="M126.83 129.086C127.279 127.774 129.092 127.734 129.624 128.967L129.669 129.087L130.274 130.857C130.413 131.263 130.637 131.634 130.932 131.946C131.226 132.258 131.584 132.503 131.981 132.665L132.144 132.726L133.914 133.33C135.226 133.779 135.266 135.592 134.034 136.124L133.914 136.169L132.144 136.774C131.738 136.913 131.366 137.137 131.054 137.431C130.742 137.726 130.497 138.084 130.335 138.481L130.274 138.643L129.67 140.414C129.221 141.727 127.408 141.766 126.877 140.534L126.83 140.414L126.226 138.644C126.087 138.238 125.863 137.866 125.569 137.554C125.274 137.242 124.916 136.997 124.519 136.835L124.357 136.774L122.587 136.17C121.273 135.721 121.234 133.908 122.467 133.377L122.587 133.33L124.357 132.726C124.763 132.587 125.134 132.363 125.446 132.068C125.758 131.774 126.003 131.416 126.165 131.019L126.226 130.857L126.83 129.086ZM134.25 126.5C134.39 126.5 134.528 126.539 134.647 126.614C134.766 126.688 134.862 126.794 134.923 126.92L134.959 127.008L135.222 127.777L135.992 128.04C136.133 128.088 136.256 128.176 136.346 128.294C136.437 128.412 136.49 128.554 136.499 128.702C136.509 128.85 136.474 128.998 136.4 129.126C136.325 129.255 136.214 129.358 136.081 129.424L135.992 129.46L135.223 129.722L134.96 130.492C134.912 130.633 134.824 130.756 134.706 130.846C134.588 130.936 134.446 130.99 134.298 130.999C134.149 131.008 134.002 130.974 133.873 130.899C133.745 130.824 133.642 130.713 133.576 130.58L133.54 130.492L133.278 129.723L132.508 129.46C132.367 129.412 132.244 129.324 132.154 129.206C132.063 129.088 132.01 128.946 132 128.798C131.991 128.65 132.026 128.502 132.1 128.374C132.175 128.245 132.286 128.142 132.419 128.077L132.508 128.041L133.277 127.778L133.54 127.008C133.59 126.86 133.686 126.731 133.813 126.64C133.941 126.549 134.093 126.5 134.25 126.5Z" fill="white"/>
<path d="M307.115 135.108L319.378 139.621L319.379 139.622C321.184 140.288 322.647 140.824 323.687 141.393C324.743 141.97 325.593 142.702 325.85 143.866C326.107 145.032 325.641 146.053 324.924 147.019C324.218 147.971 323.113 149.069 321.751 150.43L321.752 150.431L319.753 152.43L327.907 160.584C328.356 161.034 328.73 161.406 329.013 161.732C329.303 162.064 329.549 162.401 329.714 162.8H329.713C330.095 163.726 330.095 164.765 329.714 165.693L329.713 165.695C329.548 166.092 329.302 166.429 329.012 166.761C328.729 167.086 328.356 167.458 327.907 167.907C327.458 168.357 327.086 168.729 326.76 169.013C326.428 169.303 326.09 169.548 325.691 169.712L325.692 169.713C324.765 170.096 323.724 170.096 322.797 169.713L322.797 169.712C322.398 169.547 322.062 169.302 321.731 169.013C321.407 168.73 321.035 168.357 320.586 167.908L312.43 159.753L310.431 161.751C309.071 163.114 307.972 164.218 307.019 164.924C306.053 165.641 305.032 166.106 303.868 165.851C302.702 165.595 301.969 164.743 301.392 163.688C300.966 162.907 300.558 161.889 300.099 160.667L299.622 159.378L295.106 147.115C293.767 143.481 292.719 140.65 292.26 138.493C291.806 136.355 291.844 134.502 293.171 133.175C294.497 131.849 296.351 131.809 298.49 132.263C300.648 132.721 303.48 133.767 307.115 135.108Z" fill="black" stroke="white" stroke-width="2"/>
</svg>
